{"glyphs":{"0":{"ha":721,"x_min":54,"x_max":626,"o":"m 626 197 q 604 118 626 151 q 556 63 589 97 q 503 18 524 29 q 418 -7 463 -7 l 264 -7 q 178 18 218 -7 q 124 63 158 29 q 76 118 90 97 q 54 197 54 151 l 54 632 q 76 711 54 678 q 124 766 90 732 q 178 811 158 800 q 264 836 218 836 l 418 836 q 503 811 463 836 q 556 766 524 800 q 604 711 589 732 q 626 632 626 678 l 626 197 m 200 629 l 200 199 q 201 193 200 194 q 263 133 231 150 q 269 132 265 132 l 413 132 q 419 133 417 132 q 479 193 451 150 l 481 199 l 481 629 q 479 636 481 635 q 419 696 451 679 q 413 697 417 697 l 269 697 q 263 696 264 697 q 201 636 231 681 l 200 629 z "},"1":{"ha":721,"x_min":136,"x_max":447,"o":"m 447 0 l 301 0 l 301 690 l 136 690 l 136 831 l 447 831 l 447 0 z "},"2":{"ha":721,"x_min":67,"x_max":621,"o":"m 421 696 l 281 696 q 272 694 275 696 q 206 622 222 665 l 67 664 q 96 719 79 697 q 275 835 185 835 l 422 835 q 519 803 476 835 q 560 767 535 793 q 596 728 586 742 q 621 643 621 690 l 621 554 q 518 404 621 457 l 244 263 q 222 233 222 250 l 222 139 l 611 139 l 611 0 l 76 0 l 76 239 q 181 388 76 333 l 457 531 q 475 558 475 539 l 475 643 l 474 650 q 447 681 464 667 q 421 696 431 696 z "},"3":{"ha":721,"x_min":32,"x_max":606,"o":"m 460 186 l 460 299 q 458 306 460 303 q 434 336 450 321 q 408 351 418 351 l 407 351 l 231 351 l 231 489 l 407 489 l 408 489 q 434 504 418 489 q 458 535 450 519 l 460 542 l 460 642 l 458 649 q 433 680 449 665 q 407 694 417 694 l 249 694 q 243 693 246 694 q 203 665 225 685 q 175 622 182 644 l 33 661 q 67 721 51 699 q 244 835 157 835 l 408 835 q 506 804 463 835 q 581 728 549 772 q 606 643 606 690 l 606 539 q 550 421 606 476 q 606 301 606 365 l 606 185 q 581 100 606 138 q 545 60 571 86 q 506 24 519 33 q 408 -7 463 -7 l 244 -7 q 67 107 154 -7 q 32 167 40 143 l 174 204 q 242 133 211 149 q 249 132 244 132 l 407 132 q 432 147 415 132 q 458 179 449 163 q 460 186 460 182 z "},"4":{"ha":721,"x_min":19,"x_max":622,"o":"m 622 165 l 538 165 l 538 0 l 392 0 l 392 165 l 19 165 l 19 290 l 369 831 l 538 831 l 538 304 l 622 304 l 622 165 m 392 304 l 392 619 l 190 304 l 392 304 z "},"5":{"ha":721,"x_min":47,"x_max":610,"o":"m 610 185 q 585 100 610 138 q 550 59 575 85 q 510 24 525 33 q 411 -7 468 -7 l 258 -7 q 79 107 168 -7 q 47 167 60 133 l 189 204 q 253 133 217 151 q 263 132 256 132 l 410 132 q 418 133 415 132 q 463 179 446 151 q 464 186 464 182 l 464 326 l 463 333 q 418 381 447 363 q 410 382 415 382 l 82 382 l 82 831 l 569 831 l 569 692 l 228 692 l 228 521 l 411 521 q 510 488 468 521 q 550 453 525 478 q 585 415 575 429 q 610 329 610 378 l 610 185 z "},"6":{"ha":721,"x_min":58,"x_max":618,"o":"m 208 654 q 204 639 204 650 l 204 494 q 285 536 253 536 l 421 536 q 517 507 475 536 q 558 471 532 496 q 593 432 583 446 q 618 346 618 394 l 618 185 q 593 100 618 138 q 557 60 583 86 q 517 24 531 35 q 421 -7 475 -7 l 256 -7 q 160 24 201 -7 q 119 60 146 35 q 83 100 93 86 q 58 183 58 138 l 58 643 q 83 728 58 690 q 119 767 93 742 q 160 804 146 793 q 256 835 201 835 l 406 835 q 582 721 494 835 q 617 660 604 692 l 475 621 l 472 626 q 410 693 450 672 q 401 696 404 696 l 258 696 q 240 685 253 696 q 218 664 228 675 l 208 654 m 472 344 l 471 353 q 445 385 461 369 q 419 400 429 400 l 289 400 q 267 396 272 400 q 204 336 217 360 l 204 199 l 206 179 q 232 147 215 163 q 258 132 249 132 l 419 132 q 445 147 429 132 q 471 178 461 161 q 472 196 472 181 l 472 344 z "},"7":{"ha":721,"x_min":58,"x_max":635,"o":"m 635 717 l 293 0 l 128 0 l 468 692 l 58 692 l 58 831 l 635 831 l 635 717 z "},"8":{"ha":721,"x_min":54,"x_max":611,"o":"m 611 185 q 586 100 611 138 q 551 60 576 86 q 510 24 525 33 q 414 -7 468 -7 l 399 -7 l 268 -7 l 253 -7 q 156 24 197 -7 q 115 60 142 35 q 79 100 89 86 q 54 185 54 138 l 54 299 q 111 418 54 364 q 54 536 54 472 l 54 644 q 79 729 54 692 q 115 769 89 743 q 156 806 142 796 q 253 836 197 836 l 414 836 q 510 806 468 836 q 551 769 525 796 q 586 729 576 743 q 611 644 611 692 l 611 536 q 556 418 611 474 q 611 299 611 363 l 611 185 m 464 529 q 465 536 465 531 l 465 644 l 464 651 q 438 683 454 668 q 413 697 422 697 l 254 697 q 228 683 244 697 q 201 651 211 668 q 200 644 200 649 l 200 536 l 201 529 q 226 498 210 513 q 253 483 243 483 l 257 483 l 261 483 l 265 483 l 269 483 l 274 483 l 278 483 l 281 483 l 285 483 l 289 483 l 293 483 l 297 483 l 301 483 l 306 483 l 310 483 l 314 483 l 318 483 l 322 483 l 326 483 l 329 483 l 333 483 l 338 483 l 342 483 l 346 483 l 350 483 l 354 483 l 358 483 l 363 483 l 365 483 l 369 483 l 374 483 l 378 483 l 382 483 l 386 483 l 390 483 l 393 483 l 397 483 l 401 483 l 414 483 q 440 499 424 483 q 464 529 456 514 m 464 176 q 465 183 465 178 l 465 294 l 464 301 q 438 332 454 317 q 411 347 421 347 l 253 347 q 227 333 243 347 q 201 301 211 318 q 200 294 200 299 l 200 183 l 201 176 q 226 146 210 160 q 251 132 242 132 l 256 132 l 260 132 l 264 132 l 268 132 l 271 132 l 275 132 l 279 132 l 283 132 l 288 132 l 292 132 l 296 132 l 300 132 l 304 132 l 308 132 l 311 132 l 315 132 l 319 132 l 324 132 l 328 132 l 332 132 l 336 132 l 340 132 l 343 132 l 347 132 l 351 132 l 356 132 l 360 132 l 364 132 l 368 132 l 371 132 l 375 132 l 379 132 l 383 132 l 388 132 l 390 132 l 394 132 l 399 132 l 403 132 l 414 132 q 440 147 424 132 q 464 176 456 161 z "},"9":{"ha":721,"x_min":53,"x_max":613,"o":"m 465 176 q 467 188 467 179 l 467 335 q 388 292 418 292 l 251 292 q 154 321 196 292 q 113 357 139 332 q 78 396 88 382 q 53 481 53 433 l 53 643 q 78 728 53 690 q 114 767 88 742 q 154 804 140 793 q 251 835 196 835 l 415 835 q 511 804 469 835 q 552 768 526 794 q 588 728 578 742 q 613 644 613 690 l 613 185 q 588 100 613 138 q 552 60 578 86 q 511 24 526 33 q 415 -7 469 -7 l 267 -7 q 89 107 176 -7 q 54 169 68 135 l 196 207 l 199 200 q 226 160 207 179 q 261 135 246 142 q 271 132 267 132 l 414 132 q 440 147 424 132 q 465 176 456 161 m 467 492 l 467 643 l 465 650 q 440 681 456 667 q 414 696 424 696 l 253 696 q 227 683 243 696 q 201 653 211 669 q 200 640 200 650 l 199 482 l 200 475 q 226 443 210 458 q 253 428 243 428 l 382 428 q 407 432 401 428 q 467 492 454 468 z "},"\r":{"ha":694,"x_min":0,"x_max":0,"o":""}," ":{"ha":326,"x_min":0,"x_max":0,"o":""},"!":{"ha":369,"x_min":61,"x_max":231,"o":"m 215 225 l 76 225 l 76 831 l 215 831 l 215 225 m 231 -4 l 61 -4 l 61 160 l 231 160 l 231 -4 z "},"\"":{"ha":529,"x_min":58,"x_max":414,"o":"m 414 694 l 403 600 l 265 600 l 278 713 l 278 889 l 414 889 l 414 694 m 207 694 l 196 600 l 58 600 l 71 713 l 71 889 l 207 889 l 207 694 z "},"#":{"ha":742,"x_min":25,"x_max":649,"o":"m 649 568 l 625 436 l 508 436 l 494 361 l 611 361 l 588 231 l 471 231 l 446 99 l 310 99 l 335 231 l 278 231 l 253 99 l 117 99 l 140 231 l 25 231 l 49 361 l 165 361 l 179 436 l 63 436 l 86 568 l 203 568 l 226 694 l 363 694 l 339 568 l 396 568 l 419 694 l 556 694 l 532 568 l 649 568 m 372 436 l 315 436 l 301 361 l 358 361 l 372 436 z "},"$":{"ha":758,"x_min":43,"x_max":675,"o":"m 675 199 q 653 119 675 150 q 606 65 639 99 q 551 19 572 31 q 465 -6 507 -6 l 404 -6 l 404 -125 l 324 -125 l 324 -6 l 244 -6 q 68 110 154 -6 q 43 153 61 121 l 181 199 q 242 135 208 160 q 251 133 244 133 l 324 133 l 325 356 l 151 403 q 72 460 100 417 q 43 554 43 503 l 43 633 q 64 713 43 681 q 112 766 78 732 q 167 813 146 800 q 253 838 211 838 l 326 838 l 326 929 l 407 929 l 407 838 l 458 838 q 635 722 547 838 q 663 674 649 703 l 522 633 q 461 697 490 679 q 453 699 460 699 l 406 699 l 406 481 l 567 438 q 646 380 617 424 q 675 286 675 336 l 675 199 m 189 560 q 204 536 189 539 l 325 503 l 325 699 l 260 699 l 251 697 q 212 665 235 689 q 189 633 189 642 l 189 560 m 513 306 l 406 335 l 404 133 l 458 133 l 467 135 q 506 167 482 143 q 529 199 529 190 l 529 282 q 513 306 529 303 z "},"%":{"ha":1161,"x_min":49,"x_max":1043,"o":"m 857 831 l 399 -1 l 239 -1 l 699 831 l 857 831 m 1043 128 q 1025 61 1043 86 q 974 10 1006 36 q 896 -14 936 -14 l 807 -14 q 731 10 767 -14 q 678 61 700 33 q 660 128 660 86 l 660 306 q 678 372 660 347 q 731 424 700 400 q 807 447 767 447 l 896 447 q 974 424 936 447 q 1025 372 1006 399 q 1043 306 1043 347 l 1043 128 m 928 294 q 926 301 928 300 q 894 332 908 324 q 888 333 893 333 l 815 333 q 808 332 810 333 q 776 301 790 321 l 775 294 l 775 139 q 776 132 775 135 q 808 101 790 113 q 815 100 810 100 l 888 100 q 894 101 893 100 q 926 132 908 110 q 928 139 928 133 l 928 294 m 432 524 q 414 457 432 482 q 363 406 394 431 q 285 382 325 382 l 196 382 q 119 406 156 382 q 67 457 89 429 q 49 524 49 482 l 49 701 q 67 768 49 743 q 119 819 89 796 q 196 843 156 843 l 285 843 q 363 819 325 843 q 414 768 394 794 q 432 701 432 743 l 432 524 m 317 690 q 315 697 317 696 q 283 728 297 719 q 276 729 282 729 l 204 729 q 197 728 199 729 q 165 697 179 717 l 164 690 l 164 535 q 165 528 164 531 q 197 497 179 508 q 204 496 199 496 l 276 496 q 283 497 282 496 q 315 528 297 506 q 317 535 317 529 l 317 690 z "},"&":{"ha":779,"x_min":61,"x_max":685,"o":"m 447 133 q 475 150 457 133 q 503 183 493 167 q 504 193 504 186 l 504 397 l 685 397 l 685 256 l 646 256 l 646 182 q 621 99 646 133 q 586 60 611 85 q 547 25 561 35 q 447 -6 506 -6 l 369 -6 l 369 -7 l 258 -7 q 161 24 204 -7 q 122 60 147 33 q 86 100 96 86 q 61 185 61 138 l 61 293 q 117 411 61 356 q 61 531 61 467 l 61 643 q 86 728 61 690 q 122 768 96 742 q 161 804 147 794 q 258 835 204 835 l 394 835 q 572 721 485 835 q 607 661 599 685 l 465 624 q 397 694 428 679 q 390 696 394 696 l 260 696 q 235 681 251 696 q 208 649 218 665 q 207 642 207 646 l 207 533 q 208 526 207 529 q 233 496 217 511 q 258 481 249 481 l 436 481 l 436 343 l 258 343 q 233 328 249 343 q 208 297 217 313 l 207 290 l 207 186 l 208 179 q 234 148 218 163 q 260 133 250 133 l 447 133 z "},"'":{"ha":322,"x_min":58,"x_max":207,"o":"m 207 694 l 196 600 l 58 600 l 71 713 l 71 889 l 207 889 l 207 694 z "},"(":{"ha":479,"x_min":49,"x_max":371,"o":"m 371 22 l 265 -78 q 223 -37 256 -68 q 172 11 190 -6 q 72 117 93 88 q 49 197 49 153 l 49 622 q 72 701 49 665 q 164 801 97 738 q 207 842 167 804 q 265 899 247 881 l 369 800 q 316 751 367 797 q 229 667 265 704 q 193 619 193 631 l 193 200 q 265 118 193 186 q 371 22 336 50 z "},")":{"ha":492,"x_min":44,"x_max":365,"o":"m 365 197 q 343 117 365 150 q 243 11 321 83 q 147 -79 165 -61 l 44 24 q 150 119 79 51 q 221 200 221 186 l 221 619 q 185 667 221 631 q 99 750 149 704 q 46 799 49 796 l 147 897 l 189 861 q 251 803 229 824 q 343 701 317 740 q 365 622 365 668 l 365 197 z "},"*":{"ha":635,"x_min":42,"x_max":531,"o":"m 346 879 l 343 722 l 494 775 l 531 658 l 382 613 l 478 486 l 379 415 l 289 543 l 199 413 l 100 485 l 193 610 l 42 656 l 81 772 l 228 721 l 225 879 l 346 879 z "},"+":{"ha":714,"x_min":71,"x_max":600,"o":"m 600 272 l 403 272 l 403 79 l 268 79 l 268 272 l 71 272 l 71 403 l 268 403 l 268 599 l 403 599 l 403 403 l 600 403 l 600 272 z "},",":{"ha":376,"x_min":0,"x_max":258,"o":"m 258 104 l 156 -118 l 0 -118 l 124 146 l 258 104 z "},"-":{"ha":443,"x_min":35,"x_max":343,"o":"m 343 272 l 35 272 l 35 403 l 343 403 l 343 272 z "},".":{"ha":371,"x_min":63,"x_max":233,"o":"m 233 0 l 63 0 l 63 175 l 233 175 l 233 0 z "},"/":{"ha":614,"x_min":-31,"x_max":581,"o":"m 581 831 l 129 0 l -31 0 l 422 831 l 581 831 z "},":":{"ha":371,"x_min":63,"x_max":233,"o":"m 233 346 l 63 346 l 63 521 l 233 521 l 233 346 m 233 0 l 63 0 l 63 175 l 233 175 l 233 0 z "},";":{"ha":371,"x_min":-4,"x_max":254,"o":"m 247 344 l 76 344 l 76 519 l 247 519 l 247 344 m 254 104 l 151 -118 l -4 -118 l 119 146 l 254 104 z "},"<":{"ha":1003,"x_min":-18,"x_max":871,"o":"m 871 346 l 240 346 l 601 1 l 410 1 l -18 413 l 410 826 l 601 826 l 236 481 l 871 481 l 871 346 z "},"=":{"ha":675,"x_min":40,"x_max":558,"o":"m 558 393 l 40 393 l 40 522 l 558 522 l 558 393 m 558 185 l 40 185 l 40 313 l 558 313 l 558 185 z "},">":{"ha":1003,"x_min":39,"x_max":928,"o":"m 928 413 l 499 1 l 308 1 l 668 346 l 39 346 l 39 481 l 672 481 l 307 826 l 499 826 l 928 413 z "},"?":{"ha":644,"x_min":33,"x_max":600,"o":"m 600 549 q 572 460 600 500 q 500 400 543 421 q 481 392 496 399 q 451 378 465 385 q 423 363 438 371 q 399 345 408 354 q 390 328 390 336 l 390 226 l 244 226 l 244 333 q 254 385 244 361 q 274 424 264 408 q 310 457 285 439 q 349 482 336 475 q 395 505 361 489 q 436 525 429 521 q 454 553 454 533 l 454 643 l 453 650 q 427 681 443 667 q 401 696 411 696 l 246 696 q 235 692 242 696 q 176 632 196 665 l 171 622 l 33 663 q 65 721 51 700 q 242 835 144 835 l 407 835 q 504 803 461 835 q 575 729 543 775 q 600 644 600 692 l 600 549 m 401 0 l 233 0 l 233 163 l 401 163 l 401 0 z "},"@":{"ha":890,"x_min":49,"x_max":778,"o":"m 342 -99 l 363 -231 l 258 -231 q 172 -206 213 -231 q 119 -160 153 -194 q 71 -106 85 -126 q 49 -26 49 -72 l 49 632 q 71 711 49 678 q 119 766 85 732 q 172 811 153 800 q 258 836 213 836 l 557 836 q 643 811 603 836 q 695 767 663 800 q 744 711 728 733 q 767 632 767 678 l 767 124 l 778 0 l 639 0 l 636 31 q 546 -7 588 -7 l 488 -7 q 388 24 429 -7 q 321 92 346 54 q 296 178 296 128 l 296 414 q 321 500 296 465 q 388 568 353 544 q 488 597 429 597 l 546 597 q 628 565 582 597 l 628 628 q 626 635 628 633 q 592 674 614 653 q 558 703 571 696 q 551 704 556 704 l 264 704 q 257 703 258 704 q 223 674 244 696 q 189 635 201 653 l 188 628 l 188 -25 q 189 -31 188 -29 q 223 -69 201 -49 q 257 -97 244 -90 q 264 -99 260 -99 l 342 -99 m 628 188 l 628 404 q 583 445 613 422 q 542 468 553 468 l 489 468 q 481 467 482 468 q 436 418 456 450 q 435 411 435 415 l 435 181 l 436 172 q 481 125 454 142 q 489 122 486 122 l 542 122 q 583 146 553 122 q 628 188 613 169 z "},"A":{"ha":763,"x_min":-33,"x_max":715,"o":"m 715 0 l 560 0 l 499 176 l 183 176 l 122 0 l -33 0 l 257 831 l 426 831 l 715 0 m 453 315 l 342 643 l 229 315 l 453 315 z "},"B":{"ha":771,"x_min":61,"x_max":649,"o":"m 649 189 q 625 106 649 140 q 590 66 615 92 q 551 31 565 40 q 451 0 508 0 l 61 0 l 61 831 l 451 831 q 551 799 506 831 q 590 763 565 789 q 625 724 615 738 q 649 638 649 689 l 649 535 q 594 414 649 468 q 649 294 649 360 l 649 189 m 501 528 q 503 538 503 531 l 503 636 l 501 643 q 476 676 492 660 q 450 692 460 692 l 207 692 l 207 482 l 451 482 q 478 497 461 482 q 501 528 494 513 m 501 185 q 503 194 503 189 l 503 293 l 501 300 q 476 332 492 317 q 450 347 460 347 l 207 347 l 207 139 l 451 139 q 478 154 461 139 q 501 185 494 169 z "},"C":{"ha":768,"x_min":61,"x_max":650,"o":"m 650 161 q 621 108 636 129 q 444 -7 535 -7 l 271 -7 q 185 18 225 -7 q 131 64 164 31 q 83 117 97 97 q 61 196 61 150 l 61 633 q 83 711 61 678 q 131 766 97 732 q 185 811 165 800 q 271 836 229 836 l 444 836 q 621 721 533 836 q 650 672 629 710 l 508 632 q 446 696 467 683 q 440 697 444 697 l 276 697 l 271 696 q 208 635 235 676 q 207 619 207 632 l 207 197 q 230 165 207 186 q 271 133 253 143 q 281 132 272 132 l 439 132 q 446 133 443 132 q 474 156 458 139 q 500 186 490 172 l 508 199 l 650 161 z "},"D":{"ha":782,"x_min":61,"x_max":649,"o":"m 649 201 q 628 122 649 153 q 581 70 614 103 q 525 25 547 38 q 442 0 481 0 l 61 0 l 61 831 l 442 831 q 526 807 490 831 q 579 761 547 794 q 626 706 611 728 q 649 626 649 675 l 649 201 m 207 139 l 432 139 q 442 140 440 139 q 481 172 458 150 q 503 204 503 193 l 503 622 q 501 629 503 626 q 440 690 475 672 q 428 692 439 692 l 207 692 l 207 139 z "},"E":{"ha":717,"x_min":61,"x_max":583,"o":"m 583 0 l 61 0 l 61 831 l 583 831 l 583 692 l 207 692 l 207 482 l 557 482 l 557 343 l 207 343 l 207 139 l 583 139 l 583 0 z "},"F":{"ha":686,"x_min":61,"x_max":582,"o":"m 582 692 l 207 692 l 207 482 l 557 482 l 557 343 l 207 343 l 207 0 l 61 0 l 61 831 l 582 831 l 582 692 z "},"G":{"ha":831,"x_min":61,"x_max":710,"o":"m 207 632 l 207 197 q 230 165 207 186 q 271 133 253 143 l 272 133 q 278 132 275 132 l 467 132 l 474 133 q 514 167 490 143 q 538 201 538 190 l 538 336 l 358 336 l 358 475 l 683 475 l 683 194 q 710 0 693 103 l 567 0 l 560 33 q 474 -7 503 -7 l 271 -7 q 185 18 225 -7 q 131 63 164 31 q 83 115 97 96 q 61 196 61 149 l 61 635 q 83 714 61 681 q 131 769 97 735 q 185 814 165 803 q 271 838 222 838 l 474 838 q 650 722 569 838 q 679 674 671 693 l 539 633 q 474 697 508 675 q 467 699 472 699 l 278 699 l 271 697 q 208 638 233 676 l 207 632 z "},"H":{"ha":794,"x_min":61,"x_max":656,"o":"m 656 0 l 510 0 l 510 343 l 207 343 l 207 0 l 61 0 l 61 831 l 207 831 l 207 482 l 510 482 l 510 831 l 656 831 l 656 0 z "},"I":{"ha":346,"x_min":61,"x_max":207,"o":"m 207 0 l 61 0 l 61 831 l 207 831 l 207 0 z "},"J":{"ha":656,"x_min":-4,"x_max":513,"o":"m 513 196 q 489 117 513 153 q 442 63 474 96 q 390 18 410 29 q 304 -7 347 -7 l 201 -7 q 24 108 110 -7 q -4 161 15 121 l 136 199 q 192 133 158 150 q 203 132 193 132 l 297 132 q 335 160 304 131 q 367 197 367 190 l 367 831 l 513 831 l 513 196 z "},"K":{"ha":749,"x_min":61,"x_max":689,"o":"m 689 0 l 510 0 l 222 347 l 207 347 l 207 0 l 61 0 l 61 831 l 207 831 l 207 485 l 221 485 q 367 660 271 543 q 508 831 463 776 l 688 831 l 342 417 q 497 231 364 390 q 689 0 629 71 z "},"L":{"ha":667,"x_min":61,"x_max":575,"o":"m 575 0 l 61 0 l 61 831 l 207 831 l 207 139 l 575 139 l 575 0 z "},"M":{"ha":918,"x_min":61,"x_max":779,"o":"m 779 0 l 633 0 l 633 568 l 468 204 l 372 204 l 207 567 l 207 0 l 61 0 l 61 831 l 228 831 l 422 421 l 614 831 l 779 831 l 779 0 z "},"N":{"ha":788,"x_min":61,"x_max":649,"o":"m 649 0 l 494 0 l 207 551 l 207 0 l 61 0 l 61 831 l 218 831 l 503 272 l 503 831 l 649 831 l 649 0 z "},"O":{"ha":818,"x_min":63,"x_max":693,"o":"m 693 197 q 671 118 693 151 q 622 63 654 96 q 569 18 589 29 q 483 -7 529 -7 l 272 -7 q 186 18 226 -7 q 133 63 167 29 q 85 118 99 97 q 63 197 63 151 l 63 632 q 85 711 63 678 q 133 766 99 732 q 186 811 167 800 q 272 836 226 836 l 483 836 q 569 811 529 836 q 622 767 589 800 q 671 711 654 733 q 693 632 693 678 l 693 197 m 208 628 l 208 199 q 210 193 208 194 q 271 133 238 151 q 278 132 274 132 l 478 132 q 485 133 482 132 q 546 193 518 151 l 547 199 l 547 628 q 546 635 547 633 q 485 696 517 678 q 478 697 482 697 l 278 697 q 271 696 272 697 q 210 635 239 678 l 208 628 z "},"P":{"ha":746,"x_min":61,"x_max":650,"o":"m 650 517 q 625 432 650 469 q 590 394 615 418 q 550 358 565 369 q 451 328 507 328 l 207 328 l 207 0 l 61 0 l 61 831 l 451 831 q 550 800 507 831 q 590 764 564 790 q 625 724 615 738 q 650 639 650 686 l 650 517 m 504 518 l 504 638 q 503 647 504 644 q 458 692 479 689 l 451 692 l 207 692 l 207 467 l 451 467 q 478 482 461 467 q 503 513 494 497 q 504 518 504 515 z "},"Q":{"ha":824,"x_min":63,"x_max":693,"o":"m 208 632 l 208 203 q 210 197 208 199 q 271 133 242 149 q 278 132 274 132 l 310 132 l 301 153 l 435 197 l 463 132 l 481 132 q 488 133 485 132 q 546 197 513 147 l 547 203 l 547 632 q 546 638 547 636 q 488 696 518 679 q 481 697 485 697 l 278 697 q 271 696 272 697 q 210 638 236 676 l 208 632 m 514 -4 l 515 -7 l 569 -128 l 415 -128 l 364 -7 l 272 -7 q 186 18 226 -7 q 133 63 167 29 q 85 118 99 97 q 63 197 63 151 l 63 632 q 85 711 63 678 q 133 766 99 732 q 186 811 167 800 q 272 836 226 836 l 483 836 q 569 811 529 836 q 622 767 589 800 q 671 711 654 733 q 693 632 693 678 l 693 197 q 671 118 693 151 q 622 63 654 96 q 569 18 589 29 q 514 -4 532 -1 z "},"R":{"ha":804,"x_min":61,"x_max":679,"o":"m 650 517 q 625 432 650 469 q 590 394 615 418 q 550 358 565 369 q 514 339 532 344 l 679 0 l 521 0 l 367 328 l 207 328 l 207 0 l 61 0 l 61 831 l 451 831 q 550 800 507 831 q 590 764 564 790 q 625 724 615 738 q 650 639 650 686 l 650 517 m 504 518 l 504 638 q 503 647 504 644 q 458 692 479 689 l 207 692 l 207 467 l 451 467 q 478 482 461 467 q 503 513 494 497 q 504 518 504 515 z "},"S":{"ha":793,"x_min":22,"x_max":675,"o":"m 675 197 q 653 118 675 149 q 606 63 639 97 q 551 18 572 29 q 465 -7 507 -7 l 224 -7 q 47 108 133 -7 q 22 151 39 119 l 160 197 q 221 133 188 158 q 231 132 224 132 l 458 132 l 467 133 q 506 165 482 142 q 529 197 529 189 l 529 279 q 513 303 529 300 l 151 406 q 72 463 100 419 q 43 557 43 506 l 43 632 q 64 711 43 681 q 112 765 78 731 q 167 811 146 799 q 253 836 211 836 l 458 836 q 635 721 547 836 q 663 672 649 701 l 522 632 q 461 696 490 678 q 453 697 460 697 l 257 697 l 249 696 q 210 665 232 688 q 189 635 189 643 l 189 565 q 204 542 189 544 l 567 436 q 646 378 617 422 q 675 285 675 335 l 675 197 z "},"T":{"ha":700,"x_min":17,"x_max":613,"o":"m 613 692 l 388 692 l 388 0 l 242 0 l 242 692 l 17 692 l 17 831 l 613 831 l 613 692 z "},"U":{"ha":771,"x_min":49,"x_max":643,"o":"m 497 199 l 497 831 l 643 831 l 643 197 q 621 118 643 151 q 573 63 606 97 q 519 18 540 29 q 435 -7 479 -7 l 258 -7 q 172 18 213 -7 q 119 63 153 29 q 71 118 85 97 q 49 197 49 151 l 49 831 l 194 831 l 194 200 q 196 193 194 194 q 257 133 225 150 l 264 132 l 429 132 q 436 133 433 132 q 496 193 468 150 l 497 199 z "},"V":{"ha":726,"x_min":-35,"x_max":685,"o":"m 685 831 l 410 0 l 239 0 l -35 831 l 121 831 l 325 188 l 531 831 l 685 831 z "},"W":{"ha":1025,"x_min":-8,"x_max":975,"o":"m 975 831 l 782 0 l 617 0 l 483 557 l 349 0 l 182 0 l -8 831 l 142 831 l 267 247 l 404 831 l 560 831 l 697 247 l 821 831 l 975 831 z "},"X":{"ha":739,"x_min":-11,"x_max":679,"o":"m 665 831 l 414 425 l 679 0 l 517 0 l 333 296 l 151 0 l -11 0 l 253 425 l 3 831 l 164 831 l 333 554 l 504 831 l 665 831 z "},"Y":{"ha":722,"x_min":-24,"x_max":669,"o":"m 669 831 l 394 363 l 394 0 l 249 0 l 249 363 l -24 831 l 138 831 l 322 515 l 507 831 l 669 831 z "},"Z":{"ha":682,"x_min":40,"x_max":588,"o":"m 588 0 l 40 0 l 40 118 l 406 692 l 40 692 l 40 831 l 588 831 l 588 710 l 228 139 l 588 139 l 588 0 z "},"[":{"ha":450,"x_min":61,"x_max":335,"o":"m 335 0 l 61 0 l 61 831 l 335 831 l 335 699 l 207 699 l 207 132 l 335 132 l 335 0 z "},"\\":{"ha":606,"x_min":-29,"x_max":586,"o":"m 586 0 l 424 0 l -29 833 l 132 833 l 586 0 z "},"]":{"ha":457,"x_min":44,"x_max":318,"o":"m 318 0 l 44 0 l 44 132 l 172 132 l 172 699 l 44 699 l 44 831 l 318 831 l 318 0 z "},"^":{"ha":479,"x_min":-14,"x_max":428,"o":"m -14 390 l 138 833 l 271 833 l 428 390 l 293 390 l 206 657 l 119 390 l -14 390 z "},"_":{"ha":642,"x_min":42,"x_max":582,"o":"m 582 -131 l 42 -131 l 42 0 l 582 0 l 582 -131 z "},"`":{"ha":529,"x_min":128,"x_max":419,"o":"m 419 715 l 292 678 l 128 881 l 292 881 l 419 715 z "},"a":{"ha":665,"x_min":24,"x_max":558,"o":"m 406 376 l 406 424 q 404 431 406 429 q 360 472 390 454 q 351 475 354 475 l 229 475 q 201 460 218 475 q 174 432 183 444 l 43 471 q 83 526 53 493 q 133 574 114 560 q 233 607 182 607 l 353 607 q 454 576 411 607 q 521 511 500 543 q 544 425 544 479 l 544 122 l 558 0 l 421 0 l 414 28 q 328 -7 365 -7 l 214 -7 q 114 24 157 -7 q 49 89 76 51 q 24 174 24 124 l 24 199 q 49 283 24 249 q 114 346 71 315 q 214 376 157 376 l 406 376 m 406 181 l 406 253 l 215 253 q 206 250 210 253 q 164 206 181 235 q 163 201 163 203 l 163 175 l 164 171 q 207 128 182 140 q 215 125 213 125 l 324 125 q 365 147 333 125 q 406 181 396 169 z "},"b":{"ha":681,"x_min":47,"x_max":574,"o":"m 574 178 q 549 92 574 128 q 482 24 524 54 q 382 -7 440 -7 l 279 -7 q 189 31 238 -7 l 185 0 l 47 0 l 58 124 l 58 831 l 197 831 l 197 575 q 279 607 243 607 l 382 607 q 482 578 440 607 q 549 510 517 554 q 574 424 574 475 l 574 178 m 435 181 l 435 421 l 433 428 q 389 474 417 456 q 379 475 388 475 l 283 475 q 242 453 272 475 q 197 414 213 431 l 197 188 q 242 148 213 171 q 283 125 272 125 l 381 125 q 389 128 383 125 q 433 172 418 146 q 435 181 435 175 z "},"c":{"ha":651,"x_min":49,"x_max":564,"o":"m 188 176 q 190 168 188 172 q 235 128 203 146 q 243 125 240 125 l 379 125 q 431 161 400 125 q 435 167 432 163 l 564 128 q 524 72 554 104 q 475 25 494 39 q 375 -7 428 -7 l 242 -7 q 140 22 182 -7 q 74 90 99 53 q 49 175 49 124 l 49 425 q 74 510 49 476 q 140 578 99 547 q 242 607 182 607 l 374 607 q 474 575 426 607 q 524 528 497 558 q 563 472 551 499 l 433 433 l 429 439 q 378 475 399 475 l 243 475 l 235 472 q 190 432 203 454 l 188 424 l 188 176 z "},"d":{"ha":688,"x_min":49,"x_max":572,"o":"m 572 0 l 436 0 l 431 31 q 340 -7 382 -7 l 240 -7 q 140 24 182 -7 q 74 92 99 54 q 49 178 49 128 l 49 424 q 74 510 49 475 q 140 578 106 554 q 240 607 182 607 l 340 607 q 422 575 376 607 l 422 831 l 561 831 l 561 124 l 572 0 m 422 188 l 422 414 q 377 453 407 431 q 336 475 347 475 l 242 475 q 233 474 235 475 q 189 428 206 456 q 188 421 188 425 l 188 181 l 189 172 q 233 128 204 146 q 242 125 239 125 l 336 125 q 377 148 347 125 q 422 188 407 171 z "},"e":{"ha":671,"x_min":49,"x_max":564,"o":"m 564 233 l 188 233 l 188 176 l 189 169 q 216 140 199 154 q 243 125 233 125 l 378 125 q 429 161 399 125 l 433 167 l 563 128 q 523 72 553 104 q 474 25 493 39 q 374 -7 426 -7 l 243 -7 q 142 22 183 -7 q 75 89 103 51 q 49 175 49 125 l 49 425 q 75 510 49 474 q 142 576 103 547 q 243 607 185 607 l 371 607 q 472 576 429 607 q 539 510 515 544 q 564 425 564 476 l 564 233 m 425 357 l 425 422 q 424 431 425 429 q 378 474 408 456 q 369 475 375 475 l 243 475 q 216 460 233 475 q 189 431 199 446 l 188 422 l 188 357 l 425 357 z "},"f":{"ha":472,"x_min":10,"x_max":426,"o":"m 426 706 l 297 704 q 282 701 288 704 q 242 661 244 681 l 242 600 l 393 600 l 393 468 l 242 468 l 242 0 l 103 0 l 103 468 l 10 468 l 10 600 l 103 600 l 103 653 q 128 739 103 706 q 194 806 158 781 q 296 836 238 836 l 426 836 l 426 706 z "},"g":{"ha":693,"x_min":50,"x_max":583,"o":"m 583 600 l 571 475 l 571 -50 q 547 -137 571 -106 q 481 -204 524 -172 q 379 -235 438 -235 l 257 -235 q 157 -201 206 -235 q 108 -155 138 -187 q 68 -99 78 -122 l 197 -60 q 201 -65 199 -62 q 253 -103 233 -103 l 378 -103 q 386 -100 381 -103 q 414 -78 397 -93 q 432 -57 431 -64 l 432 -47 l 432 28 q 350 -6 385 -6 l 243 -6 q 142 25 185 -6 q 75 93 107 49 q 50 179 50 126 l 50 422 q 75 508 50 475 q 142 576 107 553 q 243 607 185 607 l 350 607 q 442 569 393 607 l 447 600 l 583 600 m 244 126 l 346 126 q 356 128 353 126 q 432 190 394 147 l 432 410 q 346 475 371 475 l 244 475 q 236 472 242 475 q 190 426 206 453 l 189 419 l 189 182 q 190 174 189 176 q 236 128 206 147 q 244 126 239 126 z "},"h":{"ha":674,"x_min":46,"x_max":558,"o":"m 419 0 l 419 421 l 418 428 q 374 474 401 456 q 365 475 372 475 l 269 475 q 228 453 257 475 q 185 413 199 431 l 185 0 l 46 0 l 46 831 l 185 831 l 185 574 q 267 607 232 607 l 367 607 q 467 576 425 607 q 533 508 501 553 q 558 424 558 472 l 558 0 l 419 0 z "},"i":{"ha":313,"x_min":56,"x_max":204,"o":"m 204 685 l 56 685 l 56 833 l 204 833 l 204 685 m 200 0 l 61 0 l 61 600 l 200 600 l 200 0 z "},"j":{"ha":322,"x_min":-86,"x_max":226,"o":"m 226 685 l 78 685 l 78 833 l 226 833 l 226 685 m -86 -100 l 26 -100 l 35 -99 q 82 -50 68 -78 q 83 -43 83 -46 l 83 600 l 222 600 l 222 -44 q 197 -132 222 -96 q 129 -200 167 -175 q 31 -229 88 -229 l -86 -229 l -86 -100 z "},"k":{"ha":611,"x_min":46,"x_max":576,"o":"m 576 0 l 399 0 l 210 253 l 185 253 l 185 0 l 46 0 l 46 831 l 185 831 l 185 383 l 211 383 q 241 419 222 397 q 299 490 260 442 q 364 569 338 538 l 389 600 l 561 600 l 331 319 l 576 0 z "},"l":{"ha":319,"x_min":56,"x_max":213,"o":"m 213 0 l 72 0 l 56 107 l 56 831 l 194 831 l 194 122 l 213 0 z "},"m":{"ha":994,"x_min":44,"x_max":879,"o":"m 879 0 l 740 0 l 740 422 q 739 431 740 426 q 696 474 726 454 q 685 475 693 475 l 621 475 q 540 419 592 475 l 540 0 l 539 0 l 403 0 l 401 0 l 401 422 q 400 431 401 428 q 354 474 389 451 q 343 475 351 475 l 279 475 q 262 472 271 475 q 246 465 253 468 q 231 453 239 461 q 218 442 222 446 q 206 428 214 438 q 197 418 199 419 l 197 0 l 58 0 l 58 476 l 44 600 l 181 600 l 188 568 q 275 607 242 607 l 344 607 q 446 576 403 607 q 486 540 463 564 l 517 564 q 617 607 574 607 l 686 607 q 788 576 744 607 q 854 510 831 544 q 879 425 879 476 l 879 0 z "},"n":{"ha":688,"x_min":46,"x_max":572,"o":"m 572 0 l 433 0 l 433 422 q 432 431 433 428 q 389 474 419 454 q 378 475 388 475 l 281 475 q 199 418 251 475 l 199 0 l 60 0 l 60 476 l 46 600 l 182 600 l 189 568 q 276 607 243 607 l 379 607 q 481 576 438 607 q 547 510 524 544 q 572 425 572 476 l 572 0 z "},"o":{"ha":669,"x_min":49,"x_max":563,"o":"m 563 175 q 539 90 563 122 q 472 22 514 53 q 371 -7 431 -7 l 240 -7 q 140 22 182 -7 q 103 56 125 33 q 72 90 81 78 q 49 175 49 122 l 49 425 q 72 510 49 478 q 140 576 94 543 q 240 607 183 607 l 371 607 q 472 576 429 607 q 539 510 515 544 q 563 425 563 478 l 563 175 m 188 421 l 188 168 q 233 126 188 153 q 242 125 236 125 l 369 125 q 378 128 372 125 q 424 168 422 153 l 424 421 q 422 429 424 425 q 376 474 406 457 q 369 475 374 475 l 242 475 q 235 474 238 475 q 189 429 204 456 l 188 421 z "},"p":{"ha":682,"x_min":46,"x_max":572,"o":"m 572 176 q 547 90 572 125 q 481 22 515 46 q 381 -7 439 -7 l 279 -7 q 197 25 243 -7 l 197 -226 l 58 -226 l 58 476 l 46 600 l 183 600 l 189 569 q 279 607 238 607 l 381 607 q 481 576 439 607 q 547 508 522 546 q 572 422 572 472 l 572 176 m 433 179 l 433 419 l 432 428 q 388 472 417 454 q 379 475 382 475 l 283 475 q 242 452 272 475 q 197 413 213 429 l 197 186 q 242 147 213 169 q 283 125 272 125 l 379 125 q 388 126 385 125 q 432 172 415 144 q 433 179 433 175 z "},"q":{"ha":690,"x_min":49,"x_max":575,"o":"m 575 600 l 563 476 l 563 -226 l 424 -226 l 424 25 q 342 -7 378 -7 l 240 -7 q 140 22 182 -7 q 74 90 106 46 q 49 176 49 125 l 49 422 q 74 508 49 472 q 140 576 99 546 q 240 607 182 607 l 342 607 q 432 569 383 607 l 439 600 l 575 600 m 424 186 l 424 413 q 378 452 408 429 q 338 475 349 475 l 242 475 q 233 472 239 475 q 189 428 204 454 q 188 419 188 424 l 188 179 l 189 172 q 233 126 206 144 l 236 125 q 242 125 239 125 l 338 125 q 378 147 349 125 q 424 186 408 169 z "},"r":{"ha":578,"x_min":46,"x_max":547,"o":"m 547 472 l 418 433 q 356 475 386 475 l 281 475 q 196 415 243 475 l 196 0 l 57 0 l 57 476 l 46 600 l 181 600 l 188 567 q 276 607 243 607 l 360 607 q 463 572 413 607 q 511 526 485 556 q 547 472 538 496 z "},"s":{"ha":651,"x_min":19,"x_max":554,"o":"m 153 163 q 204 125 183 128 l 365 125 q 397 143 378 125 q 415 175 415 161 l 415 208 q 397 228 415 226 q 297 235 379 229 q 169 246 214 242 q 75 287 111 250 q 39 388 39 324 l 39 429 q 64 514 39 479 q 225 607 129 607 l 358 607 q 458 575 411 607 q 510 528 482 558 q 549 472 538 499 l 418 433 q 414 439 417 436 q 363 475 383 475 l 229 475 q 211 472 217 475 q 179 440 192 463 q 178 426 178 438 l 178 393 q 183 383 178 389 q 199 375 189 376 q 294 366 214 374 q 417 354 375 358 q 516 312 478 347 q 554 211 554 276 l 554 172 q 528 88 554 124 q 465 24 501 49 q 367 -7 422 -7 l 208 -7 q 108 26 157 -7 q 58 73 85 43 q 19 129 31 103 l 149 168 l 153 163 z "},"t":{"ha":486,"x_min":0,"x_max":404,"o":"m 232 468 l 232 186 q 233 178 232 181 q 258 148 242 164 q 288 132 275 132 l 403 132 l 403 0 l 286 0 q 186 29 228 0 q 119 97 151 53 q 93 185 93 136 l 93 468 l 0 468 l 0 600 l 93 600 l 93 831 l 232 831 l 232 600 l 404 600 l 404 468 l 232 468 z "},"u":{"ha":678,"x_min":43,"x_max":569,"o":"m 569 0 l 433 0 l 428 35 q 340 -6 372 -6 l 236 -6 q 135 24 176 -6 q 68 92 93 54 q 43 176 43 125 l 43 600 l 182 600 l 182 179 q 183 169 182 172 q 229 128 194 150 q 238 126 232 126 l 336 126 q 375 147 346 126 q 418 182 404 167 l 418 600 l 557 600 l 557 124 l 569 0 z "},"v":{"ha":597,"x_min":-22,"x_max":563,"o":"m 563 600 l 346 0 l 199 0 l -22 600 l 133 600 l 274 193 l 415 600 l 563 600 z "},"w":{"ha":917,"x_min":-11,"x_max":869,"o":"m 869 600 l 683 0 l 542 0 l 429 376 l 314 0 l 172 0 l -11 600 l 136 600 l 247 213 l 357 600 l 503 600 l 610 213 l 724 600 l 869 600 z "},"x":{"ha":617,"x_min":-10,"x_max":572,"o":"m 572 0 l 408 0 l 282 186 l 156 0 l -10 0 l 199 307 l -3 600 l 163 600 l 282 424 l 397 600 l 563 600 l 364 306 l 572 0 z "},"y":{"ha":597,"x_min":-22,"x_max":563,"o":"m 563 600 l 268 -225 l 128 -225 l 211 0 l 199 0 l -22 600 l 133 600 l 274 193 l 415 600 l 563 600 z "},"z":{"ha":617,"x_min":38,"x_max":526,"o":"m 526 0 l 49 0 l 49 113 l 325 468 l 38 468 l 38 600 l 513 600 l 513 486 l 235 132 l 526 132 l 526 0 z "},"{":{"ha":488,"x_min":61,"x_max":372,"o":"m 204 632 l 204 197 q 228 164 204 186 q 269 132 251 142 q 278 131 271 131 l 372 131 l 372 -6 l 267 -6 q 183 19 228 -6 q 128 64 163 32 q 82 115 94 96 q 61 196 61 146 l 61 635 q 83 714 61 683 q 131 768 99 735 q 182 813 163 801 q 267 836 219 836 l 372 836 l 372 700 l 274 700 l 265 699 q 206 639 232 681 l 204 632 z "},"|":{"ha":329,"x_min":54,"x_max":190,"o":"m 190 -128 l 54 -128 l 54 926 l 190 926 l 190 -128 z "},"}":{"ha":496,"x_min":44,"x_max":357,"o":"m 357 635 l 357 196 q 336 115 357 147 q 290 64 324 96 q 235 19 256 32 q 150 -6 190 -6 l 44 -6 l 44 131 l 143 131 l 149 132 q 189 166 164 140 q 214 197 214 192 l 214 632 q 190 664 214 639 q 149 699 165 689 q 144 700 147 700 l 44 700 l 44 836 l 150 836 q 235 813 197 836 q 288 768 254 801 q 335 714 321 735 q 357 635 357 681 z "},"~":{"ha":642,"x_min":26,"x_max":538,"o":"m 538 306 l 406 265 q 364 300 389 306 l 217 268 q 106 288 158 257 q 26 389 54 318 l 157 429 q 199 393 175 388 l 347 424 q 458 405 407 435 q 538 306 510 375 z "}," ":{"ha":278,"x_min":0,"x_max":0,"o":""},"¡":{"ha":363,"x_min":67,"x_max":224,"o":"m 224 676 l 67 676 l 67 831 l 224 831 l 224 676 m 217 0 l 74 0 l 74 600 l 217 600 l 217 0 z "},"¢":{"ha":633,"x_min":49,"x_max":578,"o":"m 268 -226 l 268 -7 l 242 -7 q 140 22 182 -7 q 74 90 99 53 q 49 175 49 124 l 49 425 q 74 510 49 476 q 140 576 97 544 q 242 607 183 607 l 268 607 l 269 829 l 350 829 l 349 607 l 383 607 q 483 572 432 607 q 533 525 503 558 q 574 469 564 492 l 443 431 q 439 436 442 433 q 388 475 406 475 l 349 475 l 349 125 l 393 125 q 444 161 414 125 q 449 167 446 163 l 578 128 q 538 72 568 104 q 489 25 508 39 q 389 -7 442 -7 l 349 -7 l 349 -226 l 268 -226 m 188 422 l 188 176 q 190 168 188 172 q 235 128 203 146 q 243 125 240 125 l 268 125 l 268 475 l 243 475 q 235 474 238 475 q 189 432 203 454 l 188 422 z "},"£":{"ha":817,"x_min":51,"x_max":706,"o":"m 569 217 l 706 175 q 674 113 696 140 q 497 0 590 0 l 106 0 l 106 243 l 51 243 l 51 374 l 106 374 l 106 407 l 51 407 l 51 538 l 106 538 l 106 617 q 126 694 106 665 q 174 749 140 715 q 226 793 207 782 q 311 818 271 818 l 510 818 l 510 679 l 317 679 l 310 678 q 253 621 275 658 q 251 608 251 618 l 251 538 l 543 538 l 543 407 l 251 407 l 251 374 l 543 374 l 543 243 l 251 243 l 251 139 l 493 139 q 501 140 500 139 q 563 203 531 156 l 569 217 z "},"¤":{"ha":771,"x_min":107,"x_max":632,"o":"m 300 226 q 269 228 279 226 l 203 161 l 107 257 l 154 304 l 146 317 q 117 418 117 358 l 117 432 q 146 532 117 490 q 151 539 147 535 q 157 546 156 543 l 110 594 l 200 688 l 265 621 q 300 624 278 624 l 440 624 q 472 621 461 624 l 539 688 l 632 592 l 583 542 q 588 537 585 540 q 592 532 590 533 q 622 432 622 489 l 622 418 q 592 317 622 360 q 587 310 590 314 q 582 304 583 306 l 632 254 l 539 161 l 472 228 q 440 226 461 226 l 300 226 m 447 493 l 282 493 q 238 446 265 493 l 238 413 q 239 404 238 407 q 282 358 268 360 l 447 358 q 456 360 451 358 q 500 406 483 376 l 500 444 q 456 492 482 475 l 447 493 z "},"¥":{"ha":682,"x_min":8,"x_max":693,"o":"m 693 831 l 488 494 l 603 494 l 603 364 l 422 364 l 422 324 l 603 324 l 603 193 l 422 193 l 422 0 l 276 0 l 276 193 l 89 193 l 89 324 l 276 324 l 276 364 l 89 364 l 89 494 l 207 494 l 8 831 l 169 831 l 350 522 l 532 831 l 693 831 z "},"¦":{"ha":268,"x_min":54,"x_max":190,"o":"m 190 474 l 54 474 l 54 926 l 190 926 l 190 474 m 190 -131 l 54 -131 l 54 326 l 190 326 l 190 -131 z "},"§":{"ha":708,"x_min":42,"x_max":617,"o":"m 617 661 l 488 619 q 471 649 481 633 q 446 680 461 664 q 418 696 431 696 l 244 696 q 213 678 233 696 q 194 649 193 660 q 214 615 199 617 l 389 606 q 499 579 463 603 q 575 507 536 556 q 607 410 607 464 l 607 400 q 558 285 607 333 q 604 181 604 242 l 604 163 q 579 85 604 122 q 517 22 557 53 q 417 -10 474 -10 l 244 -10 q 79 89 153 -10 q 42 154 63 111 l 174 199 q 242 122 215 122 l 417 122 q 443 134 428 122 q 465 158 458 146 l 465 183 q 460 192 465 188 q 447 197 454 197 l 264 206 q 175 232 213 208 q 96 303 125 265 q 65 400 65 343 l 65 410 q 110 521 65 472 q 56 646 64 561 q 82 735 51 692 q 243 828 149 828 l 417 828 q 515 797 474 828 q 617 661 581 749 m 203 413 l 203 399 q 204 392 203 394 q 213 379 204 390 q 233 356 222 368 q 250 342 244 343 l 413 333 l 421 335 q 453 367 436 344 q 471 397 471 389 l 471 410 l 469 417 q 417 469 446 454 q 411 471 414 471 l 250 478 q 204 422 226 464 l 203 413 z "},"¨":{"ha":504,"x_min":104,"x_max":463,"o":"m 463 689 l 328 689 l 328 832 l 463 832 l 463 689 m 239 689 l 104 689 l 104 832 l 239 832 l 239 689 z "},"©":{"ha":992,"x_min":58,"x_max":893,"o":"m 82 117 q 58 196 58 153 l 58 635 q 81 714 58 683 q 128 768 94 735 q 181 813 161 801 q 265 836 218 836 l 685 836 q 769 813 732 836 q 822 768 789 801 q 869 714 856 735 q 893 635 893 678 l 893 196 q 871 117 893 147 q 824 63 857 96 q 771 18 790 29 q 686 -6 733 -6 l 267 -6 q 182 18 219 -6 q 129 63 163 29 q 82 117 96 96 m 756 199 l 756 632 q 730 667 756 639 q 688 703 704 694 q 678 706 682 706 l 274 706 q 261 703 267 706 q 197 640 218 681 q 196 632 196 638 l 196 199 q 222 164 196 192 q 264 128 247 136 q 274 125 269 125 l 678 125 q 690 128 685 125 q 754 190 733 150 q 756 199 756 193 m 274 342 q 296 265 274 297 q 323 234 303 254 q 357 204 343 214 q 446 178 393 178 l 511 178 q 601 218 560 178 q 667 310 642 258 l 556 339 q 518 294 546 311 q 510 293 515 293 l 438 293 q 417 306 429 294 q 400 329 404 318 l 399 339 l 399 488 q 400 497 399 493 q 417 520 404 508 q 438 533 429 532 l 510 533 q 518 532 515 533 q 556 488 546 515 l 667 517 q 601 608 642 568 q 511 649 560 649 l 446 649 q 357 622 393 649 q 323 592 343 613 q 296 561 303 572 q 274 485 274 529 l 274 342 z "},"ª":{"ha":535,"x_min":42,"x_max":438,"o":"m 438 389 l 322 389 l 318 414 q 250 382 268 382 l 189 382 q 113 406 147 382 q 60 457 82 429 q 42 524 42 482 l 42 701 q 60 768 42 743 q 113 819 82 796 q 189 843 147 843 l 264 843 q 311 829 278 843 l 311 842 l 425 842 l 425 485 l 438 389 m 310 690 q 308 697 310 696 q 276 728 290 719 q 269 729 275 729 l 197 729 q 190 728 192 729 q 158 697 172 717 l 157 690 l 157 535 q 158 528 157 531 q 190 497 172 508 q 197 496 192 496 l 256 496 q 263 497 261 496 q 308 528 306 524 q 310 535 310 529 l 310 690 z "},"«":{"ha":832,"x_min":51,"x_max":739,"o":"m 739 153 l 585 113 l 361 338 l 585 563 l 736 518 l 549 338 l 739 153 m 429 153 l 275 113 l 51 338 l 275 563 l 426 518 l 239 338 l 429 153 z "},"¬":{"ha":714,"x_min":61,"x_max":639,"o":"m 638 403 l 639 79 l 504 79 l 504 272 l 61 272 l 61 403 l 639 403 l 638 403 z "},"®":{"ha":992,"x_min":58,"x_max":893,"o":"m 642 393 q 596 343 618 363 l 682 182 l 553 182 l 486 311 l 419 311 l 419 179 l 296 179 l 296 646 l 501 646 q 588 618 549 646 q 642 561 618 599 q 663 490 660 532 l 663 468 q 642 393 663 425 m 542 492 q 504 531 528 515 l 419 531 l 419 428 l 506 428 q 542 467 526 438 l 542 492 m 82 117 q 58 196 58 153 l 58 635 q 81 714 58 683 q 128 768 94 735 q 181 813 161 801 q 265 836 218 836 l 685 836 q 769 813 732 836 q 822 768 789 801 q 869 714 856 735 q 893 635 893 678 l 893 196 q 871 117 893 147 q 824 63 857 96 q 771 18 790 29 q 686 -6 733 -6 l 267 -6 q 182 18 219 -6 q 129 63 163 29 q 82 117 96 96 m 756 199 l 756 632 q 730 667 756 639 q 688 703 704 694 q 678 706 682 706 l 274 706 q 261 703 267 706 q 197 640 218 681 q 196 632 196 638 l 196 199 q 222 164 196 192 q 264 128 247 136 q 274 125 269 125 l 678 125 q 690 128 685 125 q 754 190 733 150 q 756 199 756 193 z "},"¯":{"ha":493,"x_min":57,"x_max":372,"o":"m 372 707 l 57 707 l 57 831 l 372 831 l 372 707 z "},"°":{"ha":490,"x_min":63,"x_max":351,"o":"m 351 814 q 309 712 351 754 q 208 669 267 669 q 106 712 150 669 q 63 814 63 754 q 106 913 63 871 q 208 956 150 956 q 309 913 267 956 q 351 814 351 871 m 271 814 q 253 858 271 839 q 208 876 235 876 q 163 858 182 876 q 143 814 143 839 q 163 767 143 786 q 208 747 182 747 q 253 767 235 747 q 271 814 271 786 z "},"±":{"ha":714,"x_min":68,"x_max":600,"o":"m 600 272 l 403 272 l 403 79 l 268 79 l 268 272 l 71 272 l 71 403 l 268 403 l 268 599 l 403 599 l 403 403 l 600 403 l 600 272 m 600 -131 l 68 -131 l 68 0 l 600 0 l 600 -131 z "},"²":{"ha":536,"x_min":49,"x_max":439,"o":"m 322 696 q 310 721 322 708 q 282 733 297 733 l 214 733 q 178 716 203 733 q 138 683 153 699 l 49 747 q 122 813 74 778 q 221 843 164 843 l 283 843 q 414 769 356 843 q 439 697 439 739 l 439 685 q 399 610 439 644 q 314 560 360 575 l 197 524 q 189 519 192 522 q 185 515 186 517 q 185 508 185 513 q 185 503 185 504 l 428 503 l 428 390 l 61 390 l 61 504 q 88 576 61 551 q 165 618 114 601 l 285 663 q 322 696 322 679 z "},"³":{"ha":544,"x_min":49,"x_max":447,"o":"m 203 657 l 278 657 q 331 685 331 654 q 301 721 331 706 q 290 722 299 722 l 197 722 q 146 688 175 722 l 49 743 q 107 803 69 772 q 200 833 149 833 l 292 833 q 421 775 369 833 q 447 686 447 736 q 408 606 447 629 q 447 526 447 582 q 421 438 447 478 q 292 379 369 379 l 200 379 q 107 410 149 379 q 49 469 75 433 l 146 525 q 197 489 176 489 l 290 489 q 304 492 299 489 q 331 528 331 507 q 278 556 331 558 l 203 556 l 203 657 z "},"´":{"ha":515,"x_min":185,"x_max":476,"o":"m 313 678 l 185 715 l 313 881 l 476 881 l 313 678 z "},"µ":{"ha":678,"x_min":42,"x_max":569,"o":"m 569 0 l 432 0 l 428 35 q 340 -6 372 -6 l 236 -6 q 182 1 210 -6 l 182 -224 l 43 -224 q 42 169 42 -143 q 43 600 43 482 l 182 600 l 182 169 q 228 128 193 150 q 236 126 231 126 l 336 126 q 375 147 346 126 q 418 182 404 167 l 418 600 l 557 600 l 557 124 l 569 0 z "},"¶":{"ha":732,"x_min":53,"x_max":650,"o":"m 650 0 l 510 0 l 510 339 l 458 339 l 458 0 l 318 0 l 318 339 l 251 339 q 153 368 194 339 q 113 403 138 379 q 78 442 88 428 q 53 525 53 479 l 53 626 q 78 711 53 674 q 113 751 88 725 q 153 786 139 776 q 251 817 194 817 l 650 817 l 650 0 m 510 476 l 510 678 l 458 678 l 458 476 l 510 476 m 200 633 q 199 625 199 631 l 199 528 l 200 521 q 253 476 238 476 l 318 476 l 318 678 l 253 678 q 244 676 247 678 q 200 633 213 656 z "},"·":{"ha":397,"x_min":78,"x_max":247,"o":"m 247 272 l 78 272 l 78 411 l 247 411 l 247 272 z "},"¸":{"ha":564,"x_min":143,"x_max":411,"o":"m 411 -101 l 300 -275 l 143 -275 l 276 -61 l 411 -101 z "},"¹":{"ha":461,"x_min":49,"x_max":364,"o":"m 364 381 l 49 381 l 49 497 l 157 497 l 157 729 l 63 729 l 63 844 l 275 844 l 275 497 l 364 497 l 364 381 z "},"º":{"ha":522,"x_min":42,"x_max":425,"o":"m 425 524 q 407 457 425 482 q 356 406 388 431 q 278 382 318 382 l 189 382 q 113 406 147 382 q 60 457 82 429 q 42 524 42 482 l 42 701 q 60 768 42 743 q 113 819 82 796 q 189 843 147 843 l 278 843 q 356 819 318 843 q 407 768 388 794 q 425 701 425 743 l 425 524 m 310 690 q 308 697 310 696 q 276 728 290 719 q 269 729 275 729 l 197 729 q 190 728 192 729 q 158 697 172 717 l 157 690 l 157 535 q 158 528 157 531 q 190 497 172 508 q 197 496 192 496 l 269 496 q 276 497 275 496 q 308 528 290 506 q 310 535 310 529 l 310 690 z "},"»":{"ha":817,"x_min":51,"x_max":739,"o":"m 206 113 l 51 153 l 242 338 l 54 518 l 206 563 l 429 338 l 206 113 m 515 113 l 361 153 l 551 338 l 364 518 l 515 563 l 739 338 l 515 113 z "},"¼":{"ha":1031,"x_min":49,"x_max":933,"o":"m 818 831 l 368 0 l 213 0 l 663 831 l 818 831 m 933 90 l 868 90 l 868 0 l 750 0 l 750 90 l 529 90 l 529 188 l 768 453 l 868 453 l 868 203 l 933 203 l 933 90 m 756 201 l 754 297 l 665 201 l 756 201 m 364 381 l 49 381 l 49 497 l 157 497 l 157 729 l 63 729 l 63 844 l 275 844 l 275 497 l 364 497 l 364 381 z "},"½":{"ha":1114,"x_min":49,"x_max":1017,"o":"m 818 831 l 368 0 l 213 0 l 663 831 l 818 831 m 900 306 q 888 331 900 318 q 860 343 875 343 l 792 343 q 756 326 781 343 q 715 293 731 308 l 626 357 q 700 422 651 388 q 799 453 742 453 l 861 453 q 992 379 933 453 q 1017 307 1017 349 l 1017 294 q 977 219 1017 254 q 892 169 938 185 l 775 133 q 767 129 769 132 q 763 124 764 126 q 763 118 763 122 q 763 113 763 114 l 1006 113 l 1006 0 l 639 0 l 639 114 q 665 186 639 161 q 743 228 692 211 l 863 272 q 900 306 900 289 m 364 381 l 49 381 l 49 497 l 157 497 l 157 729 l 63 729 l 63 844 l 275 844 l 275 497 l 364 497 l 364 381 z "},"¾":{"ha":1067,"x_min":49,"x_max":969,"o":"m 854 831 l 404 0 l 249 0 l 699 831 l 854 831 m 969 90 l 904 90 l 904 0 l 786 0 l 786 90 l 565 90 l 565 188 l 804 453 l 904 453 l 904 203 l 969 203 l 969 90 m 792 201 l 790 297 l 701 201 l 792 201 m 203 657 l 278 657 q 331 685 331 654 q 301 721 331 706 q 290 722 299 722 l 197 722 q 146 688 175 722 l 49 743 q 107 803 69 772 q 200 833 149 833 l 292 833 q 421 775 369 833 q 447 686 447 736 q 408 606 447 629 q 447 526 447 582 q 421 438 447 478 q 292 379 369 379 l 200 379 q 107 410 149 379 q 49 469 75 433 l 146 525 q 197 489 176 489 l 290 489 q 304 492 299 489 q 331 528 331 507 q 278 556 331 558 l 203 556 l 203 657 z "},"¿":{"ha":639,"x_min":53,"x_max":619,"o":"m 53 286 q 81 374 53 335 q 153 435 110 414 q 172 443 157 436 q 201 457 188 450 q 230 472 215 464 q 253 490 244 481 q 263 507 263 499 l 263 608 l 408 608 l 408 501 q 399 450 408 474 q 378 411 389 426 q 342 378 368 396 q 304 353 317 360 q 258 330 292 346 q 217 310 224 314 q 199 282 199 300 l 199 192 l 200 185 q 226 153 210 168 q 251 139 242 139 l 407 139 q 418 143 411 139 q 476 203 457 169 l 482 213 l 619 172 q 588 114 601 135 q 411 0 508 0 l 246 0 q 149 32 192 0 q 78 106 110 60 q 53 190 53 143 l 53 286 m 251 835 l 419 835 l 419 672 l 251 672 l 251 835 z "},"À":{"ha":763,"x_min":-33,"x_max":715,"o":"m 715 0 l 560 0 l 499 176 l 183 176 l 122 0 l -33 0 l 257 831 l 426 831 l 715 0 m 453 315 l 342 643 l 229 315 l 453 315 m 474 903 l 346 865 l 182 1068 l 346 1068 l 474 903 z "},"Á":{"ha":763,"x_min":-33,"x_max":715,"o":"m 715 0 l 560 0 l 499 176 l 183 176 l 122 0 l -33 0 l 257 831 l 426 831 l 715 0 m 453 315 l 342 643 l 229 315 l 453 315 m 406 878 l 278 915 l 406 1081 l 569 1081 l 406 878 z "},"Â":{"ha":763,"x_min":-33,"x_max":715,"o":"m 715 0 l 560 0 l 499 176 l 183 176 l 122 0 l -33 0 l 257 831 l 426 831 l 715 0 m 453 315 l 342 643 l 229 315 l 453 315 m 299 885 l 150 885 l 286 1067 l 417 1067 l 553 885 l 404 885 l 351 957 l 299 885 z "},"Ã":{"ha":763,"x_min":-33,"x_max":715,"o":"m 715 0 l 560 0 l 499 176 l 183 176 l 122 0 l -33 0 l 257 831 l 426 831 l 715 0 m 453 315 l 342 643 l 229 315 l 453 315 m 567 917 l 456 885 q 428 917 447 906 q 399 924 410 928 l 308 894 q 198 907 254 876 q 114 1007 142 938 l 232 1036 q 255 1007 240 1015 q 281 1001 269 999 l 375 1031 q 485 1018 431 1049 q 567 917 539 988 z "},"Ä":{"ha":763,"x_min":-33,"x_max":715,"o":"m 715 0 l 560 0 l 499 176 l 183 176 l 122 0 l -33 0 l 257 831 l 426 831 l 715 0 m 453 315 l 342 643 l 229 315 l 453 315 m 521 907 l 386 907 l 386 1050 l 521 1050 l 521 907 m 297 907 l 163 907 l 163 1050 l 297 1050 l 297 907 z "},"Å":{"ha":763,"x_min":-33,"x_max":715,"o":"m 715 0 l 560 0 l 499 176 l 183 176 l 122 0 l -33 0 l 257 831 l 426 831 l 715 0 m 453 315 l 342 643 l 229 315 l 453 315 m 485 1029 q 442 927 485 969 q 342 885 400 885 q 240 927 283 885 q 196 1029 196 969 q 240 1128 196 1086 q 342 1171 283 1171 q 442 1128 400 1171 q 485 1029 485 1086 m 404 1029 q 386 1073 404 1054 q 342 1092 368 1092 q 296 1073 315 1092 q 276 1029 276 1054 q 296 982 276 1001 q 342 963 315 963 q 386 982 368 963 q 404 1029 404 1001 z "},"Æ":{"ha":999,"x_min":-33,"x_max":865,"o":"m 865 0 l 385 0 l 385 176 l 183 176 l 122 0 l -33 0 l 257 831 l 865 831 l 865 692 l 531 692 l 531 482 l 839 482 l 839 343 l 531 343 l 531 139 l 865 139 l 865 0 m 358 692 l 229 315 l 385 315 l 385 692 l 358 692 z "},"Ç":{"ha":758,"x_min":61,"x_max":650,"o":"m 453 -101 l 342 -275 l 185 -275 l 318 -61 l 453 -101 m 650 161 q 621 108 636 129 q 444 -7 535 -7 l 271 -7 q 185 18 225 -7 q 131 64 164 31 q 83 117 97 97 q 61 196 61 150 l 61 633 q 83 711 61 678 q 131 766 97 732 q 185 811 165 800 q 271 836 229 836 l 444 836 q 621 721 533 836 q 650 672 629 710 l 508 632 q 446 696 467 683 q 440 697 444 697 l 276 697 l 271 696 q 208 635 235 676 q 207 619 207 632 l 207 197 q 230 165 207 186 q 271 133 253 143 q 281 132 272 132 l 439 132 q 446 133 443 132 q 474 156 458 139 q 500 186 490 172 l 508 199 l 650 161 z "},"È":{"ha":717,"x_min":61,"x_max":583,"o":"m 583 0 l 61 0 l 61 831 l 583 831 l 583 692 l 207 692 l 207 482 l 557 482 l 557 343 l 207 343 l 207 139 l 583 139 l 583 0 m 457 915 l 329 878 l 165 1081 l 329 1081 l 457 915 z "},"É":{"ha":717,"x_min":61,"x_max":583,"o":"m 583 0 l 61 0 l 61 831 l 583 831 l 583 692 l 207 692 l 207 482 l 557 482 l 557 343 l 207 343 l 207 139 l 583 139 l 583 0 m 364 878 l 236 915 l 364 1081 l 528 1081 l 364 878 z "},"Ê":{"ha":717,"x_min":61,"x_max":583,"o":"m 583 0 l 61 0 l 61 831 l 583 831 l 583 692 l 207 692 l 207 482 l 557 482 l 557 343 l 207 343 l 207 139 l 583 139 l 583 0 m 276 885 l 128 885 l 264 1067 l 394 1067 l 531 885 l 382 885 l 329 957 l 276 885 z "},"Ë":{"ha":717,"x_min":61,"x_max":583,"o":"m 583 0 l 61 0 l 61 831 l 583 831 l 583 692 l 207 692 l 207 482 l 557 482 l 557 343 l 207 343 l 207 139 l 583 139 l 583 0 m 511 906 l 376 906 l 376 1049 l 511 1049 l 511 906 m 288 906 l 153 906 l 153 1049 l 288 1049 l 288 906 z "},"Ì":{"ha":333,"x_min":-82,"x_max":210,"o":"m 207 0 l 61 0 l 61 831 l 207 831 l 207 0 m 210 915 l 82 878 l -82 1081 l 82 1081 l 210 915 z "},"Í":{"ha":333,"x_min":61,"x_max":353,"o":"m 207 0 l 61 0 l 61 831 l 207 831 l 207 0 m 189 878 l 61 915 l 189 1081 l 353 1081 l 189 878 z "},"Î":{"ha":333,"x_min":-68,"x_max":335,"o":"m 207 0 l 61 0 l 61 831 l 207 831 l 207 0 m 81 885 l -68 885 l 68 1067 l 199 1067 l 335 885 l 186 885 l 133 957 l 81 885 z "},"Ï":{"ha":333,"x_min":-46,"x_max":313,"o":"m 207 0 l 61 0 l 61 831 l 207 831 l 207 0 m 313 907 l 178 907 l 178 1050 l 313 1050 l 313 907 m 89 907 l -46 907 l -46 1050 l 89 1050 l 89 907 z "},"Ð":{"ha":810,"x_min":-15,"x_max":676,"o":"m 676 201 q 657 122 676 154 q 608 69 642 101 q 554 25 575 36 q 471 0 507 0 l 89 0 l 89 350 l -15 350 l -15 481 l 89 481 l 89 831 l 471 831 q 554 807 518 831 q 656 706 597 781 q 676 626 676 674 l 676 201 m 235 139 l 461 139 q 471 140 468 139 q 509 172 488 150 q 531 204 531 193 l 531 629 q 468 690 504 674 q 457 692 467 692 l 235 692 l 235 481 l 378 481 l 378 350 l 235 350 l 235 139 z "},"Ñ":{"ha":786,"x_min":61,"x_max":649,"o":"m 649 0 l 494 0 l 207 551 l 207 0 l 61 0 l 61 831 l 218 831 l 503 272 l 503 831 l 649 831 l 649 0 m 601 919 l 490 888 q 463 919 482 908 q 433 926 444 931 l 343 897 q 233 910 289 879 q 149 1010 176 940 l 267 1039 q 290 1010 275 1018 q 315 1004 304 1001 l 410 1033 q 519 1021 465 1051 q 601 919 574 990 z "},"Ò":{"ha":815,"x_min":63,"x_max":693,"o":"m 693 197 q 671 118 693 151 q 622 63 654 96 q 569 18 589 29 q 483 -7 529 -7 l 272 -7 q 186 18 226 -7 q 133 63 167 29 q 85 118 99 97 q 63 197 63 151 l 63 632 q 85 711 63 678 q 133 766 99 732 q 186 811 167 800 q 272 836 226 836 l 483 836 q 569 811 529 836 q 622 767 589 800 q 671 711 654 733 q 693 632 693 678 l 693 197 m 208 628 l 208 199 q 210 193 208 194 q 271 133 238 151 q 278 132 274 132 l 478 132 q 485 133 482 132 q 546 193 518 151 l 547 199 l 547 628 q 546 635 547 633 q 485 696 517 678 q 478 697 482 697 l 278 697 q 271 696 272 697 q 210 635 239 678 l 208 628 m 504 915 l 376 878 l 213 1081 l 376 1081 l 504 915 z "},"Ó":{"ha":818,"x_min":63,"x_max":693,"o":"m 693 197 q 671 118 693 151 q 622 63 654 96 q 569 18 589 29 q 483 -7 529 -7 l 272 -7 q 186 18 226 -7 q 133 63 167 29 q 85 118 99 97 q 63 197 63 151 l 63 632 q 85 711 63 678 q 133 766 99 732 q 186 811 167 800 q 272 836 226 836 l 483 836 q 569 811 529 836 q 622 767 589 800 q 671 711 654 733 q 693 632 693 678 l 693 197 m 208 628 l 208 199 q 210 193 208 194 q 271 133 238 151 q 278 132 274 132 l 478 132 q 485 133 482 132 q 546 193 518 151 l 547 199 l 547 628 q 546 635 547 633 q 485 696 517 678 q 478 697 482 697 l 278 697 q 271 696 272 697 q 210 635 239 678 l 208 628 m 368 878 l 240 915 l 368 1081 l 532 1081 l 368 878 z "},"Ô":{"ha":818,"x_min":63,"x_max":693,"o":"m 693 197 q 671 118 693 151 q 622 63 654 96 q 569 18 589 29 q 483 -7 529 -7 l 272 -7 q 186 18 226 -7 q 133 63 167 29 q 85 118 99 97 q 63 197 63 151 l 63 632 q 85 711 63 678 q 133 766 99 732 q 186 811 167 800 q 272 836 226 836 l 483 836 q 569 811 529 836 q 622 767 589 800 q 671 711 654 733 q 693 632 693 678 l 693 197 m 208 628 l 208 199 q 210 193 208 194 q 271 133 238 151 q 278 132 274 132 l 478 132 q 485 133 482 132 q 546 193 518 151 l 547 199 l 547 628 q 546 635 547 633 q 485 696 517 678 q 478 697 482 697 l 278 697 q 271 696 272 697 q 210 635 239 678 l 208 628 m 335 885 l 186 885 l 322 1067 l 453 1067 l 589 885 l 440 885 l 388 957 l 335 885 z "},"Õ":{"ha":804,"x_min":63,"x_max":693,"o":"m 693 197 q 671 118 693 151 q 622 63 654 96 q 569 18 589 29 q 483 -7 529 -7 l 272 -7 q 186 18 226 -7 q 133 63 167 29 q 85 118 99 97 q 63 197 63 151 l 63 632 q 85 711 63 678 q 133 766 99 732 q 186 811 167 800 q 272 836 226 836 l 483 836 q 569 811 529 836 q 622 767 589 800 q 671 711 654 733 q 693 632 693 678 l 693 197 m 208 628 l 208 199 q 210 193 208 194 q 271 133 238 151 q 278 132 274 132 l 478 132 q 485 133 482 132 q 546 193 518 151 l 547 199 l 547 628 q 546 635 547 633 q 485 696 517 678 q 478 697 482 697 l 278 697 q 271 696 272 697 q 210 635 239 678 l 208 628 m 608 917 l 497 885 q 470 917 489 906 q 440 924 451 928 l 350 894 q 240 907 296 876 q 156 1007 183 938 l 274 1036 q 297 1007 282 1015 q 322 1001 311 999 l 417 1031 q 526 1018 472 1049 q 608 917 581 988 z "},"Ö":{"ha":818,"x_min":63,"x_max":693,"o":"m 693 197 q 671 118 693 151 q 622 63 654 96 q 569 18 589 29 q 483 -7 529 -7 l 272 -7 q 186 18 226 -7 q 133 63 167 29 q 85 118 99 97 q 63 197 63 151 l 63 632 q 85 711 63 678 q 133 766 99 732 q 186 811 167 800 q 272 836 226 836 l 483 836 q 569 811 529 836 q 622 767 589 800 q 671 711 654 733 q 693 632 693 678 l 693 197 m 208 628 l 208 199 q 210 193 208 194 q 271 133 238 151 q 278 132 274 132 l 478 132 q 485 133 482 132 q 546 193 518 151 l 547 199 l 547 628 q 546 635 547 633 q 485 696 517 678 q 478 697 482 697 l 278 697 q 271 696 272 697 q 210 635 239 678 l 208 628 m 558 906 l 424 906 l 424 1049 l 558 1049 l 558 906 m 335 906 l 200 906 l 200 1049 l 335 1049 l 335 906 z "},"×":{"ha":714,"x_min":75,"x_max":600,"o":"m 169 75 l 75 171 l 243 340 l 76 508 l 168 601 l 336 432 l 506 601 l 600 506 l 432 336 l 599 168 l 507 75 l 339 244 l 169 75 z "},"Ø":{"ha":793,"x_min":63,"x_max":693,"o":"m 669 865 l 617 771 q 671 711 626 761 q 693 632 693 678 l 693 197 q 671 118 693 151 q 622 63 654 96 q 569 18 589 29 q 483 -7 529 -7 l 272 -7 q 201 10 238 -7 l 178 -35 l 83 -35 l 135 60 q 85 118 96 101 q 63 197 63 151 l 63 632 q 85 711 63 678 q 133 766 99 732 q 186 811 167 800 q 272 836 226 836 l 483 836 q 550 821 511 836 l 575 865 l 669 865 m 546 635 l 544 636 l 269 133 l 271 133 q 278 132 274 132 l 478 132 q 485 133 482 132 q 546 193 518 151 l 547 199 l 547 628 q 546 635 547 633 m 208 628 l 208 199 l 208 194 l 482 696 l 478 697 l 278 697 q 271 696 272 697 q 210 635 239 678 l 208 628 z "},"Ù":{"ha":771,"x_min":49,"x_max":643,"o":"m 497 831 l 497 199 q 496 193 497 196 q 436 133 468 150 q 429 132 433 132 l 264 132 q 257 133 260 132 q 196 193 225 150 l 194 200 l 194 831 l 49 831 l 49 197 q 71 118 49 151 q 119 63 85 97 q 172 18 153 29 q 258 -7 213 -7 l 435 -7 q 519 18 479 -7 q 573 63 540 29 q 621 118 606 97 q 643 197 643 151 l 643 831 l 497 831 m 483 915 l 356 878 l 192 1081 l 356 1081 l 483 915 z "},"Ú":{"ha":771,"x_min":49,"x_max":643,"o":"m 497 831 l 497 199 q 496 193 497 196 q 436 133 468 150 q 429 132 433 132 l 264 132 q 257 133 260 132 q 196 193 225 150 l 194 200 l 194 831 l 49 831 l 49 197 q 71 118 49 151 q 119 63 85 97 q 172 18 153 29 q 258 -7 213 -7 l 435 -7 q 519 18 479 -7 q 573 63 540 29 q 621 118 606 97 q 643 197 643 151 l 643 831 l 497 831 m 354 878 l 226 915 l 354 1081 l 518 1081 l 354 878 z "},"Û":{"ha":771,"x_min":49,"x_max":643,"o":"m 497 831 l 497 199 q 496 193 497 196 q 436 133 468 150 q 429 132 433 132 l 264 132 q 257 133 260 132 q 196 193 225 150 l 194 200 l 194 831 l 49 831 l 49 197 q 71 118 49 151 q 119 63 85 97 q 172 18 153 29 q 258 -7 213 -7 l 435 -7 q 519 18 479 -7 q 573 63 540 29 q 621 118 606 97 q 643 197 643 151 l 643 831 l 497 831 m 301 885 l 153 885 l 289 1067 l 419 1067 l 556 885 l 407 885 l 354 957 l 301 885 z "},"Ü":{"ha":771,"x_min":49,"x_max":643,"o":"m 497 831 l 497 199 q 496 193 497 196 q 436 133 468 150 q 429 132 433 132 l 264 132 q 257 133 260 132 q 196 193 225 150 l 194 200 l 194 831 l 49 831 l 49 197 q 71 118 49 151 q 119 63 85 97 q 172 18 153 29 q 258 -7 213 -7 l 435 -7 q 519 18 479 -7 q 573 63 540 29 q 621 118 606 97 q 643 197 643 151 l 643 831 l 497 831 m 526 906 l 392 906 l 392 1049 l 526 1049 l 526 906 m 303 906 l 168 906 l 168 1049 l 303 1049 l 303 906 z "},"Ý":{"ha":722,"x_min":-24,"x_max":669,"o":"m 669 831 l 394 363 l 394 0 l 249 0 l 249 363 l -24 831 l 138 831 l 322 515 l 507 831 l 669 831 m 333 878 l 206 915 l 333 1081 l 497 1081 l 333 878 z "},"Þ":{"ha":746,"x_min":61,"x_max":650,"o":"m 650 356 q 625 271 650 308 q 590 233 615 257 q 550 197 565 208 q 451 167 507 167 l 207 167 l 207 -1 l 61 -1 l 61 831 l 207 831 l 207 669 l 451 669 q 550 639 507 669 q 590 603 564 629 q 625 563 615 576 q 650 478 650 525 l 650 356 m 504 357 l 504 476 q 503 486 504 483 q 458 531 479 528 l 207 531 l 207 306 l 451 306 q 478 321 461 306 q 503 351 494 336 q 504 357 504 354 z "},"ß":{"ha":754,"x_min":42,"x_max":664,"o":"m 193 622 l 193 100 l 182 0 l 42 0 l 54 124 l 54 625 q 78 706 54 672 q 125 760 94 728 q 176 806 156 793 q 264 831 221 831 l 346 831 q 444 800 401 831 q 511 733 481 775 q 538 646 538 694 l 538 582 q 482 485 538 540 q 449 442 453 456 q 447 424 447 438 l 447 401 q 453 391 447 397 q 469 383 460 385 q 497 380 485 382 q 526 376 508 378 q 626 335 588 371 q 664 233 664 299 l 664 172 q 638 88 664 124 q 575 24 611 49 q 476 -6 536 -3 l 354 -6 q 268 19 306 -6 l 283 49 q 317 107 300 78 l 333 136 q 357 126 349 128 l 474 126 q 506 144 486 126 q 525 175 525 161 l 525 231 q 506 250 525 249 q 440 257 485 251 q 310 396 310 274 l 310 431 q 350 528 310 488 q 397 582 389 567 q 399 596 399 583 l 399 644 l 397 653 q 372 683 389 667 q 344 699 356 699 l 265 699 q 229 675 251 699 q 196 632 207 651 l 193 622 z "},"à":{"ha":669,"x_min":24,"x_max":558,"o":"m 406 376 l 406 424 q 404 431 406 429 q 360 472 390 454 q 351 475 354 475 l 229 475 q 201 460 218 475 q 174 432 183 444 l 43 471 q 83 526 53 493 q 133 574 114 560 q 233 607 182 607 l 353 607 q 454 576 411 607 q 521 511 500 543 q 544 425 544 479 l 544 122 l 558 0 l 421 0 l 414 28 q 328 -7 365 -7 l 214 -7 q 114 24 157 -7 q 49 89 76 51 q 24 174 24 124 l 24 199 q 49 283 24 249 q 114 346 71 315 q 214 376 157 376 l 406 376 m 406 181 l 406 253 l 215 253 q 206 250 210 253 q 164 206 181 235 q 163 201 163 203 l 163 175 l 164 171 q 207 128 182 140 q 215 125 213 125 l 324 125 q 365 147 333 125 q 406 181 396 169 m 419 715 l 292 678 l 128 881 l 292 881 l 419 715 z "},"á":{"ha":669,"x_min":24,"x_max":558,"o":"m 406 376 l 406 424 q 404 431 406 429 q 360 472 390 454 q 351 475 354 475 l 229 475 q 201 460 218 475 q 174 432 183 444 l 43 471 q 83 526 53 493 q 133 574 114 560 q 233 607 182 607 l 353 607 q 454 576 411 607 q 521 511 500 543 q 544 425 544 479 l 544 122 l 558 0 l 421 0 l 414 28 q 328 -7 365 -7 l 214 -7 q 114 24 157 -7 q 49 89 76 51 q 24 174 24 124 l 24 199 q 49 283 24 249 q 114 346 71 315 q 214 376 157 376 l 406 376 m 406 181 l 406 253 l 215 253 q 206 250 210 253 q 164 206 181 235 q 163 201 163 203 l 163 175 l 164 171 q 207 128 182 140 q 215 125 213 125 l 324 125 q 365 147 333 125 q 406 181 396 169 m 313 678 l 185 715 l 313 881 l 476 881 l 313 678 z "},"â":{"ha":669,"x_min":24,"x_max":558,"o":"m 406 376 l 406 424 q 404 431 406 429 q 360 472 390 454 q 351 475 354 475 l 229 475 q 201 460 218 475 q 174 432 183 444 l 43 471 q 83 526 53 493 q 133 574 114 560 q 233 607 182 607 l 353 607 q 454 576 411 607 q 521 511 500 543 q 544 425 544 479 l 544 122 l 558 0 l 421 0 l 414 28 q 328 -7 365 -7 l 214 -7 q 114 24 157 -7 q 49 89 76 51 q 24 174 24 124 l 24 199 q 49 283 24 249 q 114 346 71 315 q 214 376 157 376 l 406 376 m 406 181 l 406 253 l 215 253 q 206 250 210 253 q 164 206 181 235 q 163 201 163 203 l 163 175 l 164 171 q 207 128 182 140 q 215 125 213 125 l 324 125 q 365 147 333 125 q 406 181 396 169 m 240 685 l 92 685 l 228 867 l 358 867 l 494 685 l 346 685 l 293 757 l 240 685 z "},"ã":{"ha":669,"x_min":24,"x_max":558,"o":"m 406 376 l 406 424 q 404 431 406 429 q 360 472 390 454 q 351 475 354 475 l 229 475 q 201 460 218 475 q 174 432 183 444 l 43 471 q 83 526 53 493 q 133 574 114 560 q 233 607 182 607 l 353 607 q 454 576 411 607 q 521 511 500 543 q 544 425 544 479 l 544 122 l 558 0 l 421 0 l 414 28 q 328 -7 365 -7 l 214 -7 q 114 24 157 -7 q 49 89 76 51 q 24 174 24 124 l 24 199 q 49 283 24 249 q 114 346 71 315 q 214 376 157 376 l 406 376 m 406 181 l 406 253 l 215 253 q 206 250 210 253 q 164 206 181 235 q 163 201 163 203 l 163 175 l 164 171 q 207 128 182 140 q 215 125 213 125 l 324 125 q 365 147 333 125 q 406 181 396 169 m 528 722 l 417 690 q 390 722 408 711 q 360 729 371 733 l 269 700 q 159 713 215 682 q 75 813 103 743 l 193 842 q 216 813 201 821 q 242 807 231 804 l 336 836 q 446 824 392 854 q 528 722 500 793 z "},"ä":{"ha":665,"x_min":24,"x_max":558,"o":"m 406 376 l 406 424 q 404 431 406 429 q 360 472 390 454 q 351 475 354 475 l 229 475 q 201 460 218 475 q 174 432 183 444 l 43 471 q 83 526 53 493 q 133 574 114 560 q 233 607 182 607 l 353 607 q 454 576 411 607 q 521 511 500 543 q 544 425 544 479 l 544 122 l 558 0 l 421 0 l 414 28 q 328 -7 365 -7 l 214 -7 q 114 24 157 -7 q 49 89 76 51 q 24 174 24 124 l 24 199 q 49 283 24 249 q 114 346 71 315 q 214 376 157 376 l 406 376 m 406 181 l 406 253 l 215 253 q 206 250 210 253 q 164 206 181 235 q 163 201 163 203 l 163 175 l 164 171 q 207 128 182 140 q 215 125 213 125 l 324 125 q 365 147 333 125 q 406 181 396 169 m 463 689 l 328 689 l 328 832 l 463 832 l 463 689 m 239 689 l 104 689 l 104 832 l 239 832 l 239 689 z "},"å":{"ha":669,"x_min":24,"x_max":558,"o":"m 406 376 l 406 424 q 404 431 406 429 q 360 472 390 454 q 351 475 354 475 l 229 475 q 201 460 218 475 q 174 432 183 444 l 43 471 q 83 526 53 493 q 133 574 114 560 q 233 607 182 607 l 353 607 q 454 576 411 607 q 521 511 500 543 q 544 425 544 479 l 544 122 l 558 0 l 421 0 l 414 28 q 328 -7 365 -7 l 214 -7 q 114 24 157 -7 q 49 89 76 51 q 24 174 24 124 l 24 199 q 49 283 24 249 q 114 346 71 315 q 214 376 157 376 l 406 376 m 406 181 l 406 253 l 215 253 q 206 250 210 253 q 164 206 181 235 q 163 201 163 203 l 163 175 l 164 171 q 207 128 182 140 q 215 125 213 125 l 324 125 q 365 147 333 125 q 406 181 396 169 m 442 828 q 399 726 442 768 q 299 683 357 683 q 197 726 240 683 q 153 828 153 768 q 197 927 153 885 q 299 969 240 969 q 399 927 357 969 q 442 828 442 885 m 361 828 q 343 872 361 853 q 299 890 325 890 q 253 872 272 890 q 233 828 233 853 q 253 781 233 800 q 299 761 272 761 q 343 781 325 761 q 361 828 361 800 z "},"æ":{"ha":1028,"x_min":24,"x_max":921,"o":"m 921 229 l 544 229 l 544 176 l 546 169 q 573 138 556 153 q 600 124 590 124 l 735 124 q 786 161 754 124 q 790 167 790 165 l 919 128 q 880 72 910 104 q 831 25 850 39 q 731 -7 783 -7 l 600 -7 q 499 22 540 -7 q 457 58 482 33 l 415 28 q 328 -7 367 -7 l 214 -7 q 114 24 157 -7 q 49 89 76 51 q 24 174 24 124 l 24 199 q 49 283 24 249 q 114 349 76 321 q 214 379 157 379 l 406 379 l 406 425 l 406 431 q 360 472 392 454 q 351 475 354 475 l 229 475 q 201 460 218 475 q 174 432 183 444 l 43 471 q 83 526 53 493 q 133 574 114 560 q 233 607 182 607 l 353 607 q 454 576 411 607 q 465 567 457 574 q 476 558 474 561 q 499 576 485 565 q 600 607 542 607 l 728 607 q 829 576 786 607 q 896 510 872 544 q 921 425 921 476 l 921 229 m 324 124 q 363 144 333 124 q 406 178 392 164 l 406 249 l 215 249 q 206 246 208 249 q 163 201 178 229 q 161 197 161 199 l 161 175 l 163 171 q 207 126 178 144 q 215 124 213 124 l 324 124 m 782 360 l 782 422 q 781 431 782 429 q 735 474 765 456 q 726 475 732 475 l 600 475 q 573 460 590 475 q 546 431 556 446 l 544 422 l 544 360 l 782 360 m 789 167 q 790 167 790 168 l 789 167 z "},"ç":{"ha":663,"x_min":49,"x_max":564,"o":"m 411 -101 l 300 -275 l 143 -275 l 276 -61 l 411 -101 m 188 176 q 190 168 188 172 q 235 128 203 146 q 243 125 240 125 l 379 125 q 431 161 400 125 q 435 167 432 163 l 564 128 q 524 72 554 104 q 475 25 494 39 q 375 -7 428 -7 l 242 -7 q 140 22 182 -7 q 74 90 99 53 q 49 175 49 124 l 49 425 q 74 510 49 476 q 140 578 99 547 q 242 607 182 607 l 374 607 q 474 575 426 607 q 524 528 497 558 q 563 472 551 499 l 433 433 l 429 439 q 378 475 399 475 l 243 475 l 235 472 q 190 432 203 454 l 188 424 l 188 176 z "},"è":{"ha":671,"x_min":49,"x_max":564,"o":"m 564 233 l 188 233 l 188 176 l 189 169 q 216 140 199 154 q 243 125 233 125 l 378 125 q 429 161 399 125 l 433 167 l 563 128 q 523 72 553 104 q 474 25 493 39 q 374 -7 426 -7 l 243 -7 q 142 22 183 -7 q 75 89 103 51 q 49 175 49 125 l 49 425 q 75 510 49 474 q 142 576 103 547 q 243 607 185 607 l 371 607 q 472 576 429 607 q 539 510 515 544 q 564 425 564 476 l 564 233 m 425 357 l 425 422 q 424 431 425 429 q 378 474 408 456 q 369 475 375 475 l 243 475 q 216 460 233 475 q 189 431 199 446 l 188 422 l 188 357 l 425 357 m 419 715 l 292 678 l 128 881 l 292 881 l 419 715 z "},"é":{"ha":671,"x_min":49,"x_max":564,"o":"m 564 233 l 188 233 l 188 176 l 189 169 q 216 140 199 154 q 243 125 233 125 l 378 125 q 429 161 399 125 l 433 167 l 563 128 q 523 72 553 104 q 474 25 493 39 q 374 -7 426 -7 l 243 -7 q 142 22 183 -7 q 75 89 103 51 q 49 175 49 125 l 49 425 q 75 510 49 474 q 142 576 103 547 q 243 607 185 607 l 371 607 q 472 576 429 607 q 539 510 515 544 q 564 425 564 476 l 564 233 m 425 357 l 425 422 q 424 431 425 429 q 378 474 408 456 q 369 475 375 475 l 243 475 q 216 460 233 475 q 189 431 199 446 l 188 422 l 188 357 l 425 357 m 317 678 l 189 715 l 317 881 l 481 881 l 317 678 z "},"ê":{"ha":678,"x_min":49,"x_max":564,"o":"m 564 233 l 188 233 l 188 176 l 189 169 q 216 140 199 154 q 243 125 233 125 l 378 125 q 429 161 399 125 l 433 167 l 563 128 q 523 72 553 104 q 474 25 493 39 q 374 -7 426 -7 l 243 -7 q 142 22 183 -7 q 75 89 103 51 q 49 175 49 125 l 49 425 q 75 510 49 474 q 142 576 103 547 q 243 607 185 607 l 371 607 q 472 576 429 607 q 539 510 515 544 q 564 425 564 476 l 564 233 m 425 357 l 425 422 q 424 431 425 429 q 378 474 408 456 q 369 475 375 475 l 243 475 q 216 460 233 475 q 189 431 199 446 l 188 422 l 188 357 l 425 357 m 269 685 l 121 685 l 257 867 l 388 867 l 524 685 l 375 685 l 322 757 l 269 685 z "},"ë":{"ha":668,"x_min":46,"x_max":561,"o":"m 561 233 l 185 233 l 185 176 l 186 169 q 213 140 196 154 q 240 125 231 125 l 375 125 q 426 161 396 125 l 431 167 l 560 128 q 520 72 550 104 q 471 25 490 39 q 371 -7 424 -7 l 240 -7 q 139 22 181 -7 q 72 89 100 51 q 46 175 46 125 l 46 425 q 72 510 46 474 q 139 576 100 547 q 240 607 182 607 l 368 607 q 469 576 426 607 q 536 510 513 544 q 561 425 561 476 l 561 233 m 422 357 l 422 422 q 421 431 422 429 q 375 474 406 456 q 367 475 372 475 l 240 475 q 213 460 231 475 q 186 431 196 446 l 185 422 l 185 357 l 422 357 m 483 689 l 349 689 l 349 832 l 483 832 l 483 689 m 260 689 l 125 689 l 125 832 l 260 832 l 260 689 z "},"ì":{"ha":307,"x_min":-100,"x_max":200,"o":"m 200 -1 l 61 -1 l 61 597 l 200 597 l 200 -1 m 192 715 l 64 678 l -100 881 l 64 881 l 192 715 z "},"í":{"ha":307,"x_min":61,"x_max":360,"o":"m 200 -1 l 61 -1 l 61 597 l 200 597 l 200 -1 m 196 678 l 68 715 l 196 881 l 360 881 l 196 678 z "},"î":{"ha":307,"x_min":-74,"x_max":329,"o":"m 200 -1 l 61 -1 l 61 597 l 200 597 l 200 -1 m 75 685 l -74 685 l 63 867 l 193 867 l 329 685 l 181 685 l 128 757 l 75 685 z "},"ï":{"ha":307,"x_min":-49,"x_max":310,"o":"m 310 689 l 175 689 l 175 832 l 310 832 l 310 689 m 86 689 l -49 689 l -49 832 l 86 832 l 86 689 m 200 -1 l 61 -1 l 61 597 l 200 597 l 200 -1 z "},"ð":{"ha":668,"x_min":49,"x_max":561,"o":"m 508 761 l 460 736 q 539 674 517 704 q 561 590 561 644 l 561 178 q 536 94 561 132 q 502 58 528 82 q 461 24 476 35 q 365 -7 419 -7 l 246 -7 q 149 21 186 -7 q 108 56 133 32 q 74 94 83 81 q 49 179 49 132 l 49 417 q 74 503 49 465 q 108 542 83 517 q 149 578 133 568 q 246 607 190 607 l 338 607 q 422 561 365 607 l 422 583 q 393 628 422 613 l 311 672 l 247 646 l 200 731 l 119 769 l 181 882 l 324 810 l 453 869 l 508 761 m 189 428 q 188 419 188 424 l 188 189 q 189 171 188 174 q 215 140 199 156 q 242 125 232 125 l 368 125 q 395 140 378 125 q 422 172 413 156 q 424 192 424 174 l 424 411 q 402 437 418 422 q 374 461 386 451 l 361 471 q 339 475 356 475 l 240 475 q 215 460 231 475 q 189 428 199 444 z "},"ñ":{"ha":688,"x_min":46,"x_max":572,"o":"m 572 0 l 433 0 l 433 422 q 432 431 433 428 q 389 474 419 454 q 378 475 388 475 l 281 475 q 199 418 251 475 l 199 0 l 60 0 l 60 476 l 46 600 l 182 600 l 189 568 q 276 607 243 607 l 379 607 q 481 576 438 607 q 547 510 524 544 q 572 425 572 476 l 572 0 m 528 722 l 417 690 q 390 722 408 711 q 360 729 371 733 l 269 700 q 159 713 215 682 q 75 813 103 743 l 193 842 q 216 813 201 821 q 242 807 231 804 l 336 836 q 446 824 392 854 q 528 722 500 793 z "},"ò":{"ha":672,"x_min":49,"x_max":563,"o":"m 563 175 q 539 90 563 122 q 472 22 514 53 q 371 -7 431 -7 l 240 -7 q 140 22 182 -7 q 103 56 125 33 q 72 90 81 78 q 49 175 49 122 l 49 425 q 72 510 49 478 q 140 576 94 543 q 240 607 183 607 l 371 607 q 472 576 429 607 q 539 510 515 544 q 563 425 563 478 l 563 175 m 188 421 l 188 168 q 233 126 188 153 q 242 125 236 125 l 369 125 q 378 128 372 125 q 424 168 422 153 l 424 421 q 422 429 424 425 q 376 474 406 457 q 369 475 374 475 l 242 475 q 235 474 238 475 q 189 429 204 456 l 188 421 m 419 715 l 292 678 l 128 881 l 292 881 l 419 715 z "},"ó":{"ha":672,"x_min":49,"x_max":563,"o":"m 563 175 q 539 90 563 122 q 472 22 514 53 q 371 -7 431 -7 l 240 -7 q 140 22 182 -7 q 103 56 125 33 q 72 90 81 78 q 49 175 49 122 l 49 425 q 72 510 49 478 q 140 576 94 543 q 240 607 183 607 l 371 607 q 472 576 429 607 q 539 510 515 544 q 563 425 563 478 l 563 175 m 188 421 l 188 168 q 233 126 188 153 q 242 125 236 125 l 369 125 q 378 128 372 125 q 424 168 422 153 l 424 421 q 422 429 424 425 q 376 474 406 457 q 369 475 374 475 l 242 475 q 235 474 238 475 q 189 429 204 456 l 188 421 m 313 678 l 185 715 l 313 881 l 476 881 l 313 678 z "},"ô":{"ha":672,"x_min":49,"x_max":563,"o":"m 563 175 q 539 90 563 122 q 472 22 514 53 q 371 -7 431 -7 l 240 -7 q 140 22 182 -7 q 103 56 125 33 q 72 90 81 78 q 49 175 49 122 l 49 425 q 72 510 49 478 q 140 576 94 543 q 240 607 183 607 l 371 607 q 472 576 429 607 q 539 510 515 544 q 563 425 563 478 l 563 175 m 188 421 l 188 168 q 233 126 188 153 q 242 125 236 125 l 369 125 q 378 128 372 125 q 424 168 422 153 l 424 421 q 422 429 424 425 q 376 474 406 457 q 369 475 374 475 l 242 475 q 235 474 238 475 q 189 429 204 456 l 188 421 m 256 685 l 107 685 l 243 867 l 374 867 l 510 685 l 361 685 l 308 757 l 256 685 z "},"õ":{"ha":672,"x_min":49,"x_max":563,"o":"m 563 175 q 539 90 563 122 q 472 22 514 53 q 371 -7 431 -7 l 240 -7 q 140 22 182 -7 q 103 56 125 33 q 72 90 81 78 q 49 175 49 122 l 49 425 q 72 510 49 478 q 140 576 94 543 q 240 607 183 607 l 371 607 q 472 576 429 607 q 539 510 515 544 q 563 425 563 478 l 563 175 m 188 421 l 188 168 q 233 126 188 153 q 242 125 236 125 l 369 125 q 378 128 372 125 q 424 168 422 153 l 424 421 q 422 429 424 425 q 376 474 406 457 q 369 475 374 475 l 242 475 q 235 474 238 475 q 189 429 204 456 l 188 421 m 529 722 l 418 690 q 391 722 410 711 q 361 729 372 733 l 271 700 q 160 713 217 682 q 76 813 104 743 l 194 842 q 217 813 203 821 q 243 807 232 804 l 338 836 q 447 824 393 854 q 529 722 501 793 z "},"ö":{"ha":672,"x_min":49,"x_max":563,"o":"m 563 175 q 539 90 563 122 q 472 22 514 53 q 371 -7 431 -7 l 240 -7 q 140 22 182 -7 q 103 56 125 33 q 72 90 81 78 q 49 175 49 122 l 49 425 q 72 510 49 478 q 140 576 94 543 q 240 607 183 607 l 371 607 q 472 576 429 607 q 539 510 515 544 q 563 425 563 478 l 563 175 m 188 421 l 188 168 q 233 126 188 153 q 242 125 236 125 l 369 125 q 378 128 372 125 q 424 168 422 153 l 424 421 q 422 429 424 425 q 376 474 406 457 q 369 475 374 475 l 242 475 q 235 474 238 475 q 189 429 204 456 l 188 421 m 483 689 l 349 689 l 349 832 l 483 832 l 483 689 m 260 689 l 125 689 l 125 832 l 260 832 l 260 689 z "},"÷":{"ha":653,"x_min":49,"x_max":542,"o":"m 542 272 l 49 272 l 49 404 l 542 404 l 542 272 m 379 507 l 208 507 l 208 682 l 379 682 l 379 507 m 379 0 l 208 0 l 208 175 l 379 175 l 379 0 z "},"ø":{"ha":679,"x_min":49,"x_max":579,"o":"m 551 642 l 507 561 q 556 510 544 526 q 579 425 579 478 l 579 175 q 556 90 579 122 q 489 22 531 53 q 388 -7 447 -7 l 240 -7 q 190 0 218 -7 l 164 -49 l 74 -49 l 121 38 q 72 90 89 64 q 49 175 49 122 l 49 425 q 72 510 49 478 q 140 576 94 543 q 240 607 183 607 l 388 607 q 435 600 407 607 l 457 642 l 551 642 m 439 429 l 435 435 l 261 125 l 386 125 q 394 128 389 125 q 440 168 439 153 l 440 421 l 439 429 m 188 421 l 188 168 q 190 161 188 164 l 364 475 l 242 475 q 235 474 238 475 q 189 429 204 456 l 188 421 z "},"ù":{"ha":678,"x_min":43,"x_max":569,"o":"m 569 0 l 433 0 l 428 35 q 340 -6 372 -6 l 236 -6 q 135 24 176 -6 q 68 92 93 54 q 43 176 43 125 l 43 600 l 182 600 l 182 179 q 183 169 182 172 q 229 128 194 150 q 238 126 232 126 l 336 126 q 375 147 346 126 q 418 182 404 167 l 418 600 l 557 600 l 557 124 l 569 0 m 429 715 l 301 678 l 138 881 l 301 881 l 429 715 z "},"ú":{"ha":678,"x_min":43,"x_max":569,"o":"m 569 0 l 433 0 l 428 35 q 340 -6 372 -6 l 236 -6 q 135 24 176 -6 q 68 92 93 54 q 43 176 43 125 l 43 600 l 182 600 l 182 179 q 183 169 182 172 q 229 128 194 150 q 238 126 232 126 l 336 126 q 375 147 346 126 q 418 182 404 167 l 418 600 l 557 600 l 557 124 l 569 0 m 306 678 l 178 715 l 306 881 l 469 881 l 306 678 z "},"û":{"ha":678,"x_min":43,"x_max":569,"o":"m 569 0 l 433 0 l 428 35 q 340 -6 372 -6 l 236 -6 q 135 24 176 -6 q 68 92 93 54 q 43 176 43 125 l 43 600 l 182 600 l 182 179 q 183 169 182 172 q 229 128 194 150 q 238 126 232 126 l 336 126 q 375 147 346 126 q 418 182 404 167 l 418 600 l 557 600 l 557 124 l 569 0 m 246 685 l 97 685 l 233 867 l 364 867 l 500 685 l 351 685 l 299 757 l 246 685 z "},"ü":{"ha":678,"x_min":43,"x_max":569,"o":"m 569 0 l 433 0 l 428 35 q 340 -6 372 -6 l 236 -6 q 135 24 176 -6 q 68 92 93 54 q 43 176 43 125 l 43 600 l 182 600 l 182 179 q 183 169 182 172 q 229 128 194 150 q 238 126 232 126 l 336 126 q 375 147 346 126 q 418 182 404 167 l 418 600 l 557 600 l 557 124 l 569 0 m 483 689 l 349 689 l 349 832 l 483 832 l 483 689 m 260 689 l 125 689 l 125 832 l 260 832 l 260 689 z "},"ý":{"ha":597,"x_min":-22,"x_max":563,"o":"m 563 600 l 268 -225 l 128 -225 l 211 0 l 199 0 l -22 600 l 133 600 l 274 193 l 415 600 l 563 600 m 285 678 l 157 715 l 285 881 l 449 881 l 285 678 z "},"þ":{"ha":682,"x_min":58,"x_max":572,"o":"m 572 176 q 547 90 572 125 q 481 22 515 46 q 381 -7 439 -7 l 279 -7 q 197 25 243 -7 l 197 -226 l 58 -226 l 58 833 l 197 833 l 197 572 q 279 607 243 607 l 381 607 q 481 576 439 607 q 547 508 522 546 q 572 422 572 472 l 572 176 m 433 179 l 433 419 l 432 428 q 388 472 417 454 q 379 475 382 475 l 283 475 q 242 452 272 475 q 197 413 213 429 l 197 186 q 242 147 213 169 q 283 125 272 125 l 379 125 q 388 126 385 125 q 432 172 415 144 q 433 179 433 175 z "},"ÿ":{"ha":593,"x_min":6,"x_max":590,"o":"m 590 600 l 296 -225 l 156 -225 l 239 0 l 226 0 l 6 600 l 161 600 l 301 193 l 443 600 l 590 600 m 475 689 l 340 689 l 340 832 l 475 832 l 475 689 m 251 689 l 117 689 l 117 832 l 251 832 l 251 689 z "},"Ā":{"ha":763,"x_min":-33,"x_max":715,"o":"m 499 925 l 183 925 l 183 1049 l 499 1049 l 499 925 m 715 0 l 560 0 l 499 176 l 183 176 l 122 0 l -33 0 l 257 831 l 426 831 l 715 0 m 453 315 l 342 643 l 229 315 l 453 315 z "},"ā":{"ha":669,"x_min":24,"x_max":558,"o":"m 406 376 l 406 424 q 404 431 406 429 q 360 472 390 454 q 351 475 354 475 l 229 475 q 201 460 218 475 q 174 432 183 444 l 43 471 q 83 526 53 493 q 133 574 114 560 q 233 607 182 607 l 353 607 q 454 576 411 607 q 521 511 500 543 q 544 425 544 479 l 544 122 l 558 0 l 421 0 l 414 28 q 328 -7 365 -7 l 214 -7 q 114 24 157 -7 q 49 89 76 51 q 24 174 24 124 l 24 199 q 49 283 24 249 q 114 346 71 315 q 214 376 157 376 l 406 376 m 406 181 l 406 253 l 215 253 q 206 250 210 253 q 164 206 181 235 q 163 201 163 203 l 163 175 l 164 171 q 207 128 182 140 q 215 125 213 125 l 324 125 q 365 147 333 125 q 406 181 396 169 m 463 707 l 147 707 l 147 831 l 463 831 l 463 707 z "},"Ă":{"ha":763,"x_min":-33,"x_max":715,"o":"m 715 0 l 560 0 l 499 176 l 183 176 l 122 0 l -33 0 l 257 831 l 426 831 l 715 0 m 453 315 l 342 643 l 229 315 l 453 315 m 407 1043 l 488 1043 q 445 941 488 983 q 344 899 403 899 q 242 941 286 899 q 199 1043 199 983 l 279 1043 q 299 996 279 1015 q 344 976 318 976 q 389 996 371 976 q 407 1043 407 1015 z "},"ă":{"ha":669,"x_min":24,"x_max":558,"o":"m 406 376 l 406 424 q 404 431 406 429 q 360 472 390 454 q 351 475 354 475 l 229 475 q 201 460 218 475 q 174 432 183 444 l 43 471 q 83 526 53 493 q 133 574 114 560 q 233 607 182 607 l 353 607 q 454 576 411 607 q 521 511 500 543 q 544 425 544 479 l 544 122 l 558 0 l 421 0 l 414 28 q 328 -7 365 -7 l 214 -7 q 114 24 157 -7 q 49 89 76 51 q 24 174 24 124 l 24 199 q 49 283 24 249 q 114 346 71 315 q 214 376 157 376 l 406 376 m 406 181 l 406 253 l 215 253 q 206 250 210 253 q 164 206 181 235 q 163 201 163 203 l 163 175 l 164 171 q 207 128 182 140 q 215 125 213 125 l 324 125 q 365 147 333 125 q 406 181 396 169 m 360 828 l 440 828 q 398 726 440 768 q 297 683 356 683 q 195 726 239 683 q 151 828 151 768 l 232 828 q 251 781 232 800 q 297 761 271 761 q 342 781 324 761 q 360 828 360 800 z "},"Ą":{"ha":763,"x_min":-33,"x_max":811,"o":"m 654 -275 l 543 -101 l 678 -61 l 811 -275 l 654 -275 m 715 0 l 560 0 l 499 176 l 183 176 l 122 0 l -33 0 l 257 831 l 426 831 l 715 0 m 453 315 l 342 643 l 229 315 l 453 315 z "},"ą":{"ha":669,"x_min":24,"x_max":639,"o":"m 482 -275 l 371 -101 l 506 -61 l 639 -275 l 482 -275 m 406 376 l 406 424 q 404 431 406 429 q 360 472 390 454 q 351 475 354 475 l 229 475 q 201 460 218 475 q 174 432 183 444 l 43 471 q 83 526 53 493 q 133 574 114 560 q 233 607 182 607 l 353 607 q 454 576 411 607 q 521 511 500 543 q 544 425 544 479 l 544 122 l 558 0 l 421 0 l 414 28 q 328 -7 365 -7 l 214 -7 q 114 24 157 -7 q 49 89 76 51 q 24 174 24 124 l 24 199 q 49 283 24 249 q 114 346 71 315 q 214 376 157 376 l 406 376 m 406 181 l 406 253 l 215 253 q 206 250 210 253 q 164 206 181 235 q 163 201 163 203 l 163 175 l 164 171 q 207 128 182 140 q 215 125 213 125 l 324 125 q 365 147 333 125 q 406 181 396 169 z "},"Ć":{"ha":768,"x_min":61,"x_max":650,"o":"m 650 161 q 621 108 636 129 q 444 -7 535 -7 l 271 -7 q 185 18 225 -7 q 131 64 164 31 q 83 117 97 97 q 61 196 61 150 l 61 633 q 83 711 61 678 q 131 766 97 732 q 185 811 165 800 q 271 836 229 836 l 444 836 q 621 721 533 836 q 650 672 629 710 l 508 632 q 446 696 467 683 q 440 697 444 697 l 276 697 l 271 696 q 208 635 235 676 q 207 619 207 632 l 207 197 q 230 165 207 186 q 271 133 253 143 q 281 132 272 132 l 439 132 q 446 133 443 132 q 474 156 458 139 q 500 186 490 172 l 508 199 l 650 161 m 372 878 l 244 915 l 372 1081 l 536 1081 l 372 878 z "},"ć":{"ha":663,"x_min":49,"x_max":564,"o":"m 188 176 q 190 168 188 172 q 235 128 203 146 q 243 125 240 125 l 379 125 q 431 161 400 125 q 435 167 432 163 l 564 128 q 524 72 554 104 q 475 25 494 39 q 375 -7 428 -7 l 242 -7 q 140 22 182 -7 q 74 90 99 53 q 49 175 49 124 l 49 425 q 74 510 49 476 q 140 578 99 547 q 242 607 182 607 l 374 607 q 474 575 426 607 q 524 528 497 558 q 563 472 551 499 l 433 433 l 429 439 q 378 475 399 475 l 243 475 l 235 472 q 190 432 203 454 l 188 424 l 188 176 m 313 678 l 185 715 l 313 881 l 476 881 l 313 678 z "},"Ĉ":{"ha":768,"x_min":61,"x_max":650,"o":"m 650 161 q 621 108 636 129 q 444 -7 535 -7 l 271 -7 q 185 18 225 -7 q 131 64 164 31 q 83 117 97 97 q 61 196 61 150 l 61 633 q 83 711 61 678 q 131 766 97 732 q 185 811 165 800 q 271 836 229 836 l 444 836 q 621 721 533 836 q 650 672 629 710 l 508 632 q 446 696 467 683 q 440 697 444 697 l 276 697 l 271 696 q 208 635 235 676 q 207 619 207 632 l 207 197 q 230 165 207 186 q 271 133 253 143 q 281 132 272 132 l 439 132 q 446 133 443 132 q 474 156 458 139 q 500 186 490 172 l 508 199 l 650 161 m 315 885 l 167 885 l 303 1067 l 433 1067 l 569 885 l 421 885 l 368 957 l 315 885 z "},"ĉ":{"ha":663,"x_min":49,"x_max":564,"o":"m 188 176 q 190 168 188 172 q 235 128 203 146 q 243 125 240 125 l 379 125 q 431 161 400 125 q 435 167 432 163 l 564 128 q 524 72 554 104 q 475 25 494 39 q 375 -7 428 -7 l 242 -7 q 140 22 182 -7 q 74 90 99 53 q 49 175 49 124 l 49 425 q 74 510 49 476 q 140 578 99 547 q 242 607 182 607 l 374 607 q 474 575 426 607 q 524 528 497 558 q 563 472 551 499 l 433 433 l 429 439 q 378 475 399 475 l 243 475 l 235 472 q 190 432 203 454 l 188 424 l 188 176 m 268 685 l 119 685 l 256 867 l 386 867 l 522 685 l 374 685 l 321 757 l 268 685 z "},"Ċ":{"ha":768,"x_min":61,"x_max":650,"o":"m 650 161 q 621 108 636 129 q 444 -7 535 -7 l 271 -7 q 185 18 225 -7 q 131 64 164 31 q 83 117 97 97 q 61 196 61 150 l 61 633 q 83 711 61 678 q 131 766 97 732 q 185 811 165 800 q 271 836 229 836 l 444 836 q 621 721 533 836 q 650 672 629 710 l 508 632 q 446 696 467 683 q 440 697 444 697 l 276 697 l 271 696 q 208 635 235 676 q 207 619 207 632 l 207 197 q 230 165 207 186 q 271 133 253 143 q 281 132 272 132 l 439 132 q 446 133 443 132 q 474 156 458 139 q 500 186 490 172 l 508 199 l 650 161 m 433 894 l 285 894 l 285 1043 l 433 1043 l 433 894 z "},"ċ":{"ha":663,"x_min":49,"x_max":564,"o":"m 188 176 q 190 168 188 172 q 235 128 203 146 q 243 125 240 125 l 379 125 q 431 161 400 125 q 435 167 432 163 l 564 128 q 524 72 554 104 q 475 25 494 39 q 375 -7 428 -7 l 242 -7 q 140 22 182 -7 q 74 90 99 53 q 49 175 49 124 l 49 425 q 74 510 49 476 q 140 578 99 547 q 242 607 182 607 l 374 607 q 474 575 426 607 q 524 528 497 558 q 563 472 551 499 l 433 433 l 429 439 q 378 475 399 475 l 243 475 l 235 472 q 190 432 203 454 l 188 424 l 188 176 m 385 686 l 236 686 l 236 835 l 385 835 l 385 686 z "},"Č":{"ha":768,"x_min":61,"x_max":650,"o":"m 650 161 q 621 108 636 129 q 444 -7 535 -7 l 271 -7 q 185 18 225 -7 q 131 64 164 31 q 83 117 97 97 q 61 196 61 150 l 61 633 q 83 711 61 678 q 131 766 97 732 q 185 811 165 800 q 271 836 229 836 l 444 836 q 621 721 533 836 q 650 672 629 710 l 508 632 q 446 696 467 683 q 440 697 444 697 l 276 697 l 271 696 q 208 635 235 676 q 207 619 207 632 l 207 197 q 230 165 207 186 q 271 133 253 143 q 281 132 272 132 l 439 132 q 446 133 443 132 q 474 156 458 139 q 500 186 490 172 l 508 199 l 650 161 m 408 1067 l 557 1067 l 421 885 l 290 885 l 154 1067 l 303 1067 l 356 988 l 408 1067 z "},"č":{"ha":663,"x_min":49,"x_max":564,"o":"m 188 176 q 190 168 188 172 q 235 128 203 146 q 243 125 240 125 l 379 125 q 431 161 400 125 q 435 167 432 163 l 564 128 q 524 72 554 104 q 475 25 494 39 q 375 -7 428 -7 l 242 -7 q 140 22 182 -7 q 74 90 99 53 q 49 175 49 124 l 49 425 q 74 510 49 476 q 140 578 99 547 q 242 607 182 607 l 374 607 q 474 575 426 607 q 524 528 497 558 q 563 472 551 499 l 433 433 l 429 439 q 378 475 399 475 l 243 475 l 235 472 q 190 432 203 454 l 188 424 l 188 176 m 354 867 l 503 867 l 367 685 l 236 685 l 100 867 l 249 867 l 301 788 l 354 867 z "},"Ď":{"ha":782,"x_min":61,"x_max":649,"o":"m 649 201 q 628 122 649 153 q 581 70 614 103 q 525 25 547 38 q 442 0 481 0 l 61 0 l 61 831 l 442 831 q 526 807 490 831 q 579 761 547 794 q 626 706 611 728 q 649 626 649 675 l 649 201 m 207 139 l 432 139 q 442 140 440 139 q 481 172 458 150 q 503 204 503 193 l 503 622 q 501 629 503 626 q 440 690 475 672 q 428 692 439 692 l 207 692 l 207 139 m 381 1067 l 529 1067 l 393 885 l 263 885 l 126 1067 l 275 1067 l 328 988 l 381 1067 z "},"ď":{"ha":808,"x_min":49,"x_max":799,"o":"m 799 694 l 788 600 l 650 600 l 663 713 l 663 889 l 799 889 l 799 694 m 572 0 l 436 0 l 431 31 q 340 -7 382 -7 l 240 -7 q 140 24 182 -7 q 74 92 99 54 q 49 178 49 128 l 49 424 q 74 510 49 475 q 140 578 106 554 q 240 607 182 607 l 340 607 q 422 575 376 607 l 422 831 l 561 831 l 561 124 l 572 0 m 422 188 l 422 414 q 377 453 407 431 q 336 475 347 475 l 242 475 q 233 474 235 475 q 189 428 206 456 q 188 421 188 425 l 188 181 l 189 172 q 233 128 204 146 q 242 125 239 125 l 336 125 q 377 148 347 125 q 422 188 407 171 z "},"Đ":{"ha":810,"x_min":-15,"x_max":676,"o":"m 676 201 q 657 122 676 154 q 608 69 642 101 q 554 25 575 36 q 471 0 507 0 l 89 0 l 89 350 l -15 350 l -15 481 l 89 481 l 89 831 l 471 831 q 554 807 518 831 q 656 706 597 781 q 676 626 676 674 l 676 201 m 235 139 l 461 139 q 471 140 468 139 q 509 172 488 150 q 531 204 531 193 l 531 629 q 468 690 504 674 q 457 692 467 692 l 235 692 l 235 481 l 378 481 l 378 350 l 235 350 l 235 139 z "},"đ":{"ha":688,"x_min":49,"x_max":604,"o":"m 604 649 l 561 649 l 561 118 l 572 -6 l 433 -6 l 431 25 q 340 -12 382 -12 l 240 -12 q 140 18 182 -12 q 74 86 99 49 q 49 172 49 122 l 49 418 q 74 504 49 469 q 140 572 106 549 q 240 601 182 601 l 340 601 q 422 569 376 601 l 422 649 l 240 649 l 240 779 l 422 779 l 422 825 l 561 825 l 561 779 l 604 779 l 604 649 m 422 182 l 422 408 q 377 447 407 425 q 336 469 347 469 l 242 469 q 233 468 235 469 q 189 422 206 450 q 188 415 188 419 l 188 175 l 189 167 q 233 122 204 140 q 242 119 239 119 l 336 119 q 377 142 347 119 q 422 182 407 165 z "},"Ē":{"ha":717,"x_min":61,"x_max":583,"o":"m 583 0 l 61 0 l 61 831 l 583 831 l 583 692 l 207 692 l 207 482 l 557 482 l 557 343 l 207 343 l 207 139 l 583 139 l 583 0 m 483 901 l 168 901 l 168 1039 l 483 1039 l 483 901 z "},"ē":{"ha":668,"x_min":46,"x_max":561,"o":"m 561 233 l 185 233 l 185 176 l 186 169 q 213 140 196 154 q 240 125 231 125 l 375 125 q 426 161 396 125 l 431 167 l 560 128 q 520 72 550 104 q 471 25 490 39 q 371 -7 424 -7 l 240 -7 q 139 22 181 -7 q 72 89 100 51 q 46 175 46 125 l 46 425 q 72 510 46 474 q 139 576 100 547 q 240 607 182 607 l 368 607 q 469 576 426 607 q 536 510 513 544 q 561 425 561 476 l 561 233 m 422 357 l 422 422 q 421 431 422 429 q 375 474 406 456 q 367 475 372 475 l 240 475 q 213 460 231 475 q 186 431 196 446 l 185 422 l 185 357 l 422 357 m 465 693 l 150 693 l 150 831 l 465 831 l 465 693 z "},"Ĕ":{"ha":717,"x_min":61,"x_max":583,"o":"m 583 0 l 61 0 l 61 831 l 583 831 l 583 692 l 207 692 l 207 482 l 557 482 l 557 343 l 207 343 l 207 139 l 583 139 l 583 0 m 389 1043 l 469 1043 q 427 941 469 983 q 326 899 385 899 q 224 941 268 899 q 181 1043 181 983 l 261 1043 q 281 996 261 1015 q 326 976 300 976 q 371 996 353 976 q 389 1043 389 1015 z "},"ĕ":{"ha":668,"x_min":46,"x_max":561,"o":"m 561 233 l 185 233 l 185 176 l 186 169 q 213 140 196 154 q 240 125 231 125 l 375 125 q 426 161 396 125 l 431 167 l 560 128 q 520 72 550 104 q 471 25 490 39 q 371 -7 424 -7 l 240 -7 q 139 22 181 -7 q 72 89 100 51 q 46 175 46 125 l 46 425 q 72 510 46 474 q 139 576 100 547 q 240 607 182 607 l 368 607 q 469 576 426 607 q 536 510 513 544 q 561 425 561 476 l 561 233 m 422 357 l 422 422 q 421 431 422 429 q 375 474 406 456 q 367 475 372 475 l 240 475 q 213 460 231 475 q 186 431 196 446 l 185 422 l 185 357 l 422 357 m 367 828 l 447 828 q 405 726 447 768 q 304 683 363 683 q 202 726 246 683 q 158 828 158 768 l 239 828 q 258 781 239 800 q 304 761 278 761 q 349 781 331 761 q 367 828 367 800 z "},"Ė":{"ha":717,"x_min":61,"x_max":583,"o":"m 583 0 l 61 0 l 61 831 l 583 831 l 583 692 l 207 692 l 207 482 l 557 482 l 557 343 l 207 343 l 207 139 l 583 139 l 583 0 m 397 901 l 249 901 l 249 1050 l 397 1050 l 397 901 z "},"ė":{"ha":668,"x_min":46,"x_max":561,"o":"m 561 233 l 185 233 l 185 176 l 186 169 q 213 140 196 154 q 240 125 231 125 l 375 125 q 426 161 396 125 l 431 167 l 560 128 q 520 72 550 104 q 471 25 490 39 q 371 -7 424 -7 l 240 -7 q 139 22 181 -7 q 72 89 100 51 q 46 175 46 125 l 46 425 q 72 510 46 474 q 139 576 100 547 q 240 607 182 607 l 368 607 q 469 576 426 607 q 536 510 513 544 q 561 425 561 476 l 561 233 m 422 357 l 422 422 q 421 431 422 429 q 375 474 406 456 q 367 475 372 475 l 240 475 q 213 460 231 475 q 186 431 196 446 l 185 422 l 185 357 l 422 357 m 378 686 l 229 686 l 229 835 l 378 835 l 378 686 z "},"Ę":{"ha":717,"x_min":61,"x_max":599,"o":"m 583 0 l 61 0 l 61 831 l 583 831 l 583 692 l 207 692 l 207 482 l 557 482 l 557 343 l 207 343 l 207 139 l 583 139 l 583 0 m 442 -235 l 331 -61 l 465 -21 l 599 -235 l 442 -235 z "},"ę":{"ha":668,"x_min":46,"x_max":561,"o":"m 282 -275 l 171 -101 l 306 -61 l 439 -275 l 282 -275 m 561 233 l 185 233 l 185 176 l 186 169 q 213 140 196 154 q 240 125 231 125 l 375 125 q 426 161 396 125 l 431 167 l 560 128 q 520 72 550 104 q 471 25 490 39 q 371 -7 424 -7 l 240 -7 q 139 22 181 -7 q 72 89 100 51 q 46 175 46 125 l 46 425 q 72 510 46 474 q 139 576 100 547 q 240 607 182 607 l 368 607 q 469 576 426 607 q 536 510 513 544 q 561 425 561 476 l 561 233 m 422 357 l 422 422 q 421 431 422 429 q 375 474 406 456 q 367 475 372 475 l 240 475 q 213 460 231 475 q 186 431 196 446 l 185 422 l 185 357 l 422 357 z "},"Ě":{"ha":717,"x_min":61,"x_max":583,"o":"m 583 0 l 61 0 l 61 831 l 583 831 l 583 692 l 207 692 l 207 482 l 557 482 l 557 343 l 207 343 l 207 139 l 583 139 l 583 0 m 372 1067 l 521 1067 l 385 885 l 254 885 l 118 1067 l 267 1067 l 319 988 l 372 1067 z "},"ě":{"ha":668,"x_min":46,"x_max":561,"o":"m 561 233 l 185 233 l 185 176 l 186 169 q 213 140 196 154 q 240 125 231 125 l 375 125 q 426 161 396 125 l 431 167 l 560 128 q 520 72 550 104 q 471 25 490 39 q 371 -7 424 -7 l 240 -7 q 139 22 181 -7 q 72 89 100 51 q 46 175 46 125 l 46 425 q 72 510 46 474 q 139 576 100 547 q 240 607 182 607 l 368 607 q 469 576 426 607 q 536 510 513 544 q 561 425 561 476 l 561 233 m 422 357 l 422 422 q 421 431 422 429 q 375 474 406 456 q 367 475 372 475 l 240 475 q 213 460 231 475 q 186 431 196 446 l 185 422 l 185 357 l 422 357 m 354 867 l 503 867 l 367 685 l 236 685 l 100 867 l 249 867 l 301 788 l 354 867 z "},"Ĝ":{"ha":831,"x_min":61,"x_max":710,"o":"m 207 197 l 207 632 q 208 638 207 635 q 271 697 233 676 q 278 699 274 699 l 467 699 q 474 697 472 699 q 506 672 489 688 q 531 644 522 656 l 539 633 l 679 674 q 650 722 671 693 q 474 838 569 838 l 271 838 q 185 814 222 838 q 131 769 165 803 q 83 714 97 735 q 61 635 61 681 l 61 196 q 83 115 61 149 q 131 63 97 96 q 185 18 164 31 q 271 -7 225 -7 l 474 -7 q 560 33 503 -7 l 567 0 l 710 0 l 683 194 l 683 475 l 358 475 l 358 336 l 538 336 l 538 201 q 514 167 538 190 q 474 133 490 143 q 467 132 471 132 l 278 132 q 272 133 275 132 l 271 133 q 230 165 253 143 q 207 197 207 186 m 319 885 l 171 885 l 307 1067 l 438 1067 l 574 885 l 425 885 l 372 957 l 319 885 z "},"ĝ":{"ha":699,"x_min":50,"x_max":583,"o":"m 583 600 l 571 475 l 571 -50 q 547 -137 571 -106 q 481 -204 524 -172 q 379 -235 438 -235 l 257 -235 q 157 -201 206 -235 q 108 -155 138 -187 q 68 -99 78 -122 l 197 -60 q 201 -65 199 -62 q 253 -103 233 -103 l 378 -103 q 386 -100 381 -103 q 414 -78 397 -93 q 432 -57 431 -64 l 432 -47 l 432 28 q 350 -6 385 -6 l 243 -6 q 142 25 185 -6 q 75 93 107 49 q 50 179 50 126 l 50 422 q 75 508 50 475 q 142 576 107 553 q 243 607 185 607 l 350 607 q 442 569 393 607 l 447 600 l 583 600 m 244 126 l 346 126 q 356 128 353 126 q 432 190 394 147 l 432 410 q 346 475 371 475 l 244 475 q 236 472 242 475 q 190 426 206 453 l 189 419 l 189 182 q 190 174 189 176 q 236 128 206 147 q 244 126 239 126 m 278 685 l 129 685 l 265 867 l 396 867 l 532 685 l 383 685 l 331 757 l 278 685 z "},"Ğ":{"ha":831,"x_min":61,"x_max":710,"o":"m 207 632 l 207 197 q 230 165 207 186 q 271 133 253 143 l 272 133 q 278 132 275 132 l 467 132 l 474 133 q 514 167 490 143 q 538 201 538 190 l 538 336 l 358 336 l 358 475 l 683 475 l 683 194 q 710 0 693 103 l 567 0 l 560 33 q 474 -7 503 -7 l 271 -7 q 185 18 225 -7 q 131 63 164 31 q 83 115 97 96 q 61 196 61 149 l 61 635 q 83 714 61 681 q 131 769 97 735 q 185 814 165 803 q 271 838 222 838 l 474 838 q 650 722 569 838 q 679 674 671 693 l 539 633 q 474 697 508 675 q 467 699 472 699 l 278 699 l 271 697 q 208 638 233 676 l 207 632 m 428 1038 l 508 1038 q 466 935 508 978 q 365 893 424 893 q 263 935 307 893 q 219 1038 219 978 l 300 1038 q 319 990 300 1010 q 365 971 339 971 q 410 990 392 971 q 428 1038 428 1010 z "},"ğ":{"ha":699,"x_min":50,"x_max":583,"o":"m 583 600 l 571 475 l 571 -50 q 547 -137 571 -106 q 481 -204 524 -172 q 379 -235 438 -235 l 257 -235 q 157 -201 206 -235 q 108 -155 138 -187 q 68 -99 78 -122 l 197 -60 q 201 -65 199 -62 q 253 -103 233 -103 l 378 -103 q 386 -100 381 -103 q 414 -78 397 -93 q 432 -57 431 -64 l 432 -47 l 432 28 q 350 -6 385 -6 l 243 -6 q 142 25 185 -6 q 75 93 107 49 q 50 179 50 126 l 50 422 q 75 508 50 475 q 142 576 107 553 q 243 607 185 607 l 350 607 q 442 569 393 607 l 447 600 l 583 600 m 244 126 l 346 126 q 356 128 353 126 q 432 190 394 147 l 432 410 q 346 475 371 475 l 244 475 q 236 472 242 475 q 190 426 206 453 l 189 419 l 189 182 q 190 174 189 176 q 236 128 206 147 q 244 126 239 126 m 374 828 l 454 828 q 412 726 454 768 q 311 683 369 683 q 209 726 253 683 q 165 828 165 768 l 246 828 q 265 781 246 800 q 311 761 285 761 q 356 781 338 761 q 374 828 374 800 z "},"Ġ":{"ha":831,"x_min":61,"x_max":710,"o":"m 207 197 l 207 632 q 208 638 207 635 q 271 697 233 676 q 278 699 274 699 l 467 699 q 474 697 472 699 q 506 672 489 688 q 531 644 522 656 l 539 633 l 679 674 q 650 722 671 693 q 474 838 569 838 l 271 838 q 185 814 222 838 q 131 769 165 803 q 83 714 97 735 q 61 635 61 681 l 61 196 q 83 115 61 149 q 131 63 97 96 q 185 18 164 31 q 271 -7 225 -7 l 474 -7 q 560 33 503 -7 l 567 0 l 710 0 l 683 194 l 683 475 l 358 475 l 358 336 l 538 336 l 538 201 q 514 167 538 190 q 474 133 490 143 q 467 132 471 132 l 278 132 q 272 133 275 132 l 271 133 q 230 165 253 143 q 207 197 207 186 m 439 901 l 290 901 l 290 1050 l 439 1050 l 439 901 z "},"ġ":{"ha":699,"x_min":50,"x_max":583,"o":"m 583 600 l 571 475 l 571 -50 q 547 -137 571 -106 q 481 -204 524 -172 q 379 -235 438 -235 l 257 -235 q 157 -201 206 -235 q 108 -155 138 -187 q 68 -99 78 -122 l 197 -60 q 201 -65 199 -62 q 253 -103 233 -103 l 378 -103 q 386 -100 381 -103 q 414 -78 397 -93 q 432 -57 431 -64 l 432 -47 l 432 28 q 350 -6 385 -6 l 243 -6 q 142 25 185 -6 q 75 93 107 49 q 50 179 50 126 l 50 422 q 75 508 50 475 q 142 576 107 553 q 243 607 185 607 l 350 607 q 442 569 393 607 l 447 600 l 583 600 m 244 126 l 346 126 q 356 128 353 126 q 432 190 394 147 l 432 410 q 346 475 371 475 l 244 475 q 236 472 242 475 q 190 426 206 453 l 189 419 l 189 182 q 190 174 189 176 q 236 128 206 147 q 244 126 239 126 m 392 686 l 243 686 l 243 835 l 392 835 l 392 686 z "},"Ģ":{"ha":831,"x_min":61,"x_max":710,"o":"m 492 -101 l 381 -275 l 224 -275 l 357 -61 l 492 -101 m 207 632 l 207 197 q 230 165 207 186 q 271 133 253 143 l 272 133 q 278 132 275 132 l 467 132 l 474 133 q 514 167 490 143 q 538 201 538 190 l 538 336 l 358 336 l 358 475 l 683 475 l 683 194 q 710 0 693 103 l 567 0 l 560 33 q 474 -7 503 -7 l 271 -7 q 185 18 225 -7 q 131 63 164 31 q 83 115 97 96 q 61 196 61 149 l 61 635 q 83 714 61 681 q 131 769 97 735 q 185 814 165 803 q 271 838 222 838 l 474 838 q 650 722 569 838 q 679 674 671 693 l 539 633 q 474 697 508 675 q 467 699 472 699 l 278 699 l 271 697 q 208 638 233 676 l 207 632 z "},"ģ":{"ha":699,"x_min":50,"x_max":583,"o":"m 583 600 l 571 475 l 571 -50 q 547 -137 571 -106 q 481 -204 524 -172 q 379 -235 438 -235 l 257 -235 q 157 -201 206 -235 q 108 -155 138 -187 q 68 -99 78 -122 l 197 -60 q 201 -65 199 -62 q 253 -103 233 -103 l 378 -103 q 386 -100 381 -103 q 414 -78 397 -93 q 432 -57 431 -64 l 432 -47 l 432 28 q 350 -6 385 -6 l 243 -6 q 142 25 185 -6 q 75 93 107 49 q 50 179 50 126 l 50 422 q 75 508 50 475 q 142 576 107 553 q 243 607 185 607 l 350 607 q 442 569 393 607 l 447 600 l 583 600 m 244 126 l 346 126 q 356 128 353 126 q 432 190 394 147 l 432 410 q 346 475 371 475 l 244 475 q 236 472 242 475 q 190 426 206 453 l 189 419 l 189 182 q 190 174 189 176 q 236 128 206 147 q 244 126 239 126 m 328 678 l 200 715 l 328 881 l 492 881 l 328 678 z "},"Ĥ":{"ha":794,"x_min":61,"x_max":656,"o":"m 656 0 l 510 0 l 510 343 l 207 343 l 207 0 l 61 0 l 61 831 l 207 831 l 207 482 l 510 482 l 510 831 l 656 831 l 656 0 m 313 885 l 164 885 l 300 1067 l 431 1067 l 567 885 l 418 885 l 365 957 l 313 885 z "},"ĥ":{"ha":674,"x_min":46,"x_max":558,"o":"m 419 421 l 419 0 l 558 0 l 558 424 q 533 508 558 472 q 467 576 501 553 q 367 607 425 607 l 267 607 q 185 574 232 607 l 185 831 l 46 831 l 46 0 l 185 0 l 185 413 q 228 453 199 431 q 269 475 257 475 l 365 475 q 374 474 372 475 q 418 428 401 456 q 419 421 419 425 m 258 885 l 110 885 l 246 1067 l 376 1067 l 513 885 l 364 885 l 311 957 l 258 885 z "},"Ħ":{"ha":794,"x_min":22,"x_max":700,"o":"m 657 0 l 511 0 l 511 343 l 207 343 l 207 0 l 61 0 l 61 654 l 22 654 l 22 785 l 61 785 l 61 831 l 207 831 l 207 785 l 511 785 l 511 831 l 657 831 l 657 785 l 700 785 l 700 654 l 657 654 l 657 0 m 207 482 l 511 482 l 511 654 l 207 654 l 207 482 z "},"ħ":{"ha":676,"x_min":-17,"x_max":561,"o":"m 365 656 l 188 656 l 188 574 q 269 607 235 607 l 369 607 q 469 576 428 607 q 536 508 504 553 q 561 424 561 472 l 561 0 l 422 0 l 422 421 l 421 428 q 376 474 404 456 q 368 475 375 475 l 272 475 q 231 453 260 475 q 188 413 201 431 l 188 0 l 49 0 l 49 656 l -17 656 l -17 778 l 49 778 l 49 831 l 188 831 l 188 778 l 365 778 l 365 656 z "},"Ĩ":{"ha":346,"x_min":-93,"x_max":360,"o":"m 207 0 l 61 0 l 61 831 l 207 831 l 207 0 m 360 922 l 249 890 q 222 922 240 911 q 192 929 203 933 l 101 900 q -9 913 47 882 q -93 1013 -65 943 l 25 1042 q 48 1013 33 1021 q 74 1007 63 1004 l 168 1036 q 278 1024 224 1054 q 360 922 332 993 z "},"ĩ":{"ha":300,"x_min":-99,"x_max":354,"o":"m 200 -1 l 61 -1 l 61 597 l 200 597 l 200 -1 m 354 722 l 243 690 q 216 722 235 711 q 186 729 197 733 l 96 700 q -15 713 42 682 q -99 813 -71 743 l 19 842 q 42 813 28 821 q 68 807 57 804 l 163 836 q 272 824 218 854 q 354 722 326 793 z "},"Ī":{"ha":346,"x_min":-25,"x_max":290,"o":"m 290 922 l -25 922 l -25 1046 l 290 1046 l 290 922 m 207 0 l 61 0 l 61 831 l 207 831 l 207 0 z "},"ī":{"ha":300,"x_min":-26,"x_max":289,"o":"m 289 707 l -26 707 l -26 831 l 289 831 l 289 707 m 200 -1 l 61 -1 l 61 597 l 200 597 l 200 -1 z "},"Ĭ":{"ha":346,"x_min":-11,"x_max":278,"o":"m 207 0 l 61 0 l 61 831 l 207 831 l 207 0 m 197 1043 l 278 1043 q 235 941 278 983 q 135 899 193 899 q 33 941 76 899 q -11 1043 -11 983 l 69 1043 q 89 996 69 1015 q 135 976 108 976 q 179 996 161 976 q 197 1043 197 1015 z "},"ĭ":{"ha":300,"x_min":-14,"x_max":275,"o":"m 200 -1 l 61 -1 l 61 597 l 200 597 l 200 -1 m 194 828 l 275 828 q 233 726 275 768 q 132 683 190 683 q 30 726 74 683 q -14 828 -14 768 l 67 828 q 86 781 67 800 q 132 761 106 761 q 176 781 158 761 q 194 828 194 800 z "},"Į":{"ha":346,"x_min":40,"x_max":308,"o":"m 151 -275 l 40 -101 l 175 -61 l 308 -275 l 151 -275 m 207 0 l 61 0 l 61 831 l 207 831 l 207 0 z "},"į":{"ha":300,"x_min":40,"x_max":308,"o":"m 151 -275 l 40 -101 l 175 -61 l 308 -275 l 151 -275 m 204 685 l 56 685 l 56 833 l 204 833 l 204 685 m 200 0 l 61 0 l 61 600 l 200 600 l 200 0 z "},"İ":{"ha":346,"x_min":58,"x_max":207,"o":"m 207 0 l 61 0 l 61 831 l 207 831 l 207 0 m 207 901 l 58 901 l 58 1050 l 207 1050 l 207 901 z "},"ı":{"ha":300,"x_min":61,"x_max":200,"o":"m 200 -1 l 61 -1 l 61 597 l 200 597 l 200 -1 z "},"Ĳ":{"ha":1007,"x_min":61,"x_max":864,"o":"m 207 0 l 61 0 l 61 831 l 207 831 l 207 0 m 864 199 q 840 119 864 156 q 793 65 825 99 q 742 21 761 32 q 656 -4 699 -4 l 553 -4 q 375 111 461 -4 q 347 164 367 124 l 488 201 q 543 136 510 153 q 554 135 544 135 l 649 135 q 687 163 656 133 q 718 200 718 193 l 718 833 l 864 833 l 864 199 z "},"ĳ":{"ha":607,"x_min":56,"x_max":521,"o":"m 204 685 l 56 685 l 56 833 l 204 833 l 204 685 m 200 0 l 61 0 l 61 600 l 200 600 l 200 0 m 521 685 l 372 685 l 372 833 l 521 833 l 521 685 m 321 -100 l 208 -100 l 208 -229 l 325 -229 q 424 -200 382 -229 q 492 -132 461 -175 q 517 -44 517 -96 l 517 600 l 378 600 l 378 -43 l 376 -50 q 329 -99 363 -78 q 321 -100 326 -100 z "},"Ĵ":{"ha":656,"x_min":-4,"x_max":649,"o":"m 513 196 q 489 117 513 153 q 442 63 474 96 q 390 18 410 29 q 304 -7 347 -7 l 201 -7 q 24 108 110 -7 q -4 161 15 121 l 136 199 q 192 133 158 150 q 203 132 193 132 l 297 132 q 335 160 304 131 q 367 197 367 190 l 367 831 l 513 831 l 513 196 m 394 885 l 246 885 l 382 1067 l 513 1067 l 649 885 l 500 885 l 447 957 l 394 885 z "},"ĵ":{"ha":313,"x_min":-86,"x_max":361,"o":"m 29 -97 l -86 -97 l -86 -229 l 31 -229 q 129 -200 88 -229 q 197 -132 167 -175 q 222 -44 222 -96 l 222 600 l 83 600 l 83 -42 l 82 -49 q 38 -96 68 -76 q 29 -97 35 -97 m 107 685 l -42 685 l 94 867 l 225 867 l 361 685 l 213 685 l 160 757 l 107 685 z "},"Ķ":{"ha":725,"x_min":61,"x_max":689,"o":"m 425 -101 l 314 -275 l 157 -275 l 290 -61 l 425 -101 m 689 0 l 510 0 l 222 347 l 207 347 l 207 0 l 61 0 l 61 831 l 207 831 l 207 485 l 221 485 q 367 660 271 543 q 508 831 463 776 l 688 831 l 342 417 q 497 231 364 390 q 689 0 629 71 z "},"ķ":{"ha":625,"x_min":42,"x_max":572,"o":"m 406 -101 l 294 -275 l 138 -275 l 271 -61 l 406 -101 m 572 0 l 394 0 l 206 253 l 181 253 l 181 0 l 42 0 l 42 831 l 181 831 l 181 383 l 207 383 q 237 419 218 397 q 294 490 256 442 q 358 569 333 538 l 385 600 l 557 600 l 326 319 l 572 0 z "},"ĸ":{"ha":625,"x_min":49,"x_max":585,"o":"m 585 0 l 401 0 l 188 244 l 188 0 l 49 0 l 49 600 l 188 600 l 188 386 l 388 600 l 578 600 l 578 472 l 456 474 l 308 317 l 585 0 z "},"Ĺ":{"ha":667,"x_min":61,"x_max":575,"o":"m 575 0 l 61 0 l 61 831 l 207 831 l 207 139 l 575 139 l 575 0 m 215 878 l 88 915 l 215 1081 l 379 1081 l 215 878 z "},"ĺ":{"ha":319,"x_min":56,"x_max":368,"o":"m 210 0 l 69 0 l 56 103 l 56 831 l 194 831 l 194 118 l 210 0 m 204 878 l 76 915 l 204 1081 l 368 1081 l 204 878 z "},"Ļ":{"ha":667,"x_min":61,"x_max":575,"o":"m 411 -101 l 300 -275 l 143 -275 l 276 -61 l 411 -101 m 575 0 l 61 0 l 61 831 l 207 831 l 207 139 l 575 139 l 575 0 z "},"ļ":{"ha":319,"x_min":-32,"x_max":236,"o":"m 236 -101 l 125 -275 l -32 -275 l 101 -61 l 236 -101 m 213 0 l 72 0 l 56 107 l 56 831 l 194 831 l 194 122 l 213 0 z "},"Ľ":{"ha":667,"x_min":61,"x_max":575,"o":"m 467 694 l 456 600 l 318 600 l 331 713 l 331 889 l 467 889 l 467 694 m 575 0 l 61 0 l 61 831 l 207 831 l 207 139 l 575 139 l 575 0 z "},"ľ":{"ha":453,"x_min":56,"x_max":432,"o":"m 432 694 l 421 600 l 283 600 l 296 713 l 296 889 l 432 889 l 432 694 m 210 0 l 69 0 l 56 103 l 56 831 l 194 831 l 194 118 l 210 0 z "},"Ŀ":{"ha":667,"x_min":61,"x_max":575,"o":"m 575 0 l 61 0 l 61 831 l 207 831 l 207 139 l 575 139 l 575 0 m 503 343 l 354 343 l 354 492 l 503 492 l 503 343 z "},"ŀ":{"ha":475,"x_min":56,"x_max":432,"o":"m 210 0 l 69 0 l 56 103 l 56 831 l 194 831 l 194 118 l 210 0 m 432 346 l 283 346 l 283 494 l 432 494 l 432 346 z "},"Ł":{"ha":694,"x_min":-36,"x_max":601,"o":"m 388 450 l 235 369 l 235 139 l 601 139 l 601 0 l 89 0 l 89 293 l 25 260 l -36 376 l 89 442 l 89 831 l 235 831 l 235 518 l 326 567 l 388 450 z "},"ł":{"ha":425,"x_min":-36,"x_max":388,"o":"m 246 0 l 108 0 q 94 103 94 93 l 94 296 l 25 260 l -36 376 l 94 444 l 94 831 l 235 831 l 235 518 l 326 567 l 388 450 l 235 369 l 235 118 q 236 92 235 107 q 240 51 238 76 q 246 0 243 25 z "},"Ń":{"ha":788,"x_min":61,"x_max":649,"o":"m 649 0 l 494 0 l 207 551 l 207 0 l 61 0 l 61 831 l 218 831 l 503 272 l 503 831 l 649 831 l 649 0 m 354 881 l 226 918 l 354 1083 l 518 1083 l 354 881 z "},"ń":{"ha":688,"x_min":46,"x_max":572,"o":"m 572 0 l 433 0 l 433 422 q 432 431 433 428 q 389 474 419 454 q 378 475 388 475 l 281 475 q 199 418 251 475 l 199 0 l 60 0 l 60 476 l 46 600 l 182 600 l 189 568 q 276 607 243 607 l 379 607 q 481 576 438 607 q 547 510 524 544 q 572 425 572 476 l 572 0 m 313 678 l 185 715 l 313 881 l 476 881 l 313 678 z "},"Ņ":{"ha":788,"x_min":61,"x_max":649,"o":"m 450 -101 l 339 -275 l 182 -275 l 315 -61 l 450 -101 m 649 0 l 494 0 l 207 551 l 207 0 l 61 0 l 61 831 l 218 831 l 503 272 l 503 831 l 649 831 l 649 0 z "},"ņ":{"ha":688,"x_min":46,"x_max":572,"o":"m 426 -101 l 315 -275 l 158 -275 l 292 -61 l 426 -101 m 572 0 l 433 0 l 433 422 q 432 431 433 428 q 389 474 419 454 q 378 475 388 475 l 281 475 q 199 418 251 475 l 199 0 l 60 0 l 60 476 l 46 600 l 182 600 l 189 568 q 276 607 243 607 l 379 607 q 481 576 438 607 q 547 510 524 544 q 572 425 572 476 l 572 0 z "},"Ň":{"ha":788,"x_min":61,"x_max":649,"o":"m 649 0 l 494 0 l 207 551 l 207 0 l 61 0 l 61 831 l 218 831 l 503 272 l 503 831 l 649 831 l 649 0 m 411 1069 l 560 1069 l 424 888 l 293 888 l 157 1069 l 306 1069 l 358 990 l 411 1069 z "},"ň":{"ha":688,"x_min":46,"x_max":572,"o":"m 572 0 l 433 0 l 433 422 q 432 431 433 428 q 389 474 419 454 q 378 475 388 475 l 281 475 q 199 418 251 475 l 199 0 l 60 0 l 60 476 l 46 600 l 182 600 l 189 568 q 276 607 243 607 l 379 607 q 481 576 438 607 q 547 510 524 544 q 572 425 572 476 l 572 0 m 364 867 l 513 867 l 376 685 l 246 685 l 110 867 l 258 867 l 311 788 l 364 867 z "},"ŉ":{"ha":771,"x_min":-44,"x_max":656,"o":"m 104 694 l 93 600 l -44 600 l -32 713 l -32 889 l 104 889 l 104 694 m 656 0 l 517 0 l 517 422 q 515 431 517 428 q 472 474 503 454 q 461 475 471 475 l 364 475 q 282 418 335 475 l 282 0 l 143 0 l 143 476 l 129 600 l 265 600 l 272 568 q 360 607 326 607 l 463 607 q 564 576 521 607 q 631 510 607 544 q 656 425 656 476 l 656 0 z "},"Ŋ":{"ha":788,"x_min":61,"x_max":649,"o":"m 510 0 l 494 0 l 207 551 l 207 0 l 61 0 l 61 831 l 218 831 l 503 272 l 503 831 l 649 831 l 649 0 l 649 -44 q 624 -132 649 -96 q 556 -200 593 -175 q 457 -229 514 -229 l 340 -229 l 340 -97 l 456 -97 l 464 -96 q 508 -49 494 -76 q 510 -42 510 -44 l 510 0 z "},"ŋ":{"ha":688,"x_min":46,"x_max":572,"o":"m 572 0 l 572 -44 q 547 -132 572 -96 q 479 -200 517 -175 q 381 -229 438 -229 l 264 -229 l 264 -97 l 379 -97 l 388 -96 q 432 -49 418 -76 q 433 -42 433 -44 l 433 0 l 433 422 q 432 431 433 428 q 389 474 419 454 q 378 475 388 475 l 281 475 q 199 418 251 475 l 199 0 l 60 0 l 60 476 l 46 600 l 183 600 l 189 568 q 276 607 243 607 l 379 607 q 481 576 438 607 q 547 510 524 544 q 572 425 572 476 l 572 0 z "},"Ō":{"ha":818,"x_min":63,"x_max":693,"o":"m 693 197 q 671 118 693 151 q 622 63 654 96 q 569 18 589 29 q 483 -7 529 -7 l 272 -7 q 186 18 226 -7 q 133 63 167 29 q 85 118 99 97 q 63 197 63 151 l 63 632 q 85 711 63 678 q 133 766 99 732 q 186 811 167 800 q 272 836 226 836 l 483 836 q 569 811 529 836 q 622 767 589 800 q 671 711 654 733 q 693 632 693 678 l 693 197 m 208 628 l 208 199 q 210 193 208 194 q 271 133 238 151 q 278 132 274 132 l 478 132 q 485 133 482 132 q 546 193 518 151 l 547 199 l 547 628 q 546 635 547 633 q 485 696 517 678 q 478 697 482 697 l 278 697 q 271 696 272 697 q 210 635 239 678 l 208 628 m 540 922 l 225 922 l 225 1046 l 540 1046 l 540 922 z "},"ō":{"ha":672,"x_min":49,"x_max":563,"o":"m 563 175 q 539 90 563 122 q 472 22 514 53 q 371 -7 431 -7 l 240 -7 q 140 22 182 -7 q 103 56 125 33 q 72 90 81 78 q 49 175 49 122 l 49 425 q 72 510 49 478 q 140 576 94 543 q 240 607 183 607 l 371 607 q 472 576 429 607 q 539 510 515 544 q 563 425 563 478 l 563 175 m 188 421 l 188 168 q 233 126 188 153 q 242 125 236 125 l 369 125 q 378 128 372 125 q 424 168 422 153 l 424 421 q 422 429 424 425 q 376 474 406 457 q 369 475 374 475 l 242 475 q 235 474 238 475 q 189 429 204 456 l 188 421 m 465 707 l 150 707 l 150 831 l 465 831 l 465 707 z "},"Ŏ":{"ha":818,"x_min":63,"x_max":693,"o":"m 693 197 q 671 118 693 151 q 622 63 654 96 q 569 18 589 29 q 483 -7 529 -7 l 272 -7 q 186 18 226 -7 q 133 63 167 29 q 85 118 99 97 q 63 197 63 151 l 63 632 q 85 711 63 678 q 133 766 99 732 q 186 811 167 800 q 272 836 226 836 l 483 836 q 569 811 529 836 q 622 767 589 800 q 671 711 654 733 q 693 632 693 678 l 693 197 m 208 628 l 208 199 q 210 193 208 194 q 271 133 238 151 q 278 132 274 132 l 478 132 q 485 133 482 132 q 546 193 518 151 l 547 199 l 547 628 q 546 635 547 633 q 485 696 517 678 q 478 697 482 697 l 278 697 q 271 696 272 697 q 210 635 239 678 l 208 628 m 447 1046 l 528 1046 q 485 944 528 986 q 385 901 443 901 q 283 944 326 901 q 239 1046 239 986 l 319 1046 q 339 999 319 1018 q 385 979 358 979 q 429 999 411 979 q 447 1046 447 1018 z "},"ŏ":{"ha":672,"x_min":49,"x_max":563,"o":"m 563 175 q 539 90 563 122 q 472 22 514 53 q 371 -7 431 -7 l 240 -7 q 140 22 182 -7 q 103 56 125 33 q 72 90 81 78 q 49 175 49 122 l 49 425 q 72 510 49 478 q 140 576 94 543 q 240 607 183 607 l 371 607 q 472 576 429 607 q 539 510 515 544 q 563 425 563 478 l 563 175 m 188 421 l 188 168 q 233 126 188 153 q 242 125 236 125 l 369 125 q 378 128 372 125 q 424 168 422 153 l 424 421 q 422 429 424 425 q 376 474 406 457 q 369 475 374 475 l 242 475 q 235 474 238 475 q 189 429 204 456 l 188 421 m 369 828 l 450 828 q 408 726 450 768 q 307 683 365 683 q 205 726 249 683 q 161 828 161 768 l 242 828 q 261 781 242 800 q 307 761 281 761 q 351 781 333 761 q 369 828 369 800 z "},"Ő":{"ha":818,"x_min":63,"x_max":693,"o":"m 693 197 q 671 118 693 151 q 622 63 654 96 q 569 18 589 29 q 483 -7 529 -7 l 272 -7 q 186 18 226 -7 q 133 63 167 29 q 85 118 99 97 q 63 197 63 151 l 63 632 q 85 711 63 678 q 133 766 99 732 q 186 811 167 800 q 272 836 226 836 l 483 836 q 569 811 529 836 q 622 767 589 800 q 671 711 654 733 q 693 632 693 678 l 693 197 m 208 628 l 208 199 q 210 193 208 194 q 271 133 238 151 q 278 132 274 132 l 478 132 q 485 133 482 132 q 546 193 518 151 l 547 199 l 547 628 q 546 635 547 633 q 485 696 517 678 q 478 697 482 697 l 278 697 q 271 696 272 697 q 210 635 239 678 l 208 628 m 458 871 l 363 901 l 490 1067 l 621 1067 l 458 871 m 268 871 l 172 901 l 300 1067 l 431 1067 l 268 871 z "},"ő":{"ha":672,"x_min":49,"x_max":564,"o":"m 563 175 q 539 90 563 122 q 472 22 514 53 q 371 -7 431 -7 l 240 -7 q 140 22 182 -7 q 103 56 125 33 q 72 90 81 78 q 49 175 49 122 l 49 425 q 72 510 49 478 q 140 576 94 543 q 240 607 183 607 l 371 607 q 472 576 429 607 q 539 510 515 544 q 563 425 563 478 l 563 175 m 188 421 l 188 168 q 233 126 188 153 q 242 125 236 125 l 369 125 q 378 128 372 125 q 424 168 422 153 l 424 421 q 422 429 424 425 q 376 474 406 457 q 369 475 374 475 l 242 475 q 235 474 238 475 q 189 429 204 456 l 188 421 m 401 671 l 306 701 l 433 867 l 564 867 l 401 671 m 211 671 l 115 701 l 243 867 l 374 867 l 211 671 z "},"Œ":{"ha":1176,"x_min":63,"x_max":1043,"o":"m 1043 0 l 535 0 l 535 7 q 469 -7 500 -7 l 272 -7 q 186 18 226 -7 q 133 63 167 29 q 85 118 99 97 q 63 197 63 151 l 63 632 q 85 711 63 678 q 133 766 99 732 q 186 811 167 800 q 272 836 226 836 l 469 836 q 535 822 500 836 l 535 831 l 1043 831 l 1043 692 l 681 692 l 681 482 l 1017 482 l 1017 343 l 681 343 l 681 139 l 1043 139 l 1043 0 m 208 628 l 208 199 q 210 193 208 194 q 271 133 238 151 q 278 132 274 132 l 464 132 q 471 133 468 132 q 532 193 504 151 l 533 199 l 533 628 q 532 635 533 633 q 471 696 503 678 q 464 697 468 697 l 278 697 q 271 696 272 697 q 210 635 239 678 l 208 628 z "},"œ":{"ha":1086,"x_min":49,"x_max":939,"o":"m 563 175 l 564 169 q 591 138 574 153 q 618 122 608 122 l 753 122 q 804 161 771 122 q 808 167 808 165 l 938 128 q 898 72 928 104 q 849 25 868 39 q 749 -7 801 -7 l 618 -7 q 517 22 558 -7 q 494 40 506 29 q 472 22 478 26 q 371 -7 431 -7 l 240 -7 q 140 22 182 -7 q 103 56 125 33 q 72 90 81 78 q 49 175 49 122 l 49 425 q 72 510 49 478 q 140 576 94 543 q 240 607 183 607 l 371 607 q 472 576 429 607 q 483 567 475 574 q 494 557 490 561 q 517 576 499 563 q 618 607 560 607 l 746 607 q 847 576 804 607 q 914 510 890 544 q 939 425 939 476 l 939 229 l 563 229 l 563 175 m 186 421 l 186 168 q 233 125 186 153 q 242 124 236 124 l 369 124 q 378 126 372 124 q 424 167 419 150 l 424 175 l 424 424 l 422 425 q 422 429 422 428 q 376 474 406 457 q 369 475 374 475 l 242 475 q 235 474 238 475 q 188 429 203 454 l 186 421 m 800 360 l 800 422 q 799 431 800 429 q 753 474 783 456 q 744 475 750 475 l 618 475 q 591 460 608 475 q 564 431 574 446 q 563 426 563 429 l 563 425 l 563 360 l 800 360 m 807 167 q 808 167 808 168 l 807 167 z "},"Ŕ":{"ha":804,"x_min":61,"x_max":679,"o":"m 650 517 q 625 432 650 469 q 590 394 615 418 q 550 358 565 369 q 514 339 532 344 l 679 0 l 521 0 l 367 328 l 207 328 l 207 0 l 61 0 l 61 831 l 451 831 q 550 800 507 831 q 590 764 564 790 q 625 724 615 738 q 650 639 650 686 l 650 517 m 504 518 l 504 638 q 503 647 504 644 q 458 692 479 689 l 207 692 l 207 467 l 451 467 q 478 482 461 467 q 503 513 494 497 q 504 518 504 515 m 350 878 l 222 915 l 350 1081 l 514 1081 l 350 878 z "},"ŕ":{"ha":578,"x_min":46,"x_max":547,"o":"m 547 472 l 418 433 q 356 475 386 475 l 281 475 q 196 415 243 475 l 196 0 l 57 0 l 57 476 l 46 600 l 181 600 l 188 567 q 276 607 243 607 l 360 607 q 463 572 413 607 q 511 526 485 556 q 547 472 538 496 m 308 678 l 181 715 l 308 881 l 472 881 l 308 678 z "},"Ŗ":{"ha":804,"x_min":61,"x_max":679,"o":"m 453 -101 l 342 -275 l 185 -275 l 318 -61 l 453 -101 m 650 517 q 625 432 650 469 q 590 394 615 418 q 550 358 565 369 q 514 339 532 344 l 679 0 l 521 0 l 367 328 l 207 328 l 207 0 l 61 0 l 61 831 l 451 831 q 550 800 507 831 q 590 764 564 790 q 625 724 615 738 q 650 639 650 686 l 650 517 m 504 518 l 504 638 q 503 647 504 644 q 458 692 479 689 l 207 692 l 207 467 l 451 467 q 478 482 461 467 q 503 513 494 497 q 504 518 504 515 z "},"ŗ":{"ha":578,"x_min":46,"x_max":547,"o":"m 390 -101 l 279 -275 l 122 -275 l 256 -61 l 390 -101 m 547 472 l 418 433 q 356 475 386 475 l 281 475 q 196 415 243 475 l 196 0 l 57 0 l 57 476 l 46 600 l 181 600 l 188 567 q 276 607 243 607 l 360 607 q 463 572 413 607 q 511 526 485 556 q 547 472 538 496 z "},"Ř":{"ha":804,"x_min":61,"x_max":679,"o":"m 650 517 q 625 432 650 469 q 590 394 615 418 q 550 358 565 369 q 514 339 532 344 l 679 0 l 521 0 l 367 328 l 207 328 l 207 0 l 61 0 l 61 831 l 451 831 q 550 800 507 831 q 590 764 564 790 q 625 724 615 738 q 650 639 650 686 l 650 517 m 504 518 l 504 638 q 503 647 504 644 q 458 692 479 689 l 207 692 l 207 467 l 451 467 q 478 482 461 467 q 503 513 494 497 q 504 518 504 515 m 386 1067 l 535 1067 l 399 885 l 268 885 l 132 1067 l 281 1067 l 333 988 l 386 1067 z "},"ř":{"ha":578,"x_min":46,"x_max":547,"o":"m 547 472 l 418 433 q 356 475 386 475 l 281 475 q 196 415 243 475 l 196 0 l 57 0 l 57 476 l 46 600 l 181 600 l 188 567 q 276 607 243 607 l 360 607 q 463 572 413 607 q 511 526 485 556 q 547 472 538 496 m 342 867 l 490 867 l 354 685 l 224 685 l 88 867 l 236 867 l 289 788 l 342 867 z "},"Ś":{"ha":793,"x_min":22,"x_max":675,"o":"m 675 197 q 653 118 675 149 q 606 63 639 97 q 551 18 572 29 q 465 -7 507 -7 l 224 -7 q 47 108 133 -7 q 22 151 39 119 l 160 197 q 221 133 188 158 q 231 132 224 132 l 458 132 l 467 133 q 506 165 482 142 q 529 197 529 189 l 529 279 q 513 303 529 300 l 151 406 q 72 463 100 419 q 43 557 43 506 l 43 632 q 64 711 43 681 q 112 765 78 731 q 167 811 146 799 q 253 836 211 836 l 458 836 q 635 721 547 836 q 663 672 649 701 l 522 632 q 461 696 490 678 q 453 697 460 697 l 257 697 l 249 696 q 210 665 232 688 q 189 635 189 643 l 189 565 q 204 542 189 544 l 567 436 q 646 378 617 422 q 675 285 675 335 l 675 197 m 367 878 l 239 915 l 367 1081 l 531 1081 l 367 878 z "},"ś":{"ha":651,"x_min":19,"x_max":554,"o":"m 153 163 q 204 125 183 128 l 365 125 q 397 143 378 125 q 415 175 415 161 l 415 208 q 397 228 415 226 q 297 235 379 229 q 169 246 214 242 q 75 287 111 250 q 39 388 39 324 l 39 429 q 64 514 39 479 q 225 607 129 607 l 358 607 q 458 575 411 607 q 510 528 482 558 q 549 472 538 499 l 418 433 q 414 439 417 436 q 363 475 383 475 l 229 475 q 211 472 217 475 q 179 440 192 463 q 178 426 178 438 l 178 393 q 183 383 178 389 q 199 375 189 376 q 294 366 214 374 q 417 354 375 358 q 516 312 478 347 q 554 211 554 276 l 554 172 q 528 88 554 124 q 465 24 501 49 q 367 -7 422 -7 l 208 -7 q 108 26 157 -7 q 58 73 85 43 q 19 129 31 103 l 149 168 l 153 163 m 313 678 l 185 715 l 313 881 l 476 881 l 313 678 z "},"Ŝ":{"ha":793,"x_min":22,"x_max":675,"o":"m 675 197 q 653 118 675 149 q 606 63 639 97 q 551 18 572 29 q 465 -7 507 -7 l 224 -7 q 47 108 133 -7 q 22 151 39 119 l 160 197 q 221 133 188 158 q 231 132 224 132 l 458 132 l 467 133 q 506 165 482 142 q 529 197 529 189 l 529 279 q 513 303 529 300 l 151 406 q 72 463 100 419 q 43 557 43 506 l 43 632 q 64 711 43 681 q 112 765 78 731 q 167 811 146 799 q 253 836 211 836 l 458 836 q 635 721 547 836 q 663 672 649 701 l 522 632 q 461 696 490 678 q 453 697 460 697 l 257 697 l 249 696 q 210 665 232 688 q 189 635 189 643 l 189 565 q 204 542 189 544 l 567 436 q 646 378 617 422 q 675 285 675 335 l 675 197 m 315 885 l 167 885 l 303 1067 l 433 1067 l 569 885 l 421 885 l 368 957 l 315 885 z "},"ŝ":{"ha":651,"x_min":19,"x_max":554,"o":"m 247 685 l 99 685 l 235 867 l 365 867 l 501 685 l 353 685 l 300 757 l 247 685 m 153 163 q 204 125 183 128 l 365 125 q 397 143 378 125 q 415 175 415 161 l 415 208 q 397 228 415 226 q 297 235 379 229 q 169 246 214 242 q 75 287 111 250 q 39 388 39 324 l 39 429 q 64 514 39 479 q 225 607 129 607 l 358 607 q 458 575 411 607 q 510 528 482 558 q 549 472 538 499 l 418 433 q 414 439 417 436 q 363 475 383 475 l 229 475 q 211 472 217 475 q 179 440 192 463 q 178 426 178 438 l 178 393 q 183 383 178 389 q 199 375 189 376 q 294 366 214 374 q 417 354 375 358 q 516 312 478 347 q 554 211 554 276 l 554 172 q 528 88 554 124 q 465 24 501 49 q 367 -7 422 -7 l 208 -7 q 108 26 157 -7 q 58 73 85 43 q 19 129 31 103 l 149 168 l 153 163 z "},"Ş":{"ha":793,"x_min":22,"x_max":675,"o":"m 467 -101 l 356 -275 l 199 -275 l 332 -61 l 467 -101 m 675 197 q 653 118 675 149 q 606 63 639 97 q 551 18 572 29 q 465 -7 507 -7 l 224 -7 q 47 108 133 -7 q 22 151 39 119 l 160 197 q 221 133 188 158 q 231 132 224 132 l 458 132 l 467 133 q 506 165 482 142 q 529 197 529 189 l 529 279 q 513 303 529 300 l 151 406 q 72 463 100 419 q 43 557 43 506 l 43 632 q 64 711 43 681 q 112 765 78 731 q 167 811 146 799 q 253 836 211 836 l 458 836 q 635 721 547 836 q 663 672 649 701 l 522 632 q 461 696 490 678 q 453 697 460 697 l 257 697 l 249 696 q 210 665 232 688 q 189 635 189 643 l 189 565 q 204 542 189 544 l 567 436 q 646 378 617 422 q 675 285 675 335 l 675 197 z "},"ş":{"ha":651,"x_min":19,"x_max":554,"o":"m 411 -101 l 300 -275 l 143 -275 l 276 -61 l 411 -101 m 153 163 q 204 125 183 128 l 365 125 q 397 143 378 125 q 415 175 415 161 l 415 208 q 397 228 415 226 q 297 235 379 229 q 169 246 214 242 q 75 287 111 250 q 39 388 39 324 l 39 429 q 64 514 39 479 q 225 607 129 607 l 358 607 q 458 575 411 607 q 510 528 482 558 q 549 472 538 499 l 418 433 q 414 439 417 436 q 363 475 383 475 l 229 475 q 211 472 217 475 q 179 440 192 463 q 178 426 178 438 l 178 393 q 183 383 178 389 q 199 375 189 376 q 294 366 214 374 q 417 354 375 358 q 516 312 478 347 q 554 211 554 276 l 554 172 q 528 88 554 124 q 465 24 501 49 q 367 -7 422 -7 l 208 -7 q 108 26 157 -7 q 58 73 85 43 q 19 129 31 103 l 149 168 l 153 163 z "},"Š":{"ha":793,"x_min":22,"x_max":675,"o":"m 675 197 q 653 118 675 149 q 606 63 639 97 q 551 18 572 29 q 465 -7 507 -7 l 224 -7 q 47 108 133 -7 q 22 151 39 119 l 160 197 q 221 133 188 158 q 231 132 224 132 l 458 132 l 467 133 q 506 165 482 142 q 529 197 529 189 l 529 279 q 513 303 529 300 l 151 406 q 72 463 100 419 q 43 557 43 506 l 43 632 q 64 711 43 681 q 112 765 78 731 q 167 811 146 799 q 253 836 211 836 l 458 836 q 635 721 547 836 q 663 672 649 701 l 522 632 q 461 696 490 678 q 453 697 460 697 l 257 697 l 249 696 q 210 665 232 688 q 189 635 189 643 l 189 565 q 204 542 189 544 l 567 436 q 646 378 617 422 q 675 285 675 335 l 675 197 m 404 1067 l 553 1067 l 417 885 l 286 885 l 150 1067 l 299 1067 l 351 988 l 404 1067 z "},"š":{"ha":651,"x_min":19,"x_max":554,"o":"m 350 867 l 499 867 l 363 685 l 232 685 l 96 867 l 244 867 l 297 788 l 350 867 m 153 163 q 204 125 183 128 l 365 125 q 397 143 378 125 q 415 175 415 161 l 415 208 q 397 228 415 226 q 297 235 379 229 q 169 246 214 242 q 75 287 111 250 q 39 388 39 324 l 39 429 q 64 514 39 479 q 225 607 129 607 l 358 607 q 458 575 411 607 q 510 528 482 558 q 549 472 538 499 l 418 433 q 414 439 417 436 q 363 475 383 475 l 229 475 q 211 472 217 475 q 179 440 192 463 q 178 426 178 438 l 178 393 q 183 383 178 389 q 199 375 189 376 q 294 366 214 374 q 417 354 375 358 q 516 312 478 347 q 554 211 554 276 l 554 172 q 528 88 554 124 q 465 24 501 49 q 367 -7 422 -7 l 208 -7 q 108 26 157 -7 q 58 73 85 43 q 19 129 31 103 l 149 168 l 153 163 z "},"Ţ":{"ha":707,"x_min":17,"x_max":613,"o":"m 438 -101 l 326 -275 l 169 -275 l 303 -61 l 438 -101 m 613 692 l 388 692 l 388 0 l 242 0 l 242 692 l 17 692 l 17 831 l 613 831 l 613 692 z "},"ţ":{"ha":494,"x_min":0,"x_max":404,"o":"m 386 -101 l 275 -275 l 118 -275 l 251 -61 l 386 -101 m 232 468 l 232 186 q 233 178 232 181 q 258 148 242 164 q 288 132 275 132 l 403 132 l 403 0 l 286 0 q 186 29 228 0 q 119 97 151 53 q 93 185 93 136 l 93 468 l 0 468 l 0 600 l 93 600 l 93 831 l 232 831 l 232 600 l 404 600 l 404 468 l 232 468 z "},"Ť":{"ha":707,"x_min":24,"x_max":619,"o":"m 619 692 l 394 692 l 394 0 l 249 0 l 249 692 l 24 692 l 24 831 l 619 831 l 619 692 m 368 1067 l 517 1067 l 381 885 l 250 885 l 114 1067 l 263 1067 l 315 988 l 368 1067 z "},"ť":{"ha":689,"x_min":0,"x_max":664,"o":"m 664 694 l 653 600 l 515 600 l 528 713 l 528 889 l 664 889 l 664 694 m 232 468 l 232 186 q 233 178 232 181 q 258 148 242 164 q 288 132 275 132 l 389 132 l 389 0 l 286 0 q 186 29 228 0 q 119 97 151 53 q 93 185 93 136 l 93 468 l 0 468 l 0 600 l 93 600 l 93 831 l 232 831 l 232 600 l 404 600 l 404 468 l 232 468 z "},"Ŧ":{"ha":707,"x_min":24,"x_max":619,"o":"m 518 344 l 394 344 l 394 0 l 249 0 l 249 344 l 114 344 l 114 476 l 249 476 l 249 693 l 24 693 l 24 831 l 619 831 l 619 693 l 394 693 l 394 476 l 518 476 l 518 344 z "},"ŧ":{"ha":494,"x_min":-1,"x_max":404,"o":"m 403 274 l 232 274 l 232 186 q 233 178 232 181 q 258 148 242 164 q 288 132 275 132 l 403 132 l 403 0 l 286 0 q 186 29 228 0 q 119 97 151 53 q 93 185 93 136 l 93 274 l -1 274 l -1 406 l 93 406 l 93 468 l 0 468 l 0 600 l 93 600 l 93 831 l 232 831 l 232 600 l 404 600 l 404 468 l 232 468 l 232 406 l 403 406 l 403 274 z "},"Ũ":{"ha":771,"x_min":49,"x_max":643,"o":"m 497 831 l 497 199 q 496 193 497 196 q 436 133 468 150 q 429 132 433 132 l 264 132 q 257 133 260 132 q 196 193 225 150 l 194 200 l 194 831 l 49 831 l 49 197 q 71 118 49 151 q 119 63 85 97 q 172 18 153 29 q 258 -7 213 -7 l 435 -7 q 519 18 479 -7 q 573 63 540 29 q 621 118 606 97 q 643 197 643 151 l 643 831 l 497 831 m 569 922 l 458 890 q 431 922 450 911 q 401 929 413 933 l 311 900 q 201 913 257 882 q 117 1013 144 943 l 235 1042 q 258 1013 243 1021 q 283 1007 272 1004 l 378 1036 q 488 1024 433 1054 q 569 922 542 993 z "},"ũ":{"ha":678,"x_min":43,"x_max":569,"o":"m 569 0 l 433 0 l 428 35 q 340 -6 372 -6 l 236 -6 q 135 24 176 -6 q 68 92 93 54 q 43 176 43 125 l 43 600 l 182 600 l 182 179 q 183 169 182 172 q 229 128 194 150 q 238 126 232 126 l 336 126 q 375 147 346 126 q 418 182 404 167 l 418 600 l 557 600 l 557 124 l 569 0 m 521 722 l 410 690 q 383 722 401 711 q 353 729 364 733 l 263 700 q 152 713 208 682 q 68 813 96 743 l 186 842 q 209 813 194 821 q 235 807 224 804 l 329 836 q 439 824 385 854 q 521 722 493 793 z "},"Ū":{"ha":771,"x_min":49,"x_max":643,"o":"m 497 831 l 497 199 q 496 193 497 196 q 436 133 468 150 q 429 132 433 132 l 264 132 q 257 133 260 132 q 196 193 225 150 l 194 200 l 194 831 l 49 831 l 49 197 q 71 118 49 151 q 119 63 85 97 q 172 18 153 29 q 258 -7 213 -7 l 435 -7 q 519 18 479 -7 q 573 63 540 29 q 621 118 606 97 q 643 197 643 151 l 643 831 l 497 831 m 500 908 l 185 908 l 185 1046 l 500 1046 l 500 908 z "},"ū":{"ha":678,"x_min":43,"x_max":569,"o":"m 569 0 l 433 0 l 428 35 q 340 -6 372 -6 l 236 -6 q 135 24 176 -6 q 68 92 93 54 q 43 176 43 125 l 43 600 l 182 600 l 182 179 q 183 169 182 172 q 229 128 194 150 q 238 126 232 126 l 336 126 q 375 147 346 126 q 418 182 404 167 l 418 600 l 557 600 l 557 124 l 569 0 m 461 693 l 146 693 l 146 831 l 461 831 l 461 693 z "},"Ŭ":{"ha":771,"x_min":49,"x_max":643,"o":"m 497 199 l 497 831 l 643 831 l 643 197 q 621 118 643 151 q 573 63 606 97 q 519 18 540 29 q 435 -7 479 -7 l 258 -7 q 172 18 213 -7 q 119 63 153 29 q 71 118 85 97 q 49 197 49 151 l 49 831 l 194 831 l 194 200 q 196 193 194 194 q 257 133 225 150 l 264 132 l 429 132 q 436 133 433 132 q 496 193 468 150 l 497 199 m 411 1043 l 492 1043 q 449 941 492 983 q 349 899 407 899 q 247 941 290 899 q 203 1043 203 983 l 283 1043 q 303 996 283 1015 q 349 976 322 976 q 393 996 375 976 q 411 1043 411 1015 z "},"ŭ":{"ha":678,"x_min":43,"x_max":569,"o":"m 569 0 l 433 0 l 428 35 q 340 -6 372 -6 l 236 -6 q 135 24 176 -6 q 68 92 93 54 q 43 176 43 125 l 43 600 l 182 600 l 182 179 q 183 169 182 172 q 229 128 194 150 q 238 126 232 126 l 336 126 q 375 147 346 126 q 418 182 404 167 l 418 600 l 557 600 l 557 124 l 569 0 m 365 828 l 446 828 q 403 726 446 768 q 303 683 361 683 q 201 726 244 683 q 157 828 157 768 l 238 828 q 257 781 238 800 q 303 761 276 761 q 347 781 329 761 q 365 828 365 800 z "},"Ů":{"ha":771,"x_min":49,"x_max":643,"o":"m 497 831 l 497 199 q 496 193 497 196 q 436 133 468 150 q 429 132 433 132 l 264 132 q 257 133 260 132 q 196 193 225 150 l 194 200 l 194 831 l 49 831 l 49 197 q 71 118 49 151 q 119 63 85 97 q 172 18 153 29 q 258 -7 213 -7 l 435 -7 q 519 18 479 -7 q 573 63 540 29 q 621 118 606 97 q 643 197 643 151 l 643 831 l 497 831 m 489 1028 q 447 926 489 968 q 346 883 404 883 q 244 926 288 883 q 200 1028 200 968 q 244 1127 200 1085 q 346 1169 288 1169 q 447 1127 404 1169 q 489 1028 489 1085 m 408 1028 q 390 1072 408 1053 q 346 1090 372 1090 q 300 1072 319 1090 q 281 1028 281 1053 q 300 981 281 1000 q 346 961 319 961 q 390 981 372 961 q 408 1028 408 1000 z "},"ů":{"ha":678,"x_min":43,"x_max":569,"o":"m 569 0 l 433 0 l 428 35 q 340 -6 372 -6 l 236 -6 q 135 24 176 -6 q 68 92 93 54 q 43 176 43 125 l 43 600 l 182 600 l 182 179 q 183 169 182 172 q 229 128 194 150 q 238 126 232 126 l 336 126 q 375 147 346 126 q 418 182 404 167 l 418 600 l 557 600 l 557 124 l 569 0 m 443 828 q 401 726 443 768 q 300 683 358 683 q 198 726 242 683 q 154 828 154 768 q 198 927 154 885 q 300 969 242 969 q 401 927 358 969 q 443 828 443 885 m 363 828 q 344 872 363 853 q 300 890 326 890 q 254 872 274 890 q 235 828 235 853 q 254 781 235 800 q 300 761 274 761 q 344 781 326 761 q 363 828 363 800 z "},"Ű":{"ha":771,"x_min":49,"x_max":643,"o":"m 497 831 l 497 199 q 496 193 497 196 q 436 133 468 150 q 429 132 433 132 l 264 132 q 257 133 260 132 q 196 193 225 150 l 194 200 l 194 831 l 49 831 l 49 197 q 71 118 49 151 q 119 63 85 97 q 172 18 153 29 q 258 -7 213 -7 l 435 -7 q 519 18 479 -7 q 573 63 540 29 q 621 118 606 97 q 643 197 643 151 l 643 831 l 497 831 m 388 871 l 292 901 l 419 1067 l 550 1067 l 388 871 m 197 871 l 101 901 l 229 1067 l 360 1067 l 197 871 z "},"ű":{"ha":678,"x_min":43,"x_max":569,"o":"m 569 0 l 433 0 l 428 35 q 340 -6 372 -6 l 236 -6 q 135 24 176 -6 q 68 92 93 54 q 43 176 43 125 l 43 600 l 182 600 l 182 179 q 183 169 182 172 q 229 128 194 150 q 238 126 232 126 l 336 126 q 375 147 346 126 q 418 182 404 167 l 418 600 l 557 600 l 557 124 l 569 0 m 385 671 l 289 701 l 417 867 l 547 867 l 385 671 m 194 671 l 99 701 l 226 867 l 357 867 l 194 671 z "},"Ų":{"ha":771,"x_min":49,"x_max":643,"o":"m 329 -275 l 218 -101 l 353 -61 l 486 -275 l 329 -275 m 497 199 l 497 831 l 643 831 l 643 197 q 621 118 643 151 q 573 63 606 97 q 519 18 540 29 q 435 -7 479 -7 l 258 -7 q 172 18 213 -7 q 119 63 153 29 q 71 118 85 97 q 49 197 49 151 l 49 831 l 194 831 l 194 200 q 196 193 194 194 q 257 133 225 150 l 264 132 l 429 132 q 436 133 433 132 q 496 193 468 150 l 497 199 z "},"ų":{"ha":678,"x_min":43,"x_max":569,"o":"m 282 -275 l 171 -101 l 306 -61 l 439 -275 l 282 -275 m 569 0 l 433 0 l 428 35 q 340 -6 372 -6 l 236 -6 q 135 24 176 -6 q 68 92 93 54 q 43 176 43 125 l 43 600 l 182 600 l 182 179 q 183 169 182 172 q 229 128 194 150 q 238 126 232 126 l 336 126 q 375 147 346 126 q 418 182 404 167 l 418 600 l 557 600 l 557 124 l 569 0 z "},"Ŵ":{"ha":1025,"x_min":-8,"x_max":975,"o":"m 975 831 l 782 0 l 617 0 l 483 557 l 349 0 l 182 0 l -8 831 l 142 831 l 267 247 l 404 831 l 560 831 l 697 247 l 821 831 l 975 831 m 433 885 l 285 885 l 421 1067 l 551 1067 l 688 885 l 539 885 l 486 957 l 433 885 z "},"ŵ":{"ha":931,"x_min":-11,"x_max":869,"o":"m 869 600 l 683 0 l 542 0 l 429 376 l 314 0 l 172 0 l -11 600 l 136 600 l 247 213 l 357 600 l 503 600 l 610 213 l 724 600 l 869 600 m 385 685 l 236 685 l 372 867 l 503 867 l 639 685 l 490 685 l 438 757 l 385 685 z "},"Ŷ":{"ha":722,"x_min":-24,"x_max":669,"o":"m 669 831 l 394 363 l 394 0 l 249 0 l 249 363 l -24 831 l 138 831 l 322 515 l 507 831 l 669 831 m 269 885 l 121 885 l 257 1067 l 388 1067 l 524 885 l 375 885 l 322 957 l 269 885 z "},"ŷ":{"ha":597,"x_min":6,"x_max":590,"o":"m 590 600 l 296 -225 l 156 -225 l 239 0 l 226 0 l 6 600 l 161 600 l 301 193 l 443 600 l 590 600 m 247 685 l 99 685 l 235 867 l 365 867 l 501 685 l 353 685 l 300 757 l 247 685 z "},"Ÿ":{"ha":722,"x_min":-24,"x_max":669,"o":"m 669 831 l 394 363 l 394 0 l 249 0 l 249 363 l -24 831 l 138 831 l 322 515 l 507 831 l 669 831 m 501 906 l 367 906 l 367 1049 l 501 1049 l 501 906 m 278 906 l 143 906 l 143 1049 l 278 1049 l 278 906 z "},"Ź":{"ha":682,"x_min":40,"x_max":588,"o":"m 588 0 l 40 0 l 40 118 l 406 692 l 40 692 l 40 831 l 588 831 l 588 710 l 228 139 l 588 139 l 588 0 m 338 878 l 210 915 l 338 1081 l 501 1081 l 338 878 z "},"ź":{"ha":617,"x_min":38,"x_max":526,"o":"m 526 0 l 49 0 l 49 113 l 325 468 l 38 468 l 38 600 l 513 600 l 513 486 l 235 132 l 526 132 l 526 0 m 313 678 l 185 715 l 313 881 l 476 881 l 313 678 z "},"Ż":{"ha":682,"x_min":40,"x_max":588,"o":"m 588 0 l 40 0 l 40 118 l 406 692 l 40 692 l 40 831 l 588 831 l 588 710 l 228 139 l 588 139 l 588 0 m 389 886 l 240 886 l 240 1035 l 389 1035 l 389 886 z "},"ż":{"ha":617,"x_min":38,"x_max":526,"o":"m 526 0 l 49 0 l 49 113 l 325 468 l 38 468 l 38 600 l 513 600 l 513 486 l 235 132 l 526 132 l 526 0 m 369 686 l 221 686 l 221 835 l 369 835 l 369 686 z "},"Ž":{"ha":682,"x_min":40,"x_max":588,"o":"m 588 0 l 40 0 l 40 118 l 406 692 l 40 692 l 40 831 l 588 831 l 588 710 l 228 139 l 588 139 l 588 0 m 361 1067 l 510 1067 l 374 885 l 243 885 l 107 1067 l 256 1067 l 308 988 l 361 1067 z "},"ž":{"ha":617,"x_min":38,"x_max":526,"o":"m 526 0 l 49 0 l 49 113 l 325 468 l 38 468 l 38 600 l 513 600 l 513 486 l 235 132 l 526 132 l 526 0 m 332 867 l 481 867 l 344 685 l 214 685 l 78 867 l 226 867 l 279 788 l 332 867 z "},"ſ":{"ha":472,"x_min":24,"x_max":426,"o":"m 256 661 l 256 0 l 117 0 l 117 468 l 24 468 l 24 600 l 117 600 l 117 653 q 142 739 117 706 q 208 806 172 781 q 310 836 251 836 l 426 836 l 426 704 l 311 704 q 299 703 300 704 q 272 683 286 696 q 256 661 257 669 z "},"ƒ":{"ha":465,"x_min":-53,"x_max":426,"o":"m -53 -97 l 63 -97 q 71 -96 68 -97 q 114 -49 100 -78 q 115 -42 115 -47 l 115 468 l 24 468 l 24 600 l 115 600 l 115 647 q 142 733 118 701 q 208 800 172 775 q 310 831 251 831 l 426 831 l 426 699 l 311 699 q 299 697 300 699 q 271 677 286 690 q 254 656 256 664 l 254 644 l 254 600 l 351 600 l 351 468 l 254 468 l 254 -44 q 231 -132 254 -97 q 163 -200 200 -175 q 64 -229 121 -229 l -53 -229 l -53 -97 z "},"Ș":{"ha":793,"x_min":22,"x_max":675,"o":"m 492 -125 l 381 -299 l 224 -299 l 357 -85 l 492 -125 m 675 197 q 653 118 675 149 q 606 63 639 97 q 551 18 572 29 q 465 -7 507 -7 l 224 -7 q 47 108 133 -7 q 22 151 39 119 l 160 197 q 221 133 188 158 q 231 132 224 132 l 458 132 l 467 133 q 506 165 482 142 q 529 197 529 189 l 529 279 q 513 303 529 300 l 151 406 q 72 463 100 419 q 43 557 43 506 l 43 632 q 64 711 43 681 q 112 765 78 731 q 167 811 146 799 q 253 836 211 836 l 458 836 q 635 721 547 836 q 663 672 649 701 l 522 632 q 461 696 490 678 q 453 697 460 697 l 257 697 l 249 696 q 210 665 232 688 q 189 635 189 643 l 189 565 q 204 542 189 544 l 567 436 q 646 378 617 422 q 675 285 675 335 l 675 197 z "},"ș":{"ha":651,"x_min":19,"x_max":554,"o":"m 411 -101 l 300 -275 l 143 -275 l 276 -61 l 411 -101 m 153 163 q 204 125 183 128 l 365 125 q 397 143 378 125 q 415 175 415 161 l 415 208 q 397 228 415 226 q 297 235 379 229 q 169 246 214 242 q 75 287 111 250 q 39 388 39 324 l 39 429 q 64 514 39 479 q 225 607 129 607 l 358 607 q 458 575 411 607 q 510 528 482 558 q 549 472 538 499 l 418 433 q 414 439 417 436 q 363 475 383 475 l 229 475 q 211 472 217 475 q 179 440 192 463 q 178 426 178 438 l 178 393 q 183 383 178 389 q 199 375 189 376 q 294 366 214 374 q 417 354 375 358 q 516 312 478 347 q 554 211 554 276 l 554 172 q 528 88 554 124 q 465 24 501 49 q 367 -7 422 -7 l 208 -7 q 108 26 157 -7 q 58 73 85 43 q 19 129 31 103 l 149 168 l 153 163 z "},"ˆ":{"ha":589,"x_min":92,"x_max":494,"o":"m 240 685 l 92 685 l 228 867 l 358 867 l 494 685 l 346 685 l 293 757 l 240 685 z "},"ˇ":{"ha":589,"x_min":78,"x_max":481,"o":"m 332 867 l 481 867 l 344 685 l 214 685 l 78 867 l 226 867 l 279 788 l 332 867 z "},"˘":{"ha":494,"x_min":85,"x_max":374,"o":"m 293 828 l 374 828 q 331 726 374 768 q 231 683 289 683 q 128 726 172 683 q 85 828 85 768 l 165 828 q 185 781 165 800 q 231 761 204 761 q 275 781 257 761 q 293 828 293 800 z "},"˙":{"ha":300,"x_min":57,"x_max":206,"o":"m 206 686 l 57 686 l 57 835 l 206 835 l 206 686 z "},"˚":{"ha":683,"x_min":85,"x_max":374,"o":"m 374 828 q 331 726 374 768 q 231 683 289 683 q 128 726 172 683 q 85 828 85 768 q 128 927 85 885 q 231 969 172 969 q 331 927 289 969 q 374 828 374 885 m 293 828 q 275 872 293 853 q 231 890 257 890 q 185 872 204 890 q 165 828 165 853 q 185 781 165 800 q 231 761 204 761 q 275 781 257 761 q 293 828 293 800 z "},"˛":{"ha":564,"x_min":157,"x_max":425,"o":"m 268 -275 l 157 -101 l 292 -61 l 425 -275 l 268 -275 z "},"˜":{"ha":642,"x_min":68,"x_max":521,"o":"m 521 722 l 410 690 q 383 722 401 711 q 353 729 364 733 l 263 700 q 152 713 208 682 q 68 813 96 743 l 186 842 q 209 813 194 821 q 235 807 224 804 l 329 836 q 439 824 385 854 q 521 722 493 793 z "},"˝":{"ha":515,"x_min":207,"x_max":656,"o":"m 493 671 l 397 701 l 525 867 l 656 867 l 493 671 m 303 671 l 207 701 l 335 867 l 465 867 l 303 671 z "},"π":{"ha":883,"x_min":40,"x_max":771,"o":"m 147 468 l 40 468 l 40 600 l 771 600 l 771 468 l 661 468 l 661 118 l 676 0 l 536 0 l 522 103 l 522 468 l 286 468 l 286 0 l 147 0 l 147 468 z "},"Ё":{"ha":717,"x_min":61,"x_max":583,"o":"m 583 0 l 61 0 l 61 831 l 583 831 l 583 692 l 207 692 l 207 482 l 561 482 l 561 343 l 207 343 l 207 139 l 583 139 l 583 0 m 510 907 l 375 907 l 375 1050 l 510 1050 l 510 907 m 286 907 l 151 907 l 151 1050 l 286 1050 l 286 907 z "},"Ђ":{"ha":843,"x_min":24,"x_max":728,"o":"m 419 125 l 535 125 l 543 126 q 588 174 574 146 q 589 181 589 178 l 589 421 l 588 428 q 543 474 571 456 q 535 475 542 475 l 439 475 q 398 453 426 475 q 356 414 369 432 l 356 0 l 210 0 l 210 692 l 24 692 l 24 831 l 542 831 l 542 692 l 356 692 l 356 575 q 436 607 406 607 l 536 607 q 636 576 594 607 q 703 508 671 553 q 728 424 728 472 l 728 178 q 703 90 728 126 q 635 22 672 47 q 536 -7 593 -7 l 419 -7 l 419 125 z "},"Ѓ":{"ha":667,"x_min":61,"x_max":575,"o":"m 61 831 l 575 831 l 575 692 l 207 692 l 207 0 l 61 0 l 61 831 m 379 908 l 251 946 l 379 1111 l 543 1111 l 379 908 z "},"Є":{"ha":771,"x_min":61,"x_max":653,"o":"m 207 351 l 207 186 l 208 179 q 235 147 218 163 q 260 132 251 132 l 436 132 q 443 133 440 132 q 476 160 456 139 q 511 204 496 182 l 653 167 q 618 107 644 143 q 440 -7 531 -7 l 258 -7 q 161 24 204 -7 q 122 60 147 33 q 86 100 96 86 q 61 185 61 138 l 61 643 q 86 728 61 690 q 122 768 96 742 q 161 804 147 794 q 258 835 204 835 l 440 835 q 618 721 528 835 q 651 661 633 699 l 510 622 q 481 665 503 644 q 442 693 460 685 l 436 694 l 260 694 q 234 680 250 694 q 208 649 218 665 q 207 642 207 646 l 207 489 l 454 489 l 454 351 l 207 351 z "},"Ѕ":{"ha":793,"x_min":22,"x_max":675,"o":"m 675 197 q 653 118 675 149 q 606 63 639 97 q 551 18 572 29 q 465 -7 507 -7 l 224 -7 q 47 108 133 -7 q 22 151 39 119 l 160 197 q 221 133 188 158 q 231 132 224 132 l 458 132 l 467 133 q 506 165 482 142 q 529 197 529 189 l 529 279 q 513 303 529 300 l 151 406 q 72 463 100 419 q 43 557 43 506 l 43 632 q 64 711 43 681 q 112 765 78 731 q 167 811 146 799 q 253 836 211 836 l 458 836 q 635 721 547 836 q 663 672 649 701 l 522 632 q 461 696 490 678 q 453 697 460 697 l 257 697 l 249 696 q 210 665 232 688 q 189 635 189 643 l 189 565 q 204 542 189 544 l 567 436 q 646 378 617 422 q 675 285 675 335 l 675 197 z "},"І":{"ha":346,"x_min":61,"x_max":207,"o":"m 207 0 l 61 0 l 61 831 l 207 831 l 207 0 z "},"Ї":{"ha":346,"x_min":-49,"x_max":310,"o":"m 310 907 l 175 907 l 175 1050 l 310 1050 l 310 907 m 86 907 l -49 907 l -49 1050 l 86 1050 l 86 907 m 207 0 l 61 0 l 61 831 l 207 831 l 207 0 z "},"Ј":{"ha":656,"x_min":-4,"x_max":513,"o":"m 513 196 q 489 117 513 153 q 442 63 474 96 q 390 18 410 29 q 304 -7 347 -7 l 201 -7 q 24 108 110 -7 q -4 161 15 121 l 136 199 q 192 133 158 150 q 203 132 193 132 l 297 132 q 335 160 304 131 q 367 197 367 190 l 367 831 l 513 831 l 513 196 z "},"Љ":{"ha":1254,"x_min":-47,"x_max":1132,"o":"m 1108 376 q 1132 293 1132 342 l 1132 189 q 1108 106 1132 140 q 1075 67 1100 93 q 1035 31 1050 40 q 938 0 993 0 l 544 0 l 544 690 l 263 690 l 263 196 q 239 117 263 153 q 192 63 224 96 q 140 18 160 29 q 54 -7 97 -7 l -47 -7 l -47 132 l 47 132 q 85 160 54 131 q 117 197 117 190 l 117 831 l 690 831 l 690 482 l 938 482 q 1035 451 989 482 q 1077 414 1051 440 q 1108 376 1103 388 m 985 183 q 986 193 986 188 l 986 293 l 985 300 q 960 332 975 317 q 935 347 944 347 l 690 347 l 690 138 l 936 138 q 962 153 946 138 q 985 183 978 168 z "},"Њ":{"ha":1219,"x_min":61,"x_max":1097,"o":"m 1074 376 q 1097 293 1097 342 l 1097 189 q 1074 106 1097 140 q 1040 67 1065 93 q 1000 31 1015 40 q 903 0 958 0 l 510 0 l 510 343 l 207 343 l 207 0 l 61 0 l 61 831 l 207 831 l 207 482 l 510 482 l 510 831 l 656 831 l 656 482 l 903 482 q 1000 451 954 482 q 1042 414 1017 440 q 1074 376 1068 388 m 950 182 q 951 192 951 186 l 951 292 l 950 299 q 925 331 940 315 q 900 346 910 346 l 656 346 l 656 136 l 901 136 q 927 151 911 136 q 950 182 943 167 z "},"Ћ":{"ha":843,"x_min":24,"x_max":728,"o":"m 589 0 l 589 421 l 588 428 q 543 474 571 456 q 535 475 542 475 l 439 475 q 398 453 426 475 q 356 414 369 432 l 356 0 l 210 0 l 210 692 l 24 692 l 24 831 l 542 831 l 542 692 l 356 692 l 356 575 q 436 607 406 607 l 536 607 q 636 576 594 607 q 703 508 671 553 q 728 424 728 472 l 728 0 l 589 0 z "},"Ќ":{"ha":725,"x_min":61,"x_max":689,"o":"m 689 0 l 510 0 l 240 347 l 207 347 l 207 0 l 61 0 l 61 831 l 207 831 l 207 485 l 239 485 q 374 658 288 542 q 508 831 461 775 l 688 831 l 365 417 q 527 208 417 356 q 689 0 638 61 m 408 908 l 281 946 l 408 1111 l 572 1111 l 408 908 z "},"Ў":{"ha":722,"x_min":-14,"x_max":658,"o":"m 385 1058 l 465 1058 q 423 956 465 999 q 322 914 381 914 q 220 956 264 914 q 176 1058 176 999 l 257 1058 q 276 1011 257 1031 q 322 992 296 992 q 367 1011 349 992 q 385 1058 385 1031 m 658 831 l 315 0 l 174 0 l 261 221 l 232 221 l -14 831 l 142 831 l 321 374 l 508 831 l 658 831 z "},"Џ":{"ha":776,"x_min":61,"x_max":638,"o":"m 415 -131 l 279 -131 l 279 0 l 61 0 l 61 831 l 207 831 l 207 139 l 492 139 l 492 831 l 638 831 l 638 0 l 415 0 l 415 -131 z "},"А":{"ha":763,"x_min":-33,"x_max":715,"o":"m 715 0 l 560 0 l 499 176 l 183 176 l 122 0 l -33 0 l 257 831 l 426 831 l 715 0 m 453 315 l 342 643 l 229 315 l 453 315 z "},"Б":{"ha":771,"x_min":61,"x_max":649,"o":"m 625 376 q 649 293 649 342 l 649 189 q 625 106 649 140 q 592 67 617 93 q 551 31 567 40 q 454 0 510 0 l 61 0 l 61 831 l 571 831 l 571 692 l 207 692 l 207 482 l 454 482 q 551 451 506 482 q 594 414 568 440 q 625 376 619 388 m 501 185 q 503 194 503 189 l 503 293 l 501 300 q 476 332 492 317 q 451 347 461 347 l 207 347 l 207 139 l 453 139 q 478 154 463 139 q 501 185 494 169 z "},"В":{"ha":771,"x_min":61,"x_max":649,"o":"m 649 189 q 625 106 649 140 q 590 66 615 92 q 551 31 565 40 q 451 0 508 0 l 61 0 l 61 831 l 451 831 q 551 799 506 831 q 590 763 565 789 q 625 724 615 738 q 649 638 649 689 l 649 535 q 594 414 649 468 q 649 294 649 360 l 649 189 m 501 528 q 503 538 503 531 l 503 638 l 501 644 q 476 677 492 661 q 450 693 460 693 l 207 693 l 207 482 l 451 482 q 478 497 461 482 q 501 528 494 513 m 501 185 q 503 194 503 189 l 503 293 l 501 300 q 476 332 492 317 q 450 347 460 347 l 207 347 l 207 139 l 451 139 q 478 154 461 139 q 501 185 494 169 z "},"Г":{"ha":667,"x_min":61,"x_max":575,"o":"m 61 831 l 575 831 l 575 692 l 207 692 l 207 0 l 61 0 l 61 831 z "},"Д":{"ha":822,"x_min":-21,"x_max":732,"o":"m 94 203 l 167 831 l 665 831 l 665 138 l 732 138 l 704 -112 l 558 -112 l 571 0 l 122 0 l 122 -112 l -21 -112 l -21 138 l 25 138 q 63 166 32 136 q 94 203 94 196 m 299 692 l 239 190 q 213 138 236 167 l 521 138 l 521 692 l 299 692 z "},"Е":{"ha":717,"x_min":61,"x_max":583,"o":"m 583 0 l 61 0 l 61 831 l 583 831 l 583 692 l 207 692 l 207 482 l 561 482 l 561 343 l 207 343 l 207 139 l 583 139 l 583 0 z "},"Ж":{"ha":1135,"x_min":-25,"x_max":1085,"o":"m 1085 0 l 906 0 l 636 347 l 603 347 l 603 0 l 457 0 l 457 347 l 424 347 l 154 0 l -25 0 q 137 208 26 61 q 299 417 247 356 l -24 831 l 156 831 q 290 658 203 775 q 425 485 376 542 l 457 485 l 457 831 l 603 831 l 603 485 l 635 485 q 770 658 683 542 q 904 831 857 775 l 1083 831 l 761 417 q 923 208 813 356 q 1085 0 1033 61 z "},"З":{"ha":731,"x_min":17,"x_max":608,"o":"m 463 186 l 463 299 q 461 306 463 303 q 437 336 453 321 q 411 351 421 351 l 410 351 l 215 351 l 215 489 l 410 489 l 411 489 q 437 504 421 489 q 461 535 453 519 l 463 542 l 463 642 l 461 649 q 435 680 451 665 q 410 694 419 694 l 233 694 q 228 693 231 694 q 188 665 210 685 q 160 622 167 644 l 18 661 q 51 721 36 699 q 229 835 142 835 l 411 835 q 508 804 465 835 q 583 728 551 772 q 608 643 608 690 l 608 539 q 553 421 608 476 q 608 301 608 365 l 608 185 q 583 100 608 138 q 548 60 574 86 q 508 24 522 33 q 411 -7 465 -7 l 229 -7 q 51 107 139 -7 q 17 167 25 143 l 158 204 q 194 160 174 182 q 226 133 214 139 q 233 132 229 132 l 410 132 q 435 147 418 132 q 461 179 451 163 q 463 186 463 182 z "},"И":{"ha":788,"x_min":61,"x_max":649,"o":"m 215 0 l 61 0 l 61 831 l 207 831 l 207 272 l 492 831 l 649 831 l 649 0 l 503 0 l 503 551 l 215 0 z "},"Й":{"ha":788,"x_min":61,"x_max":649,"o":"m 215 0 l 61 0 l 61 831 l 207 831 l 207 272 l 492 831 l 649 831 l 649 0 l 503 0 l 503 551 l 215 0 m 424 1058 l 504 1058 q 462 956 504 999 q 361 914 419 914 q 259 956 303 914 q 215 1058 215 999 l 296 1058 q 315 1011 296 1031 q 361 992 335 992 q 406 1011 388 992 q 424 1058 424 1031 z "},"К":{"ha":739,"x_min":61,"x_max":689,"o":"m 689 0 l 510 0 l 240 347 l 207 347 l 207 0 l 61 0 l 61 831 l 207 831 l 207 485 l 239 485 q 374 658 288 542 q 508 831 461 775 l 688 831 l 365 417 q 527 208 417 356 q 689 0 638 61 z "},"Л":{"ha":843,"x_min":-33,"x_max":704,"o":"m 276 196 q 253 117 276 153 q 206 63 238 96 q 154 18 174 29 q 68 -7 111 -7 l -33 -7 l -33 132 l 61 132 q 99 160 68 131 q 131 197 131 190 l 131 831 l 704 831 l 704 0 l 558 0 l 558 690 l 276 690 l 276 196 z "},"М":{"ha":918,"x_min":61,"x_max":779,"o":"m 779 0 l 633 0 l 633 568 l 468 204 l 372 204 l 207 567 l 207 0 l 61 0 l 61 831 l 228 831 l 422 421 l 614 831 l 779 831 l 779 0 z "},"Н":{"ha":794,"x_min":61,"x_max":656,"o":"m 656 0 l 510 0 l 510 343 l 207 343 l 207 0 l 61 0 l 61 831 l 207 831 l 207 482 l 510 482 l 510 831 l 656 831 l 656 0 z "},"О":{"ha":818,"x_min":63,"x_max":693,"o":"m 693 197 q 671 118 693 151 q 622 63 654 96 q 569 18 589 29 q 483 -7 529 -7 l 272 -7 q 186 18 226 -7 q 133 63 167 29 q 85 118 99 97 q 63 197 63 151 l 63 632 q 85 711 63 678 q 133 766 99 732 q 186 811 167 800 q 272 836 226 836 l 483 836 q 569 811 529 836 q 622 767 589 800 q 671 711 654 733 q 693 632 693 678 l 693 197 m 208 628 l 208 199 q 210 193 208 194 q 271 133 238 151 q 278 132 274 132 l 478 132 q 485 133 482 132 q 546 193 518 151 l 547 199 l 547 628 q 546 635 547 633 q 485 696 517 678 q 478 697 482 697 l 278 697 q 271 696 272 697 q 210 635 239 678 l 208 628 z "},"П":{"ha":776,"x_min":61,"x_max":638,"o":"m 638 0 l 492 0 l 492 692 l 207 692 l 207 0 l 61 0 l 61 831 l 638 831 l 638 0 z "},"Р":{"ha":746,"x_min":61,"x_max":650,"o":"m 650 517 q 625 432 650 469 q 590 394 615 418 q 550 358 565 369 q 451 328 507 328 l 207 328 l 207 0 l 61 0 l 61 831 l 451 831 q 550 800 507 831 q 590 764 564 790 q 625 724 615 738 q 650 639 650 686 l 650 517 m 504 518 l 504 638 q 503 647 504 644 q 458 692 479 689 l 451 692 l 207 692 l 207 467 l 451 467 q 478 482 461 467 q 503 513 494 497 q 504 518 504 515 z "},"С":{"ha":768,"x_min":61,"x_max":650,"o":"m 650 161 q 621 108 636 129 q 444 -7 535 -7 l 271 -7 q 185 18 225 -7 q 131 64 164 31 q 83 117 97 97 q 61 196 61 150 l 61 633 q 83 711 61 678 q 131 766 97 732 q 185 811 165 800 q 271 836 229 836 l 444 836 q 621 721 533 836 q 650 672 629 710 l 508 632 q 446 696 467 683 q 440 697 444 697 l 276 697 l 271 696 q 208 635 235 676 q 207 619 207 632 l 207 197 q 230 165 207 186 q 271 133 253 143 q 281 132 272 132 l 439 132 q 446 133 443 132 q 474 156 458 139 q 500 186 490 172 l 508 199 l 650 161 z "},"Т":{"ha":693,"x_min":10,"x_max":606,"o":"m 606 692 l 381 692 l 381 0 l 235 0 l 235 692 l 10 692 l 10 831 l 606 831 l 606 692 z "},"У":{"ha":729,"x_min":-14,"x_max":658,"o":"m 658 831 l 315 0 l 174 0 l 261 221 l 232 221 l -14 831 l 142 831 l 321 374 l 508 831 l 658 831 z "},"Ф":{"ha":860,"x_min":63,"x_max":735,"o":"m 438 -115 l 357 -115 l 357 -7 l 272 -7 q 186 18 226 -7 q 133 63 167 29 q 85 118 99 97 q 63 197 63 151 l 63 632 q 85 711 63 678 q 133 766 99 732 q 186 811 167 800 q 272 836 226 836 l 357 836 l 357 932 l 438 932 l 438 836 l 525 836 q 611 811 571 836 q 663 767 631 800 q 713 711 696 733 q 735 632 735 678 l 735 197 q 713 118 735 151 q 663 63 696 96 q 611 18 631 29 q 525 -7 571 -7 l 438 -7 l 438 -115 m 519 697 l 438 697 l 438 132 l 519 132 q 526 133 524 132 q 588 193 560 151 l 589 199 l 589 628 q 588 635 589 633 q 526 696 558 678 q 519 697 524 697 m 208 628 l 208 199 q 210 193 208 194 q 271 133 238 151 q 278 132 274 132 l 357 132 l 357 697 l 278 697 q 271 696 272 697 q 210 635 239 678 l 208 628 z "},"Х":{"ha":739,"x_min":-11,"x_max":679,"o":"m 665 831 l 414 425 l 679 0 l 517 0 l 333 296 l 151 0 l -11 0 l 253 425 l 3 831 l 164 831 l 333 554 l 504 831 l 665 831 z "},"Ц":{"ha":794,"x_min":61,"x_max":704,"o":"m 638 138 l 704 138 l 675 -110 l 529 -110 l 543 0 l 61 0 l 61 831 l 207 831 l 207 138 l 492 138 l 492 831 l 638 831 l 638 138 z "},"Ч":{"ha":764,"x_min":31,"x_max":625,"o":"m 625 0 l 479 0 l 479 343 l 240 343 q 154 368 194 343 q 101 413 135 379 q 53 468 67 447 q 31 547 31 501 l 31 831 l 176 831 l 176 549 q 178 543 176 544 q 239 483 206 501 l 242 482 l 479 482 l 479 831 l 625 831 l 625 0 z "},"Ш":{"ha":918,"x_min":61,"x_max":779,"o":"m 61 831 l 207 831 l 207 138 l 349 138 l 349 831 l 493 831 l 493 138 l 633 138 l 633 831 l 779 831 l 779 0 l 61 0 l 61 831 z "},"Щ":{"ha":936,"x_min":61,"x_max":846,"o":"m 61 831 l 207 831 l 207 138 l 349 138 l 349 831 l 493 831 l 493 138 l 633 138 l 633 831 l 779 831 l 779 138 l 846 138 l 817 -110 l 671 -110 l 685 0 l 61 0 l 61 831 z "},"Ъ":{"ha":813,"x_min":-25,"x_max":690,"o":"m 249 831 l 249 482 l 496 482 q 593 451 547 482 q 635 414 610 440 q 667 376 661 388 q 690 293 690 342 l 690 189 q 667 106 690 140 q 633 67 658 93 q 593 31 608 40 q 496 0 551 0 l 103 0 l 103 692 l -25 692 l -25 831 l 249 831 m 543 185 q 544 194 544 189 l 544 293 l 543 300 q 518 332 533 317 q 493 347 503 347 l 249 347 l 249 139 l 494 139 q 520 154 504 139 q 543 185 536 169 z "},"Ы":{"ha":1071,"x_min":61,"x_max":932,"o":"m 625 376 q 649 293 649 342 l 649 189 q 625 106 649 140 q 592 67 617 93 q 551 31 567 40 q 454 0 510 0 l 61 0 l 61 831 l 207 831 l 207 482 l 454 482 q 551 451 506 482 q 594 414 568 440 q 625 376 619 388 m 501 183 q 503 193 503 188 l 503 293 l 501 300 q 476 332 492 317 q 451 347 461 347 l 207 347 l 207 138 l 453 138 q 478 153 463 138 q 501 183 494 168 m 932 0 l 786 0 l 786 831 l 932 831 l 932 0 z "},"Ь":{"ha":771,"x_min":61,"x_max":649,"o":"m 625 376 q 649 293 649 342 l 649 189 q 625 106 649 140 q 592 67 617 93 q 551 31 567 40 q 454 0 510 0 l 61 0 l 61 831 l 207 831 l 207 482 l 454 482 q 551 451 506 482 q 594 414 568 440 q 625 376 619 388 m 501 183 q 503 193 503 188 l 503 293 l 501 300 q 476 332 492 317 q 451 347 461 347 l 207 347 l 207 138 l 453 138 q 478 153 463 138 q 501 183 494 168 z "},"Э":{"ha":731,"x_min":17,"x_max":608,"o":"m 463 186 l 463 351 l 215 351 l 215 489 l 463 489 l 463 642 l 461 649 q 435 680 451 665 q 410 694 419 694 l 233 694 l 228 693 q 188 665 210 685 q 160 622 167 644 l 18 661 q 51 721 36 699 q 229 835 142 835 l 411 835 q 508 804 465 835 q 583 728 551 772 q 608 643 608 690 l 608 185 q 583 100 608 138 q 548 60 574 86 q 508 24 522 33 q 411 -7 465 -7 l 229 -7 q 51 107 139 -7 q 17 167 25 143 l 158 204 q 194 160 174 182 q 226 133 214 139 q 233 132 229 132 l 410 132 q 435 147 418 132 q 461 179 451 163 q 463 186 463 182 z "},"Ю":{"ha":1090,"x_min":61,"x_max":965,"o":"m 965 197 q 943 118 965 151 q 894 63 926 96 q 842 18 861 29 q 756 -7 801 -7 l 544 -7 q 458 18 499 -7 q 405 63 439 29 q 357 118 371 97 q 335 197 335 151 l 335 343 l 207 343 l 207 0 l 61 0 l 61 831 l 207 831 l 207 482 l 335 482 l 335 632 q 357 711 335 678 q 405 766 371 732 q 458 811 439 800 q 544 836 499 836 l 756 836 q 842 811 801 836 q 894 767 861 800 q 943 711 926 733 q 965 632 965 678 l 965 197 m 481 628 l 481 199 q 482 193 481 194 q 543 133 510 151 q 550 132 546 132 l 750 132 q 757 133 754 132 q 818 193 790 151 l 819 199 l 819 628 q 818 635 819 633 q 757 696 789 678 q 750 697 754 697 l 550 697 q 543 696 544 697 q 482 635 511 678 l 481 628 z "},"Я":{"ha":768,"x_min":-3,"x_max":629,"o":"m 40 517 l 40 639 q 65 724 40 686 q 101 764 75 738 q 140 800 126 790 q 239 831 183 831 l 629 831 l 629 0 l 483 0 l 483 328 l 325 328 l 157 0 l -3 0 l 176 339 q 140 358 158 344 q 100 394 125 369 q 65 432 75 418 q 40 517 40 469 m 186 638 l 186 518 l 188 513 q 213 482 196 497 q 239 467 229 467 l 483 467 l 483 692 l 232 692 q 188 647 211 689 l 186 638 z "},"а":{"ha":665,"x_min":24,"x_max":558,"o":"m 406 376 l 406 424 q 404 431 406 429 q 360 472 390 454 q 351 475 354 475 l 229 475 q 201 460 218 475 q 174 432 183 444 l 43 471 q 83 526 53 493 q 133 574 114 560 q 233 607 182 607 l 353 607 q 454 576 411 607 q 521 511 500 543 q 544 425 544 479 l 544 122 l 558 0 l 421 0 l 414 28 q 328 -7 365 -7 l 214 -7 q 114 24 157 -7 q 49 89 76 51 q 24 174 24 124 l 24 199 q 49 283 24 249 q 114 346 71 315 q 214 376 157 376 l 406 376 m 406 181 l 406 253 l 215 253 q 206 250 210 253 q 164 206 181 235 q 163 201 163 203 l 163 175 l 164 171 q 207 128 182 140 q 215 125 213 125 l 324 125 q 365 147 333 125 q 406 181 396 169 z "},"б":{"ha":676,"x_min":49,"x_max":567,"o":"m 268 607 l 375 607 q 476 576 433 607 q 543 510 519 544 q 567 425 567 478 l 567 175 q 543 90 567 122 q 476 22 518 53 q 375 -7 435 -7 l 240 -7 q 140 22 182 -7 q 103 56 125 33 q 72 90 81 78 q 49 175 49 122 l 49 643 q 74 728 49 690 q 110 767 83 742 q 150 804 136 793 q 246 835 192 835 l 428 835 l 418 803 q 399 737 408 769 q 390 704 389 704 l 242 704 q 224 694 236 704 q 201 672 211 683 l 192 663 q 188 647 188 658 l 188 561 q 268 607 236 607 m 188 411 l 188 168 q 233 126 188 153 q 242 125 236 125 l 374 125 q 382 128 376 125 q 428 168 426 153 l 428 421 q 426 429 428 425 q 381 474 410 457 q 374 475 378 475 l 272 475 q 250 471 256 475 q 188 411 200 435 z "},"в":{"ha":657,"x_min":60,"x_max":556,"o":"m 531 328 q 510 301 525 318 q 532 274 521 290 q 556 190 556 236 l 556 167 q 531 86 553 119 q 472 24 504 47 q 376 -6 435 -6 l 60 -6 l 60 604 l 376 604 q 472 572 436 601 q 532 511 507 547 q 556 426 556 475 l 556 407 q 531 328 553 360 m 374 475 l 196 475 l 196 364 l 375 364 l 378 364 l 379 364 q 419 408 408 388 l 419 429 q 379 474 401 463 q 374 475 376 475 m 419 167 l 419 193 q 379 236 404 224 q 372 238 376 238 l 196 238 l 196 122 l 378 122 q 419 167 408 144 z "},"г":{"ha":553,"x_min":60,"x_max":476,"o":"m 60 600 l 476 600 l 476 468 l 200 468 l 200 0 l 60 0 l 60 600 z "},"д":{"ha":731,"x_min":6,"x_max":665,"o":"m 594 129 l 665 129 l 636 -107 l 504 -107 l 515 0 l 139 0 l 139 -107 l 6 -107 l 6 129 q 64 133 56 129 q 103 176 83 143 q 107 188 106 182 l 164 600 l 594 600 l 594 129 m 242 182 q 215 129 239 164 l 458 129 l 458 471 l 283 471 l 242 182 z "},"е":{"ha":668,"x_min":46,"x_max":561,"o":"m 561 233 l 185 233 l 185 176 l 186 169 q 213 140 196 154 q 240 125 231 125 l 375 125 q 426 161 396 125 l 431 167 l 560 128 q 520 72 550 104 q 471 25 490 39 q 371 -7 424 -7 l 240 -7 q 139 22 181 -7 q 72 89 100 51 q 46 175 46 125 l 46 425 q 72 510 46 474 q 139 576 100 547 q 240 607 182 607 l 368 607 q 469 576 426 607 q 536 510 513 544 q 561 425 561 476 l 561 233 m 422 357 l 422 422 q 421 431 422 429 q 375 474 406 456 q 367 475 372 475 l 240 475 q 213 460 231 475 q 186 431 196 446 l 185 422 l 185 357 l 422 357 z "},"ж":{"ha":1063,"x_min":-17,"x_max":1025,"o":"m 1025 0 l 839 0 l 618 246 l 574 246 l 574 0 l 435 0 l 435 246 l 390 246 l 169 0 l -17 0 l 269 310 l 3 600 l 185 600 l 389 376 l 435 376 l 435 600 l 574 600 l 574 376 l 619 376 l 824 600 l 1006 600 l 739 310 l 1025 0 z "},"з":{"ha":639,"x_min":24,"x_max":538,"o":"m 538 404 q 513 328 536 361 q 488 301 507 318 q 513 274 507 282 q 538 190 538 236 l 538 175 q 511 89 538 125 q 444 22 483 51 q 343 -7 403 -7 l 213 -7 q 113 25 160 -7 q 63 72 93 39 q 24 128 33 104 l 153 167 q 157 161 156 163 q 208 125 188 125 l 343 125 q 370 140 353 125 q 397 169 388 154 q 399 176 399 172 l 399 194 q 361 236 383 224 q 354 238 360 238 l 214 238 l 214 363 l 361 363 q 399 404 389 383 l 399 421 l 397 428 q 370 458 388 443 q 343 472 353 472 l 208 472 q 157 436 188 472 l 153 431 l 24 469 q 63 526 33 493 q 113 572 93 558 q 213 604 160 604 l 343 604 q 444 575 403 604 q 511 508 483 546 q 538 422 538 472 l 538 404 z "},"и":{"ha":706,"x_min":60,"x_max":590,"o":"m 451 600 l 590 600 l 590 0 l 451 0 l 451 369 l 194 0 l 60 0 l 60 600 l 199 600 l 199 236 l 451 600 z "},"й":{"ha":706,"x_min":60,"x_max":590,"o":"m 451 600 l 590 600 l 590 0 l 451 0 l 451 369 l 194 0 l 60 0 l 60 600 l 199 600 l 199 236 l 451 600 m 393 828 l 474 828 q 431 726 474 768 q 331 683 389 683 q 228 726 272 683 q 185 828 185 768 l 265 828 q 285 781 265 800 q 331 761 304 761 q 375 781 357 761 q 393 828 393 800 z "},"к":{"ha":688,"x_min":60,"x_max":650,"o":"m 650 0 l 464 0 l 243 246 l 199 246 l 199 0 l 60 0 l 60 600 l 199 600 l 199 376 l 244 376 q 449 600 310 449 l 631 600 l 364 310 l 650 0 z "},"л":{"ha":731,"x_min":-12,"x_max":615,"o":"m -12 117 l 49 117 l 57 118 q 101 165 88 138 q 103 172 103 169 l 103 600 l 615 600 l 615 0 l 475 0 l 475 468 l 243 468 l 243 169 q 218 82 243 118 q 149 14 189 42 q 50 -15 107 -15 l -12 -15 l -12 117 z "},"м":{"ha":747,"x_min":60,"x_max":632,"o":"m 488 600 l 632 600 l 632 0 l 493 0 l 493 333 q 437 225 474 297 q 392 136 400 153 l 301 136 l 199 339 l 199 0 l 60 0 l 60 600 l 207 600 l 347 331 q 422 476 372 381 q 488 600 472 571 z "},"н":{"ha":688,"x_min":60,"x_max":572,"o":"m 432 600 l 572 600 l 572 0 l 432 0 l 432 249 l 200 249 l 200 0 l 60 0 l 60 600 l 200 600 l 200 381 l 432 381 l 432 600 z "},"о":{"ha":672,"x_min":49,"x_max":563,"o":"m 563 175 q 539 90 563 122 q 472 22 514 53 q 371 -7 431 -7 l 240 -7 q 140 22 182 -7 q 103 56 125 33 q 72 90 81 78 q 49 175 49 122 l 49 425 q 72 510 49 478 q 140 576 94 543 q 240 607 183 607 l 371 607 q 472 576 429 607 q 539 510 515 544 q 563 425 563 478 l 563 175 m 188 421 l 188 168 q 233 126 188 153 q 242 125 236 125 l 369 125 q 378 128 372 125 q 424 168 422 153 l 424 421 q 422 429 424 425 q 376 474 406 457 q 369 475 374 475 l 242 475 q 235 474 238 475 q 189 429 204 456 l 188 421 z "},"п":{"ha":688,"x_min":60,"x_max":572,"o":"m 60 600 l 572 600 l 572 0 l 432 0 l 432 468 l 200 468 l 200 0 l 60 0 l 60 600 z "},"р":{"ha":682,"x_min":46,"x_max":572,"o":"m 572 176 q 547 90 572 125 q 481 22 515 46 q 381 -7 439 -7 l 279 -7 q 197 25 243 -7 l 197 -226 l 58 -226 l 58 476 l 46 600 l 183 600 l 189 569 q 279 607 238 607 l 381 607 q 481 576 439 607 q 547 508 522 546 q 572 422 572 472 l 572 176 m 433 179 l 433 419 l 432 428 q 388 472 417 454 q 379 475 382 475 l 283 475 q 242 452 272 475 q 197 413 213 429 l 197 186 q 242 147 213 169 q 283 125 272 125 l 379 125 q 388 126 385 125 q 432 172 415 144 q 433 179 433 175 z "},"с":{"ha":651,"x_min":49,"x_max":564,"o":"m 188 176 q 190 168 188 172 q 235 128 203 146 q 243 125 240 125 l 379 125 q 431 161 400 125 q 435 167 432 163 l 564 128 q 524 72 554 104 q 475 25 494 39 q 375 -7 428 -7 l 242 -7 q 140 22 182 -7 q 74 90 99 53 q 49 175 49 124 l 49 425 q 74 510 49 476 q 140 578 99 547 q 242 607 182 607 l 374 607 q 474 575 426 607 q 524 528 497 558 q 563 472 551 499 l 433 433 l 429 439 q 378 475 399 475 l 243 475 l 235 472 q 190 432 203 454 l 188 424 l 188 176 z "},"т":{"ha":601,"x_min":14,"x_max":525,"o":"m 525 468 l 339 468 l 339 0 l 200 0 l 200 468 l 14 468 l 14 600 l 525 600 l 525 468 z "},"у":{"ha":593,"x_min":6,"x_max":590,"o":"m 590 600 l 296 -225 l 156 -225 l 239 0 l 226 0 l 6 600 l 161 600 l 301 193 l 443 600 l 590 600 z "},"ф":{"ha":694,"x_min":49,"x_max":585,"o":"m 357 -226 l 276 -226 l 276 -7 l 240 -7 q 140 22 182 -7 q 103 56 125 33 q 72 90 81 78 q 49 175 49 122 l 49 425 q 72 510 49 478 q 140 576 94 543 q 240 607 183 607 l 276 607 l 276 832 l 357 832 l 357 607 l 393 607 q 494 576 451 607 q 561 510 538 544 q 585 425 585 478 l 585 175 q 561 90 585 122 q 494 22 536 53 q 393 -7 453 -7 l 357 -7 l 357 -226 m 188 421 l 188 168 q 233 126 188 153 q 242 125 236 125 l 276 125 l 276 475 l 242 475 q 235 474 238 475 q 189 429 204 456 l 188 421 m 392 475 l 357 475 l 357 125 l 392 125 q 400 128 394 125 q 446 168 444 153 l 446 421 l 444 429 q 399 474 428 457 q 392 475 396 475 z "},"х":{"ha":624,"x_min":-11,"x_max":574,"o":"m 574 0 l 408 0 l 282 189 l 156 0 l -11 0 l 199 307 l -4 600 l 165 600 l 282 421 l 394 600 l 564 600 l 364 307 l 574 0 z "},"ц":{"ha":708,"x_min":60,"x_max":643,"o":"m 572 129 l 643 129 l 614 -107 l 482 -107 l 493 0 l 60 0 l 60 600 l 199 600 l 199 132 l 433 132 l 433 600 l 572 600 l 572 129 z "},"ч":{"ha":658,"x_min":32,"x_max":542,"o":"m 171 600 l 171 421 l 172 414 q 217 364 188 382 q 222 363 219 363 l 403 363 l 403 600 l 542 600 l 542 0 l 403 0 l 403 233 l 221 233 q 124 263 164 233 q 57 331 89 286 q 32 418 32 367 l 32 600 l 171 600 z "},"ш":{"ha":808,"x_min":61,"x_max":693,"o":"m 693 600 l 693 0 l 61 0 l 61 600 l 197 600 l 197 129 l 307 129 l 307 600 l 443 600 l 443 129 l 557 129 l 557 600 l 693 600 z "},"щ":{"ha":831,"x_min":61,"x_max":765,"o":"m 694 129 l 765 129 l 736 -107 l 604 -107 l 615 0 l 61 0 l 61 600 l 197 600 l 197 129 l 307 129 l 307 600 l 443 600 l 443 129 l 557 129 l 557 600 l 693 600 l 693 126 l 694 129 z "},"ъ":{"ha":717,"x_min":-12,"x_max":615,"o":"m 233 600 l 233 379 l 425 379 q 525 349 482 379 q 590 283 563 321 q 615 199 615 249 l 615 174 q 590 89 615 124 q 525 24 563 51 q 425 -7 482 -7 l 94 -7 l 94 469 l -12 469 l -12 600 l 233 600 m 233 249 l 233 125 l 424 125 l 432 128 q 475 171 461 146 q 476 175 476 174 l 476 197 l 475 201 q 433 246 458 231 q 424 249 431 249 l 233 249 z "},"ы":{"ha":928,"x_min":60,"x_max":813,"o":"m 199 600 l 199 379 l 390 379 q 490 349 447 379 q 556 283 528 321 q 581 199 581 249 l 581 174 q 556 89 581 124 q 490 24 528 51 q 390 -7 447 -7 l 60 -7 l 60 600 l 199 600 m 199 249 l 199 125 l 389 125 l 397 128 q 440 171 426 146 q 442 175 442 174 l 442 197 l 440 201 q 399 246 424 231 q 389 249 396 249 l 199 249 m 813 0 l 674 0 l 674 600 l 813 600 l 813 0 z "},"ь":{"ha":682,"x_min":60,"x_max":581,"o":"m 199 600 l 199 379 l 390 379 q 490 349 447 379 q 556 283 528 321 q 581 199 581 249 l 581 174 q 556 89 581 124 q 490 24 528 51 q 390 -7 447 -7 l 60 -7 l 60 600 l 199 600 m 199 249 l 199 125 l 389 125 l 397 128 q 440 171 426 146 q 442 175 442 174 l 442 197 l 440 201 q 399 246 424 231 q 389 249 396 249 l 199 249 z "},"э":{"ha":658,"x_min":29,"x_max":543,"o":"m 543 422 l 543 175 q 517 89 543 125 q 450 22 489 51 q 349 -7 408 -7 l 218 -7 q 118 25 165 -7 q 69 72 99 39 q 29 128 39 104 l 158 167 q 163 161 161 163 q 214 125 193 125 l 350 125 q 376 139 360 125 q 403 169 393 153 q 404 176 404 172 l 404 238 l 219 238 l 219 363 l 404 363 l 404 421 l 403 428 q 376 458 393 444 q 350 472 360 472 l 214 472 q 163 436 193 472 l 158 431 l 29 469 q 69 526 39 493 q 118 572 99 558 q 218 604 165 604 l 349 604 q 450 575 408 604 q 517 508 489 546 q 543 422 543 472 z "},"ю":{"ha":924,"x_min":60,"x_max":814,"o":"m 814 175 q 790 90 814 122 q 724 22 765 53 q 622 -7 682 -7 l 492 -7 q 392 22 433 -7 q 354 56 376 33 q 324 90 332 78 q 300 175 300 122 l 300 249 l 199 249 l 199 0 l 60 0 l 60 600 l 199 600 l 199 381 l 300 381 l 300 425 q 324 510 300 478 q 392 576 346 543 q 492 607 435 607 l 622 607 q 724 576 681 607 q 790 510 767 544 q 814 425 814 478 l 814 175 m 439 421 l 439 168 q 485 126 439 153 q 493 125 488 125 l 621 125 q 629 128 624 125 q 675 168 674 153 l 675 421 l 674 429 q 628 474 657 457 q 621 475 625 475 l 493 475 q 486 474 489 475 q 440 429 456 456 l 439 421 z "},"я":{"ha":664,"x_min":-8,"x_max":549,"o":"m -8 0 l 157 247 q 131 261 149 249 q 72 324 94 288 q 49 407 49 358 l 49 431 q 72 510 51 475 q 132 574 96 549 q 228 604 176 604 l 549 604 l 549 0 l 411 0 l 411 232 l 308 232 q 235 119 288 199 q 157 0 182 39 l -8 0 m 185 432 l 185 401 q 225 358 199 372 l 411 358 l 411 475 l 226 475 q 185 432 197 458 z "},"ё":{"ha":668,"x_min":46,"x_max":561,"o":"m 561 233 l 185 233 l 185 176 l 186 169 q 213 140 196 154 q 240 125 231 125 l 375 125 q 426 161 396 125 l 431 167 l 560 128 q 520 72 550 104 q 471 25 490 39 q 371 -7 424 -7 l 240 -7 q 139 22 181 -7 q 72 89 100 51 q 46 175 46 125 l 46 425 q 72 510 46 474 q 139 576 100 547 q 240 607 182 607 l 368 607 q 469 576 426 607 q 536 510 513 544 q 561 425 561 476 l 561 233 m 422 357 l 422 422 q 421 431 422 429 q 375 474 406 456 q 367 475 372 475 l 240 475 q 213 460 231 475 q 186 431 196 446 l 185 422 l 185 357 l 422 357 m 479 688 l 344 688 l 344 831 l 479 831 l 479 688 m 256 688 l 121 688 l 121 831 l 256 831 l 256 688 z "},"ђ":{"ha":676,"x_min":-17,"x_max":561,"o":"m 365 656 l 188 656 l 188 574 q 269 607 235 607 l 369 607 q 469 576 428 607 q 536 508 504 553 q 561 424 561 472 l 561 -44 q 536 -132 561 -96 q 468 -200 506 -175 q 369 -229 426 -229 l 253 -229 l 253 -97 l 368 -97 l 376 -96 q 421 -49 407 -76 q 422 -42 422 -44 l 422 421 l 421 428 q 376 474 404 456 q 368 475 375 475 l 272 475 q 231 453 260 475 q 188 413 201 431 l 188 0 l 49 0 l 49 656 l -17 656 l -17 778 l 49 778 l 49 831 l 188 831 l 188 778 l 365 778 l 365 656 z "},"ѓ":{"ha":578,"x_min":60,"x_max":499,"o":"m 60 600 l 476 600 l 476 468 l 200 468 l 200 0 l 60 0 l 60 600 m 335 678 l 207 715 l 335 881 l 499 881 l 335 678 z "},"є":{"ha":661,"x_min":49,"x_max":563,"o":"m 49 422 q 75 508 49 472 q 142 575 103 546 q 243 604 183 604 l 374 604 q 474 572 426 604 q 523 526 493 558 q 563 469 553 493 l 433 431 q 429 436 431 435 q 378 472 399 472 l 242 472 q 215 458 232 472 q 189 428 199 444 q 188 421 188 425 l 188 363 l 372 363 l 372 238 l 188 238 l 188 176 l 189 169 q 215 139 199 153 q 242 125 232 125 l 378 125 q 429 161 399 125 l 433 167 l 563 128 q 523 72 553 104 q 474 25 493 39 q 374 -7 426 -7 l 243 -7 q 142 22 183 -7 q 75 89 103 51 q 49 175 49 125 l 49 422 z "},"ѕ":{"ha":651,"x_min":19,"x_max":554,"o":"m 153 163 q 204 125 183 128 l 365 125 q 397 143 378 125 q 415 175 415 161 l 415 208 q 397 228 415 226 q 297 235 379 229 q 169 246 214 242 q 75 287 111 250 q 39 388 39 324 l 39 429 q 64 514 39 479 q 225 607 129 607 l 358 607 q 458 575 411 607 q 510 528 482 558 q 549 472 538 499 l 418 433 q 414 439 417 436 q 363 475 383 475 l 229 475 q 211 472 217 475 q 179 440 192 463 q 178 426 178 438 l 178 393 q 183 383 178 389 q 199 375 189 376 q 294 366 214 374 q 417 354 375 358 q 516 312 478 347 q 554 211 554 276 l 554 172 q 528 88 554 124 q 465 24 501 49 q 367 -7 422 -7 l 208 -7 q 108 26 157 -7 q 58 73 85 43 q 19 129 31 103 l 149 168 l 153 163 z "},"і":{"ha":319,"x_min":56,"x_max":204,"o":"m 204 685 l 56 685 l 56 833 l 204 833 l 204 685 m 200 0 l 61 0 l 61 600 l 200 600 l 200 0 z "},"ї":{"ha":321,"x_min":-51,"x_max":307,"o":"m 307 688 l 172 688 l 172 831 l 307 831 l 307 688 m 83 688 l -51 688 l -51 831 l 83 831 l 83 688 m 200 -1 l 61 -1 l 61 597 l 200 597 l 200 -1 z "},"ј":{"ha":342,"x_min":-86,"x_max":226,"o":"m 226 685 l 78 685 l 78 833 l 226 833 l 226 685 m 26 -99 l -86 -99 l -86 -229 l 31 -229 q 129 -200 88 -229 q 197 -132 167 -175 q 222 -44 222 -96 l 222 600 l 83 600 l 83 -42 l 82 -49 q 35 -97 68 -76 q 26 -99 32 -99 z "},"љ":{"ha":1099,"x_min":-12,"x_max":997,"o":"m 615 600 l 615 379 l 807 379 q 907 349 864 379 q 972 283 944 321 q 997 199 997 249 l 997 174 q 972 89 997 124 q 907 24 944 51 q 807 -7 864 -7 l 475 -7 l 475 468 l 243 468 l 243 169 q 218 82 243 118 q 149 14 189 42 q 50 -15 107 -15 l -12 -15 l -12 115 l 57 118 q 101 165 88 138 q 103 172 103 169 l 103 600 l 615 600 m 615 249 l 615 125 l 806 125 l 814 128 q 857 171 843 146 q 858 175 858 174 l 858 197 l 857 201 q 815 246 840 231 q 806 249 813 249 l 615 249 z "},"њ":{"ha":1056,"x_min":60,"x_max":954,"o":"m 432 600 l 572 600 l 572 379 l 764 379 q 864 349 821 379 q 929 283 901 321 q 954 199 954 249 l 954 174 q 929 89 954 124 q 864 24 901 51 q 764 -7 821 -7 l 432 -7 l 432 249 l 200 249 l 200 0 l 60 0 l 60 600 l 200 600 l 200 381 l 432 381 l 432 600 m 572 249 l 572 125 l 763 125 l 771 128 q 814 171 800 146 q 815 175 815 174 l 815 197 l 814 201 q 772 246 797 231 q 763 249 769 249 l 572 249 z "},"ћ":{"ha":676,"x_min":-17,"x_max":561,"o":"m 365 656 l 188 656 l 188 574 q 269 607 235 607 l 369 607 q 469 576 428 607 q 536 508 504 553 q 561 424 561 472 l 561 0 l 422 0 l 422 421 l 421 428 q 376 474 404 456 q 368 475 375 475 l 272 475 q 231 453 260 475 q 188 413 201 431 l 188 0 l 49 0 l 49 656 l -17 656 l -17 778 l 49 778 l 49 831 l 188 831 l 188 778 l 365 778 l 365 656 z "},"ќ":{"ha":688,"x_min":60,"x_max":650,"o":"m 650 0 l 464 0 l 243 246 l 199 246 l 199 0 l 60 0 l 60 600 l 199 600 l 199 376 l 244 376 q 449 600 310 449 l 631 600 l 364 310 l 650 0 m 390 678 l 263 715 l 390 881 l 554 881 l 390 678 z "},"ў":{"ha":597,"x_min":6,"x_max":590,"o":"m 329 828 l 410 828 q 367 726 410 768 q 267 683 325 683 q 165 726 208 683 q 121 828 121 768 l 201 828 q 221 781 201 800 q 267 761 240 761 q 311 781 293 761 q 329 828 329 800 m 590 600 l 296 -225 l 156 -225 l 239 0 l 226 0 l 6 600 l 161 600 l 301 193 l 443 600 l 590 600 z "},"џ":{"ha":688,"x_min":60,"x_max":572,"o":"m 383 -131 l 247 -131 l 247 0 l 60 0 l 60 600 l 199 600 l 199 132 l 433 132 l 433 600 l 572 600 l 572 0 l 383 0 l 383 -131 z "},"Ґ":{"ha":682,"x_min":61,"x_max":590,"o":"m 590 692 l 207 692 l 207 0 l 61 0 l 61 831 l 450 831 l 450 949 l 590 949 l 590 692 z "},"ґ":{"ha":571,"x_min":60,"x_max":478,"o":"m 478 474 l 476 474 l 476 468 l 199 468 l 199 0 l 60 0 l 60 600 l 343 600 l 343 715 l 478 715 l 478 474 z "},"–":{"ha":646,"x_min":49,"x_max":542,"o":"m 542 272 l 49 272 l 49 403 l 542 403 l 542 272 z "},"—":{"ha":753,"x_min":49,"x_max":663,"o":"m 663 272 l 49 272 l 49 401 l 663 401 l 663 272 z "},"‘":{"ha":308,"x_min":-18,"x_max":240,"o":"m 240 847 l 138 625 l -18 625 l 106 889 l 240 847 z "},"’":{"ha":308,"x_min":-25,"x_max":233,"o":"m -25 667 l 78 889 l 233 889 l 110 625 l -25 667 z "},"‚":{"ha":278,"x_min":-25,"x_max":233,"o":"m 233 104 l 131 -118 l -25 -118 l 99 146 l 233 104 z "},"“":{"ha":536,"x_min":-18,"x_max":497,"o":"m -18 658 l 85 881 l 240 881 l 117 617 l -18 658 m 239 658 l 342 881 l 497 881 l 374 617 l 239 658 z "},"”":{"ha":528,"x_min":-25,"x_max":490,"o":"m 490 847 l 388 625 l 232 625 l 356 889 l 490 847 m 233 847 l 131 625 l -25 625 l 99 889 l 233 847 z "},"„":{"ha":535,"x_min":-25,"x_max":490,"o":"m 490 104 l 388 -118 l 232 -118 l 356 146 l 490 104 m 233 104 l 131 -118 l -25 -118 l 99 146 l 233 104 z "},"†":{"ha":456,"x_min":76,"x_max":397,"o":"m 397 468 l 306 468 l 306 154 l 167 154 l 167 468 l 76 468 l 76 600 l 167 600 l 167 831 l 306 831 l 306 600 l 397 600 l 397 468 z "},"‡":{"ha":456,"x_min":76,"x_max":397,"o":"m 397 468 l 306 468 l 306 418 l 397 418 l 397 286 l 306 286 l 306 0 l 167 0 l 167 286 l 76 286 l 76 418 l 167 418 l 167 468 l 76 468 l 76 600 l 167 600 l 167 831 l 306 831 l 306 600 l 397 600 l 397 468 z "},"•":{"ha":615,"x_min":90,"x_max":476,"o":"m 476 332 q 446 246 476 283 q 382 190 413 210 q 301 168 347 168 l 267 168 q 186 190 221 168 q 118 247 143 218 q 90 332 90 281 l 90 354 q 186 494 90 431 q 267 517 219 517 l 301 517 q 382 494 349 517 q 476 354 476 432 l 476 332 z "},"…":{"ha":946,"x_min":126,"x_max":800,"o":"m 800 0 l 629 0 l 629 175 l 800 175 l 800 0 m 549 0 l 378 0 l 378 175 l 549 175 l 549 0 m 297 0 l 126 0 l 126 175 l 297 175 l 297 0 z "},"‰":{"ha":1628,"x_min":49,"x_max":1510,"o":"m 857 832 l 399 0 l 242 0 l 699 832 l 857 832 m 1510 128 q 1492 61 1510 86 q 1440 10 1472 36 q 1363 -14 1403 -14 l 1274 -14 q 1197 10 1233 -14 q 1144 61 1167 33 q 1126 128 1126 86 l 1126 306 q 1144 372 1126 347 q 1197 424 1167 400 q 1274 447 1233 447 l 1363 447 q 1440 424 1403 447 q 1492 372 1472 399 q 1510 306 1510 347 l 1510 128 m 1394 294 q 1393 301 1394 300 q 1361 332 1375 324 q 1354 333 1360 333 l 1282 333 q 1275 332 1276 333 q 1243 301 1257 321 l 1242 294 l 1242 139 q 1243 132 1242 135 q 1275 101 1257 113 q 1282 100 1276 100 l 1354 100 q 1361 101 1360 100 q 1393 132 1375 110 q 1394 139 1394 133 l 1394 294 m 432 524 q 414 457 432 482 q 363 406 394 431 q 285 382 325 382 l 196 382 q 119 406 156 382 q 67 457 89 429 q 49 524 49 482 l 49 701 q 67 768 49 743 q 119 819 89 796 q 196 843 156 843 l 285 843 q 363 819 325 843 q 414 768 394 794 q 432 701 432 743 l 432 524 m 317 690 q 315 697 317 696 q 283 728 297 719 q 276 729 282 729 l 204 729 q 197 728 199 729 q 165 697 179 717 l 164 690 l 164 535 q 165 528 164 531 q 197 497 179 508 q 204 496 199 496 l 276 496 q 283 497 282 496 q 315 528 297 506 q 317 535 317 529 l 317 690 m 1043 128 q 1025 61 1043 86 q 974 10 1006 36 q 896 -14 936 -14 l 807 -14 q 731 10 767 -14 q 678 61 700 33 q 660 128 660 86 l 660 306 q 678 372 660 347 q 731 424 700 400 q 807 447 767 447 l 896 447 q 974 424 936 447 q 1025 372 1006 399 q 1043 306 1043 347 l 1043 128 m 928 294 q 926 301 928 300 q 894 332 908 324 q 888 333 893 333 l 815 333 q 808 332 810 333 q 776 301 790 321 l 775 294 l 775 139 q 776 132 775 135 q 808 101 790 113 q 815 100 810 100 l 888 100 q 894 101 893 100 q 926 132 908 110 q 928 139 928 133 l 928 294 z "},"‹":{"ha":522,"x_min":51,"x_max":429,"o":"m 429 153 l 275 113 l 51 338 l 275 563 l 426 518 l 239 338 l 429 153 z "},"›":{"ha":507,"x_min":51,"x_max":429,"o":"m 206 113 l 51 153 l 242 338 l 54 518 l 206 563 l 429 338 l 206 113 z "},"⁄":{"ha":900,"x_min":0,"x_max":0,"o":""},"€":{"ha":803,"x_min":38,"x_max":672,"o":"m 672 161 q 643 108 658 129 q 467 -7 557 -7 l 293 -7 q 207 18 247 -7 q 153 64 186 31 q 106 117 119 97 q 83 196 83 150 l 83 258 l 38 258 l 38 383 l 83 383 l 83 433 l 38 433 l 38 560 l 83 560 l 83 633 q 106 711 83 678 q 153 766 119 732 q 207 811 188 800 q 293 836 251 836 l 467 836 q 643 721 556 836 q 672 672 651 710 l 531 632 q 468 696 489 683 q 463 697 467 697 l 299 697 l 293 696 q 231 635 257 676 q 229 619 229 632 l 229 560 l 528 560 l 528 433 l 229 433 l 229 383 l 528 383 l 528 258 l 229 258 l 229 197 q 252 165 229 186 q 293 133 275 143 q 303 132 294 132 l 461 132 q 468 133 465 132 q 497 156 481 139 q 522 186 513 172 l 531 199 l 672 161 z "},"№":{"ha":1232,"x_min":61,"x_max":1133,"o":"m 649 0 l 494 0 l 207 551 l 207 0 l 61 0 l 61 831 l 218 831 l 503 272 l 503 831 l 649 831 l 649 0 m 1133 524 q 1115 457 1133 482 q 1064 406 1096 431 q 986 382 1026 382 l 897 382 q 821 406 856 382 q 768 457 790 429 q 750 524 750 482 l 750 701 q 768 768 750 743 q 821 819 790 796 q 897 843 856 843 l 986 843 q 1064 819 1026 843 q 1115 768 1096 794 q 1133 701 1133 743 l 1133 524 m 1018 690 q 1017 697 1018 696 q 985 728 999 719 q 978 729 983 729 l 906 729 q 899 728 900 729 q 867 697 881 717 l 865 690 l 865 535 q 867 528 865 531 q 899 497 881 508 q 906 496 900 496 l 978 496 q 985 497 983 496 q 1017 528 999 506 q 1018 535 1018 529 l 1018 690 z "},"™":{"ha":872,"x_min":61,"x_max":754,"o":"m 754 421 l 628 421 l 628 606 l 594 547 l 511 547 l 488 593 l 488 421 l 360 421 l 360 711 l 290 711 l 290 421 l 163 421 l 163 711 l 61 711 l 61 831 l 501 831 l 554 731 l 613 831 l 754 831 l 754 421 z "},"Ω":{"ha":851,"x_min":38,"x_max":757,"o":"m 61 633 q 83 711 61 678 q 131 766 97 732 q 185 811 165 800 q 271 836 229 836 l 524 836 q 610 811 565 836 q 663 766 629 800 q 711 711 697 732 q 733 633 733 678 l 733 314 q 710 233 733 269 q 610 138 681 193 l 607 136 l 757 136 l 757 0 l 439 0 l 439 136 q 527 229 464 156 q 590 317 590 303 l 590 619 q 589 635 590 632 q 526 696 563 676 q 521 697 524 697 l 274 697 l 268 696 q 206 635 232 676 q 204 619 204 632 l 204 317 q 267 229 204 303 q 356 136 331 156 l 356 0 l 38 0 l 38 136 l 186 136 l 185 138 q 85 233 114 193 q 61 314 61 269 l 61 633 z "},"∂":{"ha":676,"x_min":49,"x_max":567,"o":"m 424 663 q 374 704 388 704 l 225 704 q 217 737 226 704 q 197 803 207 769 l 188 835 l 369 835 q 465 804 424 835 q 506 767 481 793 q 542 728 532 742 q 567 643 567 690 l 567 183 q 542 100 567 138 q 506 60 532 86 q 465 24 481 35 q 369 -7 424 -7 l 246 -7 q 150 24 192 -7 q 110 60 136 35 q 74 100 83 86 q 49 185 49 138 l 49 414 q 74 500 49 463 q 109 539 83 514 q 150 575 135 564 q 246 604 192 604 l 347 604 q 381 593 361 604 q 414 571 401 582 l 428 560 l 428 647 q 424 663 428 658 m 188 418 l 188 189 q 189 171 188 174 q 215 140 199 154 q 240 125 231 125 l 374 125 q 400 140 383 125 q 426 172 417 156 q 428 192 428 174 l 428 410 q 407 435 422 421 q 378 460 392 450 l 365 469 q 343 474 360 474 l 240 474 q 215 458 231 474 q 189 426 199 443 q 188 418 188 422 z "},"∆":{"ha":776,"x_min":-33,"x_max":715,"o":"m 715 0 l -33 0 l 257 831 l 426 831 l 715 0 m 511 139 l 342 643 l 171 139 l 511 139 z "},"∏":{"ha":776,"x_min":61,"x_max":638,"o":"m 638 0 l 492 0 l 492 692 l 207 692 l 207 0 l 61 0 l 61 831 l 638 831 l 638 0 z "},"∑":{"ha":703,"x_min":60,"x_max":608,"o":"m 476 428 l 251 139 l 608 139 l 608 0 l 63 0 l 63 118 l 303 431 l 60 710 l 60 831 l 607 831 l 607 692 l 251 692 l 476 428 z "},"−":{"ha":653,"x_min":49,"x_max":542,"o":"m 542 272 l 49 272 l 49 404 l 542 404 l 542 272 z "},"√":{"ha":938,"x_min":-11,"x_max":864,"o":"m 864 1038 l 451 -226 l 304 -226 l 135 272 l -11 272 l -11 403 l 232 403 l 408 -126 l 786 1038 l 864 1038 z "},"∞":{"ha":1088,"x_min":65,"x_max":950,"o":"m 246 156 q 163 179 193 156 q 94 246 128 200 q 65 347 65 288 l 65 361 q 94 461 65 419 q 163 529 129 508 q 246 553 193 553 l 386 553 q 471 529 439 553 q 507 497 481 524 q 543 529 525 517 q 628 553 575 553 l 768 553 q 853 529 821 553 q 919 461 886 507 q 950 361 950 418 l 950 347 q 919 246 950 289 q 853 179 888 203 q 768 156 821 156 l 628 156 q 543 179 575 156 q 507 210 526 190 q 471 179 476 182 q 386 156 439 156 l 246 156 m 393 422 l 228 422 q 185 375 213 422 q 183 367 183 372 l 183 342 q 188 333 183 338 q 207 306 193 322 q 228 288 221 289 l 393 288 q 401 289 397 288 q 446 335 429 306 l 446 347 l 446 361 l 446 374 q 401 421 426 406 l 393 422 m 775 422 l 610 422 q 567 376 597 422 q 568 361 568 371 l 568 347 l 568 333 q 589 305 575 321 q 610 288 603 289 l 775 288 q 783 289 779 288 q 828 335 811 306 q 829 342 829 338 l 829 367 q 828 374 829 371 q 783 421 808 406 l 775 422 z "},"∫":{"ha":465,"x_min":-53,"x_max":426,"o":"m -53 -97 l 63 -97 q 71 -96 68 -97 q 114 -49 100 -78 q 115 -42 115 -47 l 115 647 q 142 733 118 701 q 208 800 172 775 q 310 831 251 831 l 426 831 l 426 699 l 311 699 q 299 697 300 699 q 271 677 286 690 q 254 656 256 664 l 254 644 l 254 -44 q 231 -132 254 -97 q 163 -200 200 -175 q 64 -229 121 -229 l -53 -229 l -53 -97 z "},"≈":{"ha":675,"x_min":54,"x_max":571,"o":"m 571 211 l 438 186 q 403 217 422 221 l 249 200 q 135 216 188 189 q 54 313 82 243 l 186 338 q 221 307 201 303 l 376 325 q 490 308 436 336 q 571 211 543 281 m 571 418 l 438 393 q 403 424 422 428 l 249 407 q 135 423 188 396 q 54 519 82 450 l 186 544 q 221 514 201 510 l 376 532 q 490 515 436 543 q 571 418 543 488 z "},"≠":{"ha":675,"x_min":60,"x_max":579,"o":"m 547 628 l 490 522 l 579 522 l 579 393 l 422 393 l 379 313 l 579 313 l 579 185 l 311 185 l 250 71 l 90 71 l 151 185 l 60 185 l 60 313 l 219 313 l 263 393 l 60 393 l 60 522 l 332 522 l 389 628 l 547 628 z "},"≤":{"ha":650,"x_min":28,"x_max":546,"o":"m 546 549 l 224 376 l 544 204 l 544 50 l 28 329 l 28 424 l 546 701 l 546 549 z "},"≥":{"ha":650,"x_min":46,"x_max":564,"o":"m 564 329 l 47 50 l 47 204 l 367 376 l 46 549 l 46 701 l 564 424 l 564 329 z "},"◊":{"ha":992,"x_min":58,"x_max":893,"o":"m 642 393 q 596 343 618 363 q 486 311 557 311 l 419 311 l 419 179 l 296 179 l 296 646 l 501 646 q 588 618 549 646 q 642 561 618 599 q 663 490 660 532 l 663 468 q 642 393 663 425 m 547 492 q 510 531 533 515 l 419 531 l 419 428 l 511 428 q 547 467 532 438 l 547 492 m 82 117 q 58 196 58 153 l 58 635 q 81 714 58 683 q 128 768 94 735 q 181 813 161 801 q 265 836 218 836 l 685 836 q 769 813 732 836 q 822 768 789 801 q 869 714 856 735 q 893 635 893 678 l 893 196 q 871 117 893 147 q 824 63 857 96 q 771 18 790 29 q 686 -6 733 -6 l 267 -6 q 182 18 219 -6 q 129 63 163 29 q 82 117 96 96 m 756 199 l 756 632 q 730 667 756 639 q 688 703 704 694 q 678 706 682 706 l 274 706 q 261 703 267 706 q 197 640 218 681 q 196 632 196 638 l 196 199 q 222 164 196 192 q 264 128 247 136 q 274 125 269 125 l 678 125 q 690 128 685 125 q 754 190 733 150 q 756 199 756 193 z "},"":{"ha":694,"x_min":0,"x_max":0,"o":""},"ﬁ":{"ha":772,"x_min":10,"x_max":676,"o":"m 426 704 l 297 704 q 285 703 286 704 q 258 683 272 696 q 242 661 243 669 l 242 600 l 393 600 l 393 468 l 242 468 l 242 0 l 103 0 l 103 468 l 10 468 l 10 600 l 103 600 l 103 653 q 128 739 103 706 q 194 806 158 781 q 296 836 238 836 l 426 836 l 426 704 m 676 685 l 528 685 l 528 833 l 676 833 l 676 685 m 672 0 l 533 0 l 533 600 l 672 600 l 672 0 z "},"ﬂ":{"ha":792,"x_min":10,"x_max":682,"o":"m 426 704 l 297 704 q 285 703 286 704 q 258 683 272 696 q 242 661 243 669 l 242 600 l 393 600 l 393 468 l 242 468 l 242 0 l 103 0 l 103 468 l 10 468 l 10 600 l 103 600 l 103 653 q 128 739 103 706 q 194 806 158 781 q 296 836 238 836 l 426 836 l 426 704 m 682 0 l 542 0 l 528 103 l 528 831 l 667 831 l 667 118 l 682 0 z "}}}
